<svg width="525" height="341" viewBox="0 0 525 341" fill="none" xmlns="http://www.w3.org/2000/svg">
<g clip-path="url(#clip0_762_3536)">
<path d="M486.14 153.198C475.445 140.432 460.495 131.137 444.201 127.609C430.034 124.529 414.748 125.425 401.757 118.93C389.942 112.995 381.711 101.516 376.952 89.1416C367.209 63.7206 370.68 38.5795 348.731 18.4779C336.188 6.99923 318.942 2.01581 302.032 0.503992C267.763 -2.51965 232.487 7.95112 205.386 29.1726C175.821 52.3539 165.238 80.6306 155.943 115.011C145.752 152.806 120.723 136.736 90.8223 135.728C66.4089 134.944 41.2116 148.495 28.277 169.156C14.3345 191.498 13.8305 220.166 20.9417 245.531C27.661 269.552 41.9395 310.82 67.3608 318.547C80.3514 322.466 94.8539 323.474 106.837 330.193C111.764 332.937 115.628 338.256 120.835 339.88C126.099 341.504 132.762 339.152 138.137 339.152C162.047 339.264 185.956 339.32 209.866 339.432C266.756 339.656 323.701 339.88 380.591 340.104C391.902 340.16 406.517 342.4 417.043 339.488C411.556 341 421.579 318.267 422.139 317.371C426.674 309.98 434.29 302.925 440.561 296.989C451.704 286.406 465.646 280.527 477.125 270.616C502.994 248.219 510.554 198.665 495.939 168.484C493.419 162.997 490.06 157.846 486.14 153.198Z" fill="#F6F5F8"/>
<path d="M63.5532 340.384H75.368C82.5352 340.384 88.4146 334.561 88.4146 327.338V299.733H50.5626V327.338C50.5626 334.561 56.386 340.384 63.5532 340.384Z" fill="white"/>
<path d="M73.8561 319.275C72.5123 318.435 71.0564 317.147 71.2804 315.523C71.3924 314.627 72.0643 313.843 72.7362 313.227C76.7118 309.644 78.9516 308.132 81.1353 303.037C83.6551 304.38 85.2789 307.012 86.0628 309.812C86.8467 312.611 86.8467 315.579 86.9027 318.491C86.9587 325.042 88.0786 337.809 78.1117 337.025C76.3759 336.913 74.4721 336.353 73.6322 334.841C72.9602 333.665 73.1282 332.153 73.2402 330.753C73.6322 327.618 74.3041 323.978 77.0478 322.522C76.7678 321.011 75.2 320.115 73.8561 319.275Z" fill="#FBFAFC"/>
<path d="M63.5532 340.384H75.368C82.5352 340.384 88.4146 334.561 88.4146 327.338V299.733H50.5626V327.338C50.5626 334.561 56.386 340.384 63.5532 340.384Z" stroke="#5F5A70" stroke-width="2" stroke-miterlimit="10"/>
<path d="M63.8332 274.312C64.8411 269.384 68.4807 265.297 72.8483 262.833C77.2158 260.369 82.2553 259.362 87.2387 258.858C86.1748 262.609 88.2466 266.361 89.4785 270.056C90.8783 274.256 91.2703 278.903 89.8144 283.103C88.9745 285.511 87.4627 287.694 85.4469 289.262C83.4311 290.886 81.0794 291.222 78.7276 292.062C77.4958 292.51 76.3759 293.294 75.032 293.35C73.1282 293.406 71.5604 291.95 70.4965 290.382C69.6566 289.094 68.9847 287.582 68.0328 286.406C67.0809 285.231 66.017 284.391 65.2331 283.047C63.7772 280.415 63.2733 277.224 63.8332 274.312Z" fill="white"/>
<path d="M52.4665 260.537C51.6266 255.61 53.5304 250.459 56.722 246.595C59.9137 242.732 64.2252 239.932 68.7047 237.692C69.0967 241.556 72.3443 244.355 74.8641 247.267C77.7198 250.683 79.7916 254.882 79.9035 259.306C79.9595 261.825 79.3436 264.401 78.0557 266.641C76.7679 268.88 74.6961 270.056 72.7923 271.68C71.7844 272.52 71.0005 273.64 69.8246 274.2C68.0888 274.984 66.073 274.144 64.5052 273.08C63.2173 272.184 62.0974 271.008 60.7536 270.224C59.4657 269.496 58.1219 269.048 56.946 268.097C54.5942 266.249 52.9704 263.505 52.4665 260.537Z" fill="#C1D8E3"/>
<path d="M38.6919 279.183C39.1399 275.264 40.5397 271.456 41.3796 267.593C42.2195 263.561 42.4435 259.474 42.1076 255.386C46.6431 260.705 54.8742 260.705 60.6976 264.513C64.1132 266.753 66.5769 270.224 67.8648 274.088C69.3207 278.399 69.4326 282.823 67.6408 287.022C67.5848 287.19 67.4729 287.414 67.4169 287.582C66.8569 288.814 66.353 290.046 65.793 291.278C65.5131 291.894 65.1771 292.566 64.5612 292.734C64.2812 292.846 63.9452 292.79 63.6653 292.79C61.5375 292.734 59.5217 293.685 57.5059 294.021C55.6581 294.357 53.5303 294.357 51.6265 294.301C47.9309 294.189 44.0114 293.238 41.4916 290.382C38.8039 287.47 38.188 283.159 38.6919 279.183Z" fill="#C4BCD1"/>
<path d="M82.4793 265.577C75.984 275.544 74.4721 287.918 73.8562 299.789" stroke="#5F5A70" stroke-width="2" stroke-miterlimit="10"/>
<path d="M68.9847 251.858C69.0407 268.544 66.7449 288.198 69.4886 299.789" stroke="#5F5A70" stroke-width="2" stroke-miterlimit="10"/>
<path d="M48.4908 268.265C57.2259 276.776 63.3853 287.918 66.017 299.789" stroke="#5F5A70" stroke-width="2" stroke-miterlimit="10"/>
<path d="M4.31152 340.384H524.44" stroke="#5F5A70" stroke-width="2" stroke-miterlimit="10" stroke-linecap="round"/>
<path d="M80.3515 136.4L326.893 137.8C330.477 137.8 333.892 140.712 334.508 144.351L364.969 330.865H104.261L73.8002 144.463C73.4082 142.223 74.4721 139.928 76.4319 138.752L80.3515 136.4Z" fill="url(#paint0_linear_762_3536)"/>
<path d="M80.3515 136.4L326.893 137.8C330.477 137.8 333.892 140.712 334.508 144.351L364.969 330.865H104.261L73.8002 144.463C73.4082 142.223 74.4721 139.928 76.4319 138.752L80.3515 136.4Z" stroke="#5F5A70" stroke-width="2" stroke-miterlimit="10"/>
<path d="M107.621 329.017H368.329L337.868 142.503C337.252 138.92 333.892 135.952 330.253 135.952H82.6472C79.0636 135.952 76.5999 138.864 77.1598 142.503L107.621 329.017Z" fill="#C4BCD1"/>
<path d="M368.329 329.017L337.868 142.503C337.252 138.92 333.892 135.952 330.253 135.952H82.6472C79.0636 135.952 76.5999 138.864 77.1598 142.503L105.213 314.123" stroke="#5F5A70" stroke-width="2" stroke-miterlimit="10" stroke-linecap="round"/>
<path d="M356.066 318.491L327.957 146.535H88.3586L116.468 318.491H356.066Z" fill="#F3F2F6"/>
<path d="M112.548 340.384H469.174C474.997 340.384 479.701 335.681 479.701 329.857C479.701 324.034 474.997 319.331 469.174 319.331H112.548C106.725 319.331 102.021 324.034 102.021 329.857C102.021 335.681 106.725 340.384 112.548 340.384Z" fill="white"/>
<path d="M112.548 333.049H469.174C473.709 333.049 477.517 330.193 478.973 326.218C479.421 327.394 479.701 328.626 479.701 329.913C479.701 335.737 474.997 340.44 469.174 340.44H112.548C106.725 340.44 102.021 335.737 102.021 329.913C102.021 328.626 102.301 327.394 102.749 326.218C104.205 330.193 108.068 333.049 112.548 333.049Z" fill="#FBFAFC"/>
<path d="M368.217 326.162H391.958C396.606 326.162 400.805 323.53 402.821 319.331H357.298C359.37 323.53 363.569 326.162 368.217 326.162Z" fill="#F3F2F6"/>
<path d="M112.548 340.384H469.174C474.997 340.384 479.701 335.681 479.701 329.857C479.701 324.034 474.997 319.331 469.174 319.331H112.548C106.725 319.331 102.021 324.034 102.021 329.857C102.021 335.681 106.725 340.384 112.548 340.384Z" stroke="#5F5A70" stroke-width="2" stroke-miterlimit="10"/>
<path d="M112.548 340.384H298.448C304.272 340.384 308.975 335.681 308.975 329.857C308.975 324.034 304.272 319.331 298.448 319.331H112.548C106.725 319.331 102.021 324.034 102.021 329.857C102.021 335.681 106.725 340.384 112.548 340.384Z" fill="white"/>
<path d="M112.548 340.384H298.448C304.272 340.384 308.975 335.681 308.975 329.857C308.975 324.034 304.272 319.331 298.448 319.331H112.548C106.725 319.331 102.021 324.034 102.021 329.857C102.021 335.681 106.725 340.384 112.548 340.384Z" stroke="#5F5A70" stroke-width="2" stroke-miterlimit="10"/>
<path d="M120.723 332.251H137.073V327.492H120.723V332.251Z" fill="#5F5A70"/>
<path d="M140.25 332.251H156.6V327.492H140.25V332.251Z" fill="#5F5A70"/>
<path d="M203.258 249.955C203.258 252.866 200.907 255.218 197.995 255.218C195.083 255.218 192.731 252.866 192.731 249.955C192.731 247.043 195.083 244.691 197.995 244.691C200.907 244.691 203.258 247.043 203.258 249.955Z" fill="white"/>
<path d="M354.218 255.498C359.073 255.498 363.009 251.562 363.009 246.707C363.009 241.852 359.073 237.916 354.218 237.916C349.363 237.916 345.427 241.852 345.427 246.707C345.427 251.562 349.363 255.498 354.218 255.498Z" fill="white"/>
<path d="M203.258 249.955C203.258 252.866 200.907 255.218 197.995 255.218C195.083 255.218 192.731 252.866 192.731 249.955C192.731 247.043 195.083 244.691 197.995 244.691C200.907 244.691 203.258 247.043 203.258 249.955Z" stroke="#5F5A70" stroke-width="2" stroke-miterlimit="10" stroke-linecap="round"/>
<path d="M311.383 267.425C311.383 269.608 309.647 271.344 307.463 271.344C305.28 271.344 303.544 269.608 303.544 267.425C303.544 265.241 305.28 263.505 307.463 263.505C309.647 263.505 311.383 265.241 311.383 267.425Z" fill="white"/>
<path d="M311.383 267.425C311.383 269.608 309.647 271.344 307.463 271.344C305.28 271.344 303.544 269.608 303.544 267.425C303.544 265.241 305.28 263.505 307.463 263.505C309.647 263.505 311.383 265.241 311.383 267.425Z" stroke="#5F5A70" stroke-width="2" stroke-miterlimit="10" stroke-linecap="round"/>
<path d="M117.42 246.819C117.42 248.555 116.02 249.955 114.284 249.955C112.548 249.955 111.148 248.555 111.148 246.819C111.148 245.083 112.548 243.683 114.284 243.683C116.02 243.683 117.42 245.083 117.42 246.819Z" fill="white"/>
<path d="M117.42 246.819C117.42 248.555 116.02 249.955 114.284 249.955C112.548 249.955 111.148 248.555 111.148 246.819C111.148 245.083 112.548 243.683 114.284 243.683C116.02 243.683 117.42 245.083 117.42 246.819Z" stroke="#5F5A70" stroke-width="2" stroke-miterlimit="10" stroke-linecap="round"/>
<path d="M171.062 215.687C171.062 217.422 169.662 218.822 167.926 218.822C166.19 218.822 164.791 217.422 164.791 215.687C164.791 213.951 166.19 212.551 167.926 212.551C169.662 212.551 171.062 213.951 171.062 215.687Z" fill="white"/>
<path d="M171.062 215.687C171.062 217.422 169.662 218.822 167.926 218.822C166.19 218.822 164.791 217.422 164.791 215.687C164.791 213.951 166.19 212.551 167.926 212.551C169.662 212.551 171.062 213.951 171.062 215.687Z" stroke="#5F5A70" stroke-width="2" stroke-miterlimit="10" stroke-linecap="round"/>
<path d="M392.91 270C392.91 272.464 390.894 274.48 388.431 274.48C385.967 274.48 383.951 272.464 383.951 270C383.951 267.537 385.967 265.521 388.431 265.521C390.894 265.521 392.91 267.537 392.91 270Z" fill="white"/>
<path d="M392.91 270C392.91 272.464 390.894 274.48 388.431 274.48C385.967 274.48 383.951 272.464 383.951 270C383.951 267.537 385.967 265.521 388.431 265.521C390.894 265.521 392.91 267.537 392.91 270Z" stroke="#5F5A70" stroke-width="2" stroke-miterlimit="10" stroke-linecap="round"/>
<path d="M354.218 255.498C359.073 255.498 363.009 251.562 363.009 246.707C363.009 241.852 359.073 237.916 354.218 237.916C349.363 237.916 345.427 241.852 345.427 246.707C345.427 251.562 349.363 255.498 354.218 255.498Z" stroke="#5F5A70" stroke-width="2" stroke-miterlimit="10" stroke-linecap="round"/>
<path d="M130.074 265.745C134.929 265.745 138.865 261.809 138.865 256.954C138.865 252.099 134.929 248.163 130.074 248.163C125.219 248.163 121.283 252.099 121.283 256.954C121.283 261.809 125.219 265.745 130.074 265.745Z" fill="white"/>
<path d="M130.074 265.745C134.929 265.745 138.865 261.809 138.865 256.954C138.865 252.099 134.929 248.163 130.074 248.163C125.219 248.163 121.283 252.099 121.283 256.954C121.283 261.809 125.219 265.745 130.074 265.745Z" stroke="#5F5A70" stroke-width="2" stroke-miterlimit="10" stroke-linecap="round"/>
<path d="M246.374 296.149C246.374 295.981 246.43 295.757 246.43 295.589C246.43 290.606 242.398 286.574 237.415 286.574C232.935 286.574 229.184 289.878 228.512 294.133C228.344 294.133 228.176 294.133 228.064 294.133C228.288 293.182 228.456 292.174 228.456 291.166C228.456 284.335 222.912 278.735 216.025 278.735C213.617 278.735 211.377 279.407 209.474 280.583C208.074 268.208 197.547 258.634 184.836 258.634C184.388 258.634 183.94 258.634 183.548 258.69C184.388 257.01 184.836 255.05 184.836 253.034C184.836 245.923 179.069 240.156 171.958 240.156C164.846 240.156 159.079 245.923 159.079 253.034C159.079 254.546 159.359 256.002 159.863 257.346C158.631 257.066 157.399 256.898 156.055 256.898C149.448 256.898 143.793 260.929 141.385 266.641C140.993 266.641 140.545 266.585 140.153 266.585C129.122 266.585 120.163 275.544 120.163 286.574C120.163 291.614 122.067 296.261 125.147 299.789C120.331 304.604 117.364 311.211 117.364 318.547H134.274C134.274 318.603 134.274 318.715 134.274 318.771H166.75H175.149H203.258H215.913H239.766H252.421H276.275H288.929H312.783H325.437H339.1H362.001H388.319C388.319 309.532 383.223 301.525 375.72 297.269C377.904 293.574 379.136 289.206 379.136 284.615C379.136 270.784 367.937 259.585 354.106 259.585C350.467 259.585 346.995 260.369 343.915 261.769C342.236 257.29 337.924 254.154 332.885 254.154C326.333 254.154 321.07 259.473 321.07 265.969C321.07 268.6 321.966 271.064 323.422 273.024C317.486 273.92 312.783 278.623 311.887 284.559C310.151 282.879 307.799 281.871 305.223 281.871C299.96 281.871 295.704 286.126 295.704 291.39C295.704 292.51 295.928 293.629 296.264 294.637C294.529 294.973 292.905 295.477 291.337 296.149C290.329 291.95 286.577 288.87 282.098 288.87C277.73 288.87 274.091 291.782 272.915 295.757C270.563 294.861 267.987 294.357 265.356 294.245C265.356 288.982 261.1 284.727 255.837 284.727C250.573 284.727 246.318 288.982 246.318 294.245" fill="white"/>
<path d="M388.431 318.77C388.431 309.532 383.335 301.525 375.832 297.269C378.016 293.573 379.248 289.206 379.248 284.614C379.248 270.784 368.049 259.585 354.218 259.585C350.579 259.585 347.107 260.369 344.027 261.769C342.348 257.29 338.036 254.154 332.997 254.154C326.445 254.154 321.182 259.473 321.182 265.969C321.182 268.6 322.078 271.064 323.534 273.024C317.598 273.92 312.895 278.623 311.999 284.558C310.263 282.879 307.911 281.871 305.335 281.871" stroke="#5F5A70" stroke-width="2" stroke-miterlimit="10" stroke-linecap="round"/>
<path d="M237.359 286.574C232.879 286.574 229.128 289.878 228.456 294.133C228.288 294.133 228.12 294.133 228.008 294.133C228.232 293.182 228.4 292.174 228.4 291.166C228.4 284.335 222.856 278.735 215.969 278.735C213.561 278.735 211.321 279.407 209.418 280.583C208.018 268.208 197.491 258.634 184.78 258.634C184.332 258.634 183.884 258.634 183.492 258.69C184.332 257.01 184.78 255.05 184.78 253.034C184.78 245.923 179.013 240.156 171.902 240.156C164.79 240.156 159.023 245.923 159.023 253.034C159.023 254.546 159.303 256.002 159.807 257.346C158.575 257.066 157.343 256.898 155.999 256.898C149.392 256.898 143.737 260.929 141.329 266.641C140.937 266.641 140.489 266.585 140.097 266.585C129.066 266.585 120.107 275.544 120.107 286.574C120.107 291.614 122.011 296.261 125.091 299.789C120.275 304.604 117.307 311.211 117.307 318.547" stroke="#5F5A70" stroke-width="2" stroke-miterlimit="10" stroke-linecap="round"/>
<path d="M312.279 290.438C311.943 289.206 311.775 287.974 311.775 286.63C311.775 283.383 312.895 280.415 314.742 278.063" stroke="#5F5A70" stroke-width="2" stroke-miterlimit="10" stroke-linecap="round"/>
<path d="M232.767 310.54C232.767 305.5 236.855 301.413 241.894 301.413" stroke="#5F5A70" stroke-width="2" stroke-miterlimit="10" stroke-linecap="round"/>
<path d="M338.988 264.737C343.187 261.489 348.507 259.585 354.218 259.585" stroke="#5F5A70" stroke-width="2" stroke-miterlimit="10" stroke-linecap="round"/>
<path d="M335.012 268.544C335.572 267.873 336.188 267.201 336.86 266.585" stroke="#5F5A70" stroke-width="2" stroke-miterlimit="10" stroke-linecap="round"/>
<path d="M331.765 273.528C332.325 272.408 332.941 271.344 333.668 270.336" stroke="#5F5A70" stroke-width="2" stroke-miterlimit="10" stroke-linecap="round"/>
<path d="M203.874 290.998C203.874 289.43 204.154 287.974 204.658 286.574C205.666 283.887 207.57 281.647 210.034 280.247" stroke="#5F5A70" stroke-width="2" stroke-miterlimit="10" stroke-linecap="round"/>
<path d="M130.074 303.708C128.562 302.812 127.163 301.748 125.931 300.517C123.355 297.941 121.451 294.581 120.611 290.886" stroke="#5F5A70" stroke-width="2" stroke-miterlimit="10" stroke-linecap="round"/>
<path d="M140.097 306.396C138.025 306.396 136.066 306.116 134.218 305.5" stroke="#5F5A70" stroke-width="2" stroke-miterlimit="10" stroke-linecap="round"/>
<path d="M363.793 294.189C369.337 294.189 374.432 296.037 378.52 299.061" stroke="#5F5A70" stroke-width="2" stroke-miterlimit="10" stroke-linecap="round"/>
<path d="M140.097 272.8C140.097 264.009 147.208 256.898 155.999 256.898" stroke="#5F5A70" stroke-width="2" stroke-miterlimit="10" stroke-linecap="round"/>
<path d="M184.78 253.146C184.78 256.674 183.38 259.865 181.085 262.217" stroke="#5F5A70" stroke-width="2" stroke-miterlimit="10" stroke-linecap="round"/>
<path d="M159.863 307.348C161.431 300.628 167.478 295.645 174.645 295.645C180.973 295.645 186.404 299.509 188.7 304.996C189.54 304.772 190.436 304.66 191.332 304.66C195.979 304.66 199.899 307.628 201.355 311.715H216.809" stroke="#5F5A70" stroke-width="2" stroke-miterlimit="10" stroke-linecap="round"/>
<path d="M344.755 310.203C342.851 302.252 335.74 296.373 327.229 296.373C319.726 296.373 313.343 300.965 310.599 307.46L300.24 307.404" stroke="#5F5A70" stroke-width="2" stroke-miterlimit="10" stroke-linecap="round"/>
<path d="M175.485 281.255C174.533 278.567 171.958 276.663 168.934 276.663C168.318 276.663 167.758 276.719 167.254 276.887C165.742 273.304 162.215 270.784 158.127 270.784C153.424 270.784 149.56 274.032 148.496 278.399" stroke="#5F5A70" stroke-width="2" stroke-miterlimit="10" stroke-linecap="round"/>
<path d="M340.724 282.207C341.676 279.519 344.251 277.615 347.275 277.615C347.891 277.615 348.451 277.671 348.955 277.839C350.467 274.256 353.994 271.736 358.082 271.736C362.729 271.736 366.649 274.984 367.713 279.351" stroke="#5F5A70" stroke-width="2" stroke-miterlimit="10" stroke-linecap="round"/>
<path d="M305.28 289.15L292.289 299.061L259.812 307.908L237.359 288.366L248.334 286.742C252.701 286.854 256.229 283.327 256.229 279.015L256.397 196.369H279.074L278.738 280.807C278.738 285.006 281.874 288.478 286.018 288.926L305.28 289.15Z" fill="white"/>
<path d="M278.626 196.425V280.303C278.626 285.174 282.546 289.094 287.417 289.15H294.529" stroke="#5F5A70" stroke-width="2" stroke-miterlimit="10" stroke-linecap="round"/>
<path d="M240.326 286.91H248.334C252.757 286.91 256.341 283.327 256.341 278.903V196.425" stroke="#5F5A70" stroke-width="2" stroke-miterlimit="10" stroke-linecap="round"/>
<path d="M289.601 304.38C288.761 305.388 287.753 306.228 286.578 306.844" stroke="#5F5A70" stroke-width="2" stroke-miterlimit="10" stroke-linecap="round"/>
<path d="M291.001 294.861C291.449 295.981 291.673 297.157 291.673 298.445C291.673 300.013 291.281 301.469 290.665 302.756" stroke="#5F5A70" stroke-width="2" stroke-miterlimit="10" stroke-linecap="round"/>
<path d="M296.096 290.27C296.208 289.094 296.6 287.918 297.16 286.798C297.888 285.454 298.896 284.335 300.072 283.495" stroke="#5F5A70" stroke-width="2" stroke-miterlimit="10" stroke-linecap="round"/>
<path d="M232.991 179.291V190.714C232.991 191.61 236.183 192.281 240.046 192.281C243.966 192.281 247.102 191.554 247.102 190.714V179.291H232.991Z" fill="#5F5A70"/>
<path d="M249.173 183.266H230.975V108.515C230.975 100.844 233.663 93.3969 238.535 87.5176C239.318 86.5657 240.83 86.5657 241.614 87.5176C246.486 93.4529 249.173 100.844 249.173 108.515V183.266Z" fill="#C4BCD1"/>
<path d="M241.614 87.4617C241.278 87.0698 240.774 86.8458 240.326 86.7898C244.694 92.5571 244.638 101.236 244.638 108.515V183.266H249.229V108.515C249.173 100.844 246.486 93.397 241.614 87.4617Z" fill="#5F5A70"/>
<path d="M241.894 87.8537C241.782 87.7417 241.67 87.5737 241.614 87.4617C240.83 86.5098 239.318 86.5098 238.535 87.4617C233.663 93.397 230.975 100.788 230.975 108.459V183.21H234.671V108.515C234.615 101.012 237.191 93.733 241.894 87.8537Z" fill="#9F9CA9"/>
<path d="M252.981 149.782V173.3C252.981 175.092 259.532 176.547 267.595 176.547C275.659 176.547 282.21 175.092 282.21 173.3V149.782H252.981Z" fill="#5F5A70"/>
<path d="M286.353 157.957H248.837V70.2157C248.837 54.3696 254.325 39.0834 264.459 26.8768C266.083 24.861 269.163 24.861 270.787 26.8768C280.866 39.0834 286.409 54.4256 286.409 70.2157V157.957H286.353Z" fill="#C4BCD1"/>
<path d="M270.731 26.8767C270.003 26.0368 269.051 25.5329 268.043 25.4209C277.114 37.2915 276.89 55.2654 276.89 70.2156V157.957H286.353V70.2156C286.353 54.4255 280.81 39.0833 270.731 26.8767Z" fill="#5F5A70"/>
<path d="M271.347 27.6607C271.123 27.3808 270.955 27.1568 270.731 26.8768C269.107 24.861 266.028 24.861 264.404 26.8768C254.325 39.0834 248.781 54.4256 248.781 70.2157V157.957H256.341V70.2157C256.397 54.7615 261.66 39.6993 271.347 27.6607Z" fill="#9F9CA9"/>
<path d="M279.242 176.155V187.578C279.242 188.474 282.434 189.146 286.297 189.146C290.217 189.146 293.353 188.418 293.353 187.578V176.155H279.242Z" fill="#5F5A70"/>
<path d="M295.424 180.131H277.226V105.324C277.226 97.6524 279.914 90.2053 284.786 84.326C285.57 83.3741 287.081 83.3741 287.865 84.326C292.737 90.2613 295.424 97.6524 295.424 105.324V180.131Z" fill="#C4BCD1"/>
<path d="M287.865 84.326C287.529 83.934 287.025 83.71 286.577 83.6541C290.945 89.4214 290.889 98.1004 290.889 105.38V180.131H295.48V105.324C295.424 97.6524 292.737 90.2053 287.865 84.326Z" fill="#5F5A70"/>
<path d="M288.145 84.662C288.033 84.55 287.921 84.3821 287.865 84.2701C287.081 83.3182 285.57 83.3182 284.786 84.2701C279.914 90.2054 277.226 97.5965 277.226 105.268V180.019H280.922V105.324C280.922 97.8205 283.498 90.5413 288.145 84.662Z" fill="#9F9CA9"/>
<path d="M253.485 180.131V192.281C253.485 193.457 259.924 194.409 267.875 194.409C275.827 194.409 282.266 193.457 282.266 192.281V180.131H253.485Z" fill="#5F5A70"/>
<path d="M306.903 173.244H279.634V113.891L289.713 127.497C292.625 131.417 295.984 134.888 299.512 138.304C304.216 142.839 306.903 149.11 306.903 155.83V173.244Z" fill="#70BB18"/>
<path d="M289.377 188.362H248.837V83.0383C248.837 73.9674 253.037 65.4004 260.204 59.857L263.564 57.2813C265.916 55.4336 269.219 55.4336 271.627 57.2813L275.267 60.081C282.266 65.4564 286.353 73.7994 286.353 82.6464V121.618L289.433 140.432V188.362H289.377Z" fill="white"/>
<path opacity="0.31" d="M268.435 59.913L271.683 57.3932L271.571 57.3373C269.219 55.4895 265.916 55.4895 263.508 57.3373L260.148 59.913C252.981 65.4563 248.781 74.0233 248.781 83.0942V188.418H263.284L263.172 113.947L257.013 83.0942C257.013 74.0233 261.212 65.4563 268.435 59.913Z" fill="#C1D8E3"/>
<path d="M229.631 173.244H256.901V113.891L246.822 127.497C243.91 131.417 240.55 134.888 237.023 138.304C232.319 142.839 229.631 149.11 229.631 155.83V173.244Z" fill="#70BB18"/>
<path d="M273.475 187.634H292.177V185.114C292.177 181.867 290.553 178.955 288.089 177.723L273.419 170.444V187.634H273.475Z" fill="#70BB18"/>
<path d="M286.297 85.558C284.786 84.3261 283.05 83.5422 281.146 83.5422C275.939 83.5422 271.683 88.9736 271.683 95.6368V99.6683C271.683 100.62 272.299 101.404 273.027 101.404C273.755 101.404 274.371 100.62 274.371 99.6683V95.6368C274.371 90.8774 277.394 87.0138 281.146 87.0138C283.218 87.0138 285.066 88.2457 286.297 90.1495V85.558Z" fill="#5F5A70"/>
<path opacity="0.3" d="M206.674 166.58C205.89 162.885 202.642 160.197 198.835 160.197H79.3435L85.2229 192.113H202.978C207.682 192.113 211.153 187.802 210.202 183.21L206.674 166.58Z" fill="#002280"/>
<path d="M199.507 185.17H7.72712C5.93531 185.17 4.47946 183.994 4.19949 182.258L0.111928 158.405C-0.336024 155.83 1.90374 153.254 4.59145 153.254H196.427C198.219 153.254 199.675 154.43 199.955 156.166L204.042 180.019C204.434 182.594 202.194 185.17 199.507 185.17Z" fill="#5F5A70"/>
<path d="M35.5561 181.978H10.3588C8.90295 181.978 7.72708 181.027 7.44711 179.571L4.08746 160.085C3.69551 157.957 5.54331 155.885 7.72708 155.885H32.9244C34.3802 155.885 35.5561 156.837 35.8361 158.293L39.1957 177.779C39.5877 179.851 37.7959 181.978 35.5561 181.978Z" fill="white"/>
<path d="M112.492 164.509H44.9632C44.7392 164.509 44.5712 164.397 44.5152 164.173L43.7313 161.429C43.6193 161.149 43.8433 160.813 44.1792 160.813H111.708C111.932 160.813 112.1 160.925 112.156 161.149L112.94 163.893C112.996 164.229 112.772 164.509 112.492 164.509Z" fill="#D0CADA"/>
<path d="M76.0958 173.132H47.3709C47.1469 173.132 46.9789 173.02 46.9229 172.796L46.139 170.052C46.027 169.772 46.251 169.436 46.5869 169.436H75.3119C75.5359 169.436 75.7038 169.548 75.7598 169.772L76.5437 172.516C76.6557 172.796 76.4318 173.132 76.0958 173.132Z" fill="white"/>
<path d="M191.836 173.132H82.3672C82.1432 173.132 81.9752 173.02 81.9193 172.796L81.1353 170.052C81.0233 169.772 81.2473 169.436 81.5833 169.436H191.052C191.276 169.436 191.444 169.548 191.5 169.772L192.283 172.516C192.395 172.796 192.116 173.132 191.836 173.132Z" fill="white"/>
<path d="M18.31 174.475L14.6704 169.716L18.0301 166.972L19.5979 169.044L26.6531 163.389L28.7249 166.076L18.31 174.475Z" fill="#5F5A70"/>
<path opacity="0.3" d="M214.457 211.375C213.673 207.68 210.426 204.992 206.618 204.992H87.1267L93.0061 236.908H210.762C215.465 236.908 218.937 232.597 217.985 228.005L214.457 211.375Z" fill="#002280"/>
<path d="M207.29 229.965H15.4544C13.6626 229.965 12.2068 228.789 11.9268 227.053L7.83922 203.2C7.39127 200.625 9.63103 198.049 12.3187 198.049H204.154C205.946 198.049 207.402 199.225 207.682 200.96L211.769 224.814C212.217 227.389 209.978 229.965 207.29 229.965Z" fill="white"/>
<path d="M43.3394 226.773H18.1421C16.6863 226.773 15.5104 225.821 15.2304 224.366L11.8708 204.88C11.4788 202.752 13.3266 200.68 15.5104 200.68H40.7077C42.1636 200.68 43.3394 201.632 43.6194 203.088L46.979 222.574C47.371 224.646 45.5792 226.773 43.3394 226.773Z" fill="#C4BCD1"/>
<path d="M120.219 209.303H52.6904C52.4665 209.303 52.2985 209.191 52.2425 208.968L51.4586 206.224C51.3466 205.944 51.5706 205.608 51.9065 205.608H119.435C119.659 205.608 119.827 205.72 119.883 205.944L120.667 208.688C120.779 209.024 120.555 209.303 120.219 209.303Z" fill="#8DC946"/>
<path d="M83.8791 217.927H55.1542C54.9302 217.927 54.7622 217.815 54.7062 217.591L53.9223 214.847C53.8103 214.567 54.0343 214.231 54.3703 214.231H83.0952C83.3192 214.231 83.4872 214.343 83.5432 214.567L84.3271 217.311C84.4391 217.591 84.2151 217.927 83.8791 217.927Z" fill="#C4BCD1"/>
<path d="M199.619 217.927H90.1504C89.9264 217.927 89.7584 217.815 89.7024 217.591L88.9185 214.847C88.8065 214.567 89.0305 214.231 89.3665 214.231H198.779C199.003 214.231 199.171 214.343 199.227 214.567L200.011 217.311C200.123 217.591 199.899 217.927 199.619 217.927Z" fill="#C4BCD1"/>
<path d="M26.0372 219.27L22.4536 214.511L25.8133 211.767L27.3811 213.839L34.3803 208.184L36.4521 210.871L26.0372 219.27Z" fill="white"/>
<path d="M74.5281 79.0067C75.648 86.9018 82.9832 93.341 90.9343 93.341C98.8295 93.341 104.373 86.9018 103.197 79.0067C102.077 71.1116 94.7419 64.6724 86.7908 64.6724C78.8956 64.6724 73.4082 71.1116 74.5281 79.0067Z" fill="#C4BCD1"/>
<path d="M89.1425 87.2936L88.9185 85.8378C87.1827 85.5578 85.5029 84.7739 83.8791 83.5421L85.4469 81.2463C86.6228 82.1422 87.6867 82.7582 88.5266 82.9821L88.0786 79.9585C86.6228 79.6225 85.5029 79.1186 84.775 78.5027C84.047 77.8867 83.5431 76.9908 83.3751 75.871C83.2071 74.6951 83.4311 73.7992 84.103 73.0153C84.719 72.2874 85.6709 71.8394 86.8467 71.6715L86.6788 70.6636H88.8065L88.9745 71.6715C90.3184 71.8394 91.7742 72.3994 93.2301 73.3513L91.9422 75.703C90.9903 75.0871 90.1504 74.6951 89.4225 74.4711L89.8704 77.3828C91.3823 77.7747 92.5021 78.2787 93.2861 78.8946C94.07 79.5105 94.5739 80.4064 94.7419 81.5823C94.9099 82.7582 94.6859 83.71 94.014 84.438C93.342 85.1659 92.3902 85.6138 91.1023 85.7818L91.3263 87.1816H89.1425V87.2936ZM87.2947 74.4711C86.7348 74.6951 86.5108 75.0311 86.5668 75.591C86.6228 76.1509 87.0147 76.5429 87.6307 76.8229L87.2947 74.4711ZM91.4942 81.8063C91.4383 81.5263 91.3263 81.3023 91.1583 81.0784C90.9903 80.9104 90.7103 80.7424 90.2624 80.5744L90.5983 83.0381C91.3263 82.8701 91.6062 82.4782 91.4942 81.8063Z" fill="white"/>
<path d="M125.147 107.283C124.867 105.268 122.963 103.588 120.947 103.588C118.931 103.588 117.531 105.212 117.811 107.283C118.091 109.299 119.995 110.979 122.011 110.979C124.027 110.923 125.427 109.299 125.147 107.283Z" fill="#C4BCD1"/>
<path d="M124.195 33.5401C123.971 32.0282 122.571 30.7964 121.059 30.7964C119.547 30.7964 118.483 32.0282 118.707 33.5401C118.931 35.0519 120.331 36.2837 121.843 36.2837C123.355 36.2837 124.419 35.0519 124.195 33.5401Z" fill="#C4BCD1"/>
<path d="M406.517 72.7354C406.237 70.7196 404.333 69.0398 402.317 69.0398C400.301 69.0398 398.901 70.6636 399.181 72.7354C399.461 74.7511 401.365 76.4309 403.381 76.4309C405.397 76.4309 406.797 74.8071 406.517 72.7354Z" fill="#C4BCD1"/>
<path d="M314.63 114.675C314.406 113.107 312.951 111.819 311.383 111.819C309.815 111.819 308.695 113.107 308.919 114.675C309.143 116.242 310.599 117.53 312.167 117.53C313.735 117.53 314.854 116.242 314.63 114.675Z" fill="#5F5A70"/>
<path d="M314.238 21.1655C314.014 19.5977 312.559 18.3098 310.991 18.3098C309.423 18.3098 308.303 19.5977 308.527 21.1655C308.751 22.7333 310.207 24.0211 311.775 24.0211C313.343 24.0211 314.462 22.7893 314.238 21.1655Z" fill="#5F5A70"/>
<path d="M215.689 91.6613C215.465 90.0935 214.009 88.8057 212.441 88.8057C210.874 88.8057 209.754 90.0935 209.978 91.6613C210.202 93.2291 211.657 94.517 213.225 94.517C214.793 94.517 215.913 93.2851 215.689 91.6613Z" fill="#5F5A70"/>
<path d="M353.378 107.899C354.498 115.794 361.833 122.234 369.785 122.234C377.68 122.234 383.223 115.794 382.047 107.899C380.927 100.004 373.592 93.5649 365.641 93.5649C357.746 93.5649 352.258 99.9482 353.378 107.899Z" fill="#C4BCD1"/>
<path d="M367.993 116.186L367.769 114.73C366.033 114.45 364.353 113.666 362.729 112.435L364.297 110.139C365.473 111.035 366.537 111.651 367.377 111.875L366.929 108.851C365.473 108.515 364.353 108.011 363.625 107.395C362.897 106.779 362.393 105.883 362.225 104.764C362.057 103.588 362.281 102.692 362.953 101.908C363.569 101.18 364.521 100.732 365.697 100.564L365.529 99.5562H367.657L367.825 100.564C369.169 100.732 370.624 101.292 372.08 102.244L370.792 104.596C369.841 103.98 369.001 103.588 368.273 103.364L368.721 106.275C370.233 106.667 371.352 107.171 372.136 107.787C372.92 108.403 373.424 109.299 373.592 110.475C373.76 111.651 373.536 112.603 372.864 113.331C372.192 114.058 371.24 114.506 369.953 114.674L370.177 116.074H367.993V116.186ZM366.145 103.364C365.585 103.588 365.361 103.924 365.417 104.484C365.473 105.044 365.865 105.435 366.481 105.715L366.145 103.364ZM370.401 110.699C370.345 110.419 370.233 110.195 370.065 109.971C369.897 109.803 369.617 109.635 369.169 109.467L369.505 111.931C370.177 111.763 370.457 111.315 370.401 110.699Z" fill="white"/>
<path d="M158.519 112.771C159.415 119.042 165.238 124.137 171.51 124.137C177.781 124.137 182.149 119.042 181.253 112.771C180.357 106.499 174.533 101.404 168.262 101.404C161.991 101.404 157.623 106.499 158.519 112.771Z" fill="#5F5A70"/>
<path d="M170.166 119.378L169.998 118.202C168.598 117.978 167.254 117.362 165.966 116.354L167.198 114.563C168.15 115.29 168.934 115.738 169.662 115.962L169.326 113.555C168.15 113.275 167.31 112.883 166.694 112.379C166.078 111.875 165.742 111.203 165.63 110.307C165.518 109.411 165.686 108.627 166.19 108.067C166.694 107.451 167.422 107.115 168.374 107.003L168.262 106.219H169.942L170.054 107.059C171.118 107.227 172.294 107.675 173.414 108.403L172.35 110.307C171.622 109.803 170.95 109.523 170.334 109.355L170.67 111.651C171.846 111.931 172.798 112.323 173.414 112.827C174.029 113.331 174.421 114.059 174.533 114.954C174.645 115.85 174.477 116.634 173.917 117.25C173.414 117.866 172.63 118.202 171.622 118.314L171.79 119.434H170.166V119.378ZM168.654 109.187C168.206 109.355 168.038 109.635 168.094 110.083C168.15 110.531 168.43 110.811 168.934 111.035L168.654 109.187ZM172.014 115.01C171.958 114.786 171.902 114.618 171.734 114.451C171.622 114.283 171.342 114.171 171.006 114.059L171.286 116.018C171.846 115.85 172.07 115.514 172.014 115.01Z" fill="white"/>
<path d="M311.999 55.2656C312.895 61.5369 318.718 66.6323 324.989 66.6323C331.261 66.6323 335.628 61.5369 334.732 55.2656C333.836 48.9943 328.013 43.8989 321.742 43.8989C315.414 43.8989 311.047 48.9943 311.999 55.2656Z" fill="#5F5A70"/>
<path d="M323.59 61.8169L323.422 60.641C322.022 60.4171 320.678 59.8011 319.39 58.7933L320.622 57.0015C321.574 57.7294 322.358 58.1773 323.086 58.4013L322.75 55.9936C321.574 55.7136 320.734 55.3217 320.118 54.8177C319.502 54.3138 319.166 53.6419 319.054 52.746C318.942 51.8501 319.11 51.0662 319.614 50.5062C320.118 49.8903 320.846 49.5543 321.798 49.4424L321.686 48.6584H323.366L323.478 49.4983C324.541 49.6663 325.717 50.1143 326.837 50.8422L325.773 52.746C325.045 52.242 324.373 51.9621 323.757 51.7941L324.093 54.0898C325.269 54.3698 326.221 54.7617 326.837 55.2657C327.453 55.7696 327.845 56.4975 327.957 57.3934C328.069 58.2893 327.901 59.0732 327.341 59.6892C326.837 60.3051 326.053 60.641 325.045 60.753L325.213 61.8729H323.59V61.8169ZM322.078 51.6821C321.63 51.8501 321.462 52.13 321.518 52.578C321.574 53.0259 321.854 53.3059 322.358 53.5299L322.078 51.6821ZM325.437 57.5054C325.381 57.2814 325.325 57.1135 325.157 56.9455C325.045 56.7775 324.765 56.6655 324.429 56.5535L324.709 58.5133C325.325 58.3453 325.549 58.0093 325.437 57.5054Z" fill="white"/>
<path d="M152.304 46.3625C153.872 45.2427 155.551 44.1228 157.399 43.0029" stroke="#5F5A70" stroke-width="3" stroke-miterlimit="10" stroke-linecap="round"/>
<path d="M206.898 23.5732C208.914 23.1253 210.874 22.7333 212.777 22.4534" stroke="#5F5A70" stroke-width="3" stroke-miterlimit="10" stroke-linecap="round"/>
<path d="M156.055 43.8989C158.631 62.0408 175.485 76.767 193.627 76.767C211.769 76.767 224.368 62.0408 221.792 43.8989C219.161 25.757 202.362 11.0308 184.22 11.0308C166.078 11.0308 153.48 25.757 156.055 43.8989Z" fill="#70BB18"/>
<path d="M195.699 48.5464C203.426 48.5464 207.962 43.339 206.73 35.8359C205.498 28.3328 199.227 23.3494 191.5 23.3494H176.661C176.045 23.3494 175.653 23.7973 175.765 24.4132L178.789 42.4991H174.085C173.469 42.4991 173.077 42.9471 173.189 43.563L173.861 47.5385C173.973 48.0985 174.533 48.6024 175.149 48.6024H179.853L180.301 51.4021H175.597C174.981 51.4021 174.589 51.85 174.701 52.4659L175.261 55.9935C175.373 56.5535 175.933 57.0574 176.549 57.0574H181.253L182.037 61.5929C182.149 62.1528 182.708 62.6568 183.324 62.6568H188.644C189.26 62.6568 189.652 62.2088 189.54 61.5929L188.756 57.0574H203.426C204.042 57.0574 204.434 56.6095 204.322 55.9935L203.762 52.4659C203.65 51.906 203.09 51.4021 202.474 51.4021H187.804L187.356 48.6024H195.699V48.5464ZM184.052 29.3407H191.22C195.475 29.3407 198.443 31.9164 199.115 35.8359C199.787 39.8674 197.659 42.4431 193.291 42.4431H186.236L184.052 29.3407Z" fill="white"/>
<path d="M212.833 22.3974C227.504 19.9337 238.199 21.1096 240.046 26.093C242.846 33.9321 223.024 48.2104 195.755 58.0093C168.486 67.8081 144.129 69.4319 141.329 61.5928C139.929 57.6733 144.241 52.13 152.304 46.3066" stroke="#5F5A70" stroke-width="3" stroke-miterlimit="10" stroke-linecap="round"/>
<path opacity="0.3" d="M336.02 221.734C336.524 224.702 338.988 226.718 342.068 226.774L351.866 226.886L338.708 148.831L332.829 148.607C328.237 148.607 324.373 153.03 325.157 157.454L336.02 221.734Z" fill="#002280"/>
<path d="M340.332 218.934L402.373 219.494C407.021 219.55 410.884 215.127 410.1 210.647L399.237 146.479C398.733 143.511 396.27 141.495 393.246 141.44L331.149 140.768C326.557 140.768 322.694 145.191 323.478 149.615L334.34 213.895C334.844 216.863 337.308 218.934 340.332 218.934Z" fill="white"/>
<path d="M352.37 187.354C352.706 187.914 352.706 188.586 352.37 189.034L350.075 191.834C349.459 192.562 349.683 193.737 350.523 194.465L355.898 199.001C356.738 199.729 357.914 199.729 358.53 199.001L360.826 196.201C361.217 195.753 361.889 195.641 362.505 195.921C362.897 196.089 363.289 196.257 363.681 196.369C364.353 196.593 364.857 197.153 364.969 197.825L365.697 201.744C365.865 202.752 366.873 203.592 367.881 203.592H374.32C375.328 203.592 376 202.752 375.832 201.744L375.104 197.769C374.992 197.153 375.272 196.593 375.832 196.369C376.168 196.201 376.56 196.033 376.952 195.865C377.456 195.641 378.184 195.753 378.688 196.201L381.991 199.001C382.831 199.729 384.007 199.729 384.623 199.001L388.319 194.465C388.935 193.737 388.711 192.562 387.871 191.834L384.567 189.034C384.007 188.586 383.783 187.858 383.951 187.298C384.063 186.962 384.119 186.57 384.231 186.234C384.343 185.618 384.847 185.226 385.463 185.226H389.382C390.39 185.226 391.062 184.387 390.894 183.379L389.718 176.939C389.55 175.931 388.543 175.092 387.535 175.092H383.559C382.943 175.092 382.327 174.7 381.991 174.14C381.767 173.748 381.543 173.356 381.263 172.908C380.927 172.348 380.927 171.676 381.263 171.228L383.559 168.428C384.175 167.7 383.951 166.525 383.111 165.797L377.736 161.261C376.896 160.533 375.72 160.533 375.104 161.261L372.808 164.061C372.416 164.509 371.744 164.621 371.128 164.341C370.736 164.173 370.288 164.005 369.897 163.837C369.225 163.613 368.721 163.053 368.609 162.381L367.881 158.462C367.713 157.454 366.705 156.614 365.697 156.614H359.258C358.25 156.614 357.578 157.454 357.746 158.462L358.474 162.437C358.586 163.053 358.306 163.613 357.746 163.837C357.41 164.005 357.018 164.173 356.626 164.341C356.122 164.565 355.394 164.453 354.89 164.005L351.587 161.205C350.747 160.477 349.571 160.477 348.955 161.205L345.259 165.741C344.643 166.469 344.867 167.644 345.707 168.372L349.011 171.172C349.571 171.62 349.795 172.348 349.627 172.908C349.515 173.244 349.459 173.636 349.347 173.972C349.235 174.588 348.731 174.98 348.115 174.98H344.195C343.187 174.98 342.515 175.82 342.683 176.827L343.859 183.267C344.027 184.275 345.035 185.114 346.043 185.114H351.083C351.139 185.226 351.754 186.402 352.37 187.354ZM371.632 188.642C366.705 190.658 360.266 187.466 358.138 181.811C356.57 177.611 358.25 173.244 361.945 171.676C366.873 169.66 373.312 172.852 375.44 178.507C377.008 182.707 375.328 187.074 371.632 188.642Z" fill="#5F5A70"/>
<path d="M430.314 204.488L494.651 205.104C499.467 205.16 503.498 200.568 502.714 195.921L491.404 129.289C490.9 126.209 488.324 124.081 485.188 124.081L420.739 123.409C415.98 123.409 412.004 128.001 412.788 132.592L424.099 199.337C424.603 202.304 427.122 204.432 430.314 204.488Z" fill="#5F5A70"/>
<path d="M427.57 177.275H420.347L419.843 174.195L426.283 174.139L441.793 159.189L451.928 168.82L472.758 150.118L480.765 159.133L491.348 146.367H494.315L494.875 149.502H492.859L480.821 163.949L472.478 154.542L451.816 173.132L441.793 163.501L427.57 177.275Z" fill="white"/>
</g>
<defs>
<linearGradient id="paint0_linear_762_3536" x1="364.983" y1="233.605" x2="73.7481" y2="233.605" gradientUnits="userSpaceOnUse">
<stop offset="0.00380228" stop-color="#E3EDFE"/>
<stop offset="0.2686" stop-color="#F1F6FF"/>
<stop offset="0.6035" stop-color="#FCFDFF"/>
<stop offset="1" stop-color="white"/>
</linearGradient>
<clipPath id="clip0_762_3536">
<rect width="525" height="341" fill="white"/>
</clipPath>
</defs>
</svg>
