
<svg xmlns="http://www.w3.org/2000/svg" version="1.1" xmlns:xlink="http://www.w3.org/1999/xlink" preserveAspectRatio="none" x="0px" y="0px" width="24px" height="24px" viewBox="0 0 24 24">
<defs/>

<g id="cart_icon_fill_svg">
<g>
<g>
<g>
<path fill="#70BB18" fill-opacity="0.9882352941176471" stroke="none" d="
M 20.3 19.6
L 21.65 7.6 21.6 7.3 21.45 7 21.2 6.85 20.9 6.75 3.05 6.75 2.75 6.85 2.5 7 2.35 7.3 2.3 7.6 3.65 19.6
Q 3.65 19.85 3.9 20.1 4.15 20.25 4.4 20.25
L 19.55 20.25
Q 19.85 20.25 20.05 20.1 20.3 19.85 20.3 19.6 Z"/>
</g>
</g>

<g>
<path stroke="#8B8B8B" stroke-width="1.5" stroke-linejoin="round" stroke-linecap="round" fill="none" d="
M 19.55 20.25
L 4.4 20.25
Q 4.15 20.25 3.9 20.1 3.65 19.85 3.65 19.6
L 2.3 7.6 2.35 7.3 2.5 7 2.75 6.85 3.05 6.75 20.9 6.75 21.2 6.85 21.45 7 21.6 7.3 21.65 7.6 20.3 19.6
Q 20.3 19.85 20.05 20.1 19.85 20.25 19.55 20.25 Z"/>
</g>
</g>

<g>
<g>
<path stroke="#8B8B8B" stroke-width="1.5" stroke-linejoin="round" stroke-linecap="round" fill="none" d="
M 8.25 6.75
Q 8.25 5.25 9.3 4.1 10.5 3 12 3 13.45 3 14.65 4.1 15.75 5.3 15.75 6.75"/>
</g>
</g>
</g>
</svg>
