<svg width="460" height="396" viewBox="0 0 460 396" fill="none" xmlns="http://www.w3.org/2000/svg">
<path opacity="0.12" d="M258.049 395.312C362.086 395.312 446.424 385.334 446.424 373.026C446.424 360.718 362.086 350.741 258.049 350.741C154.012 350.741 69.6731 360.718 69.6731 373.026C69.6731 385.334 154.012 395.312 258.049 395.312Z" fill="#ADADAD"/>
<g opacity="0.1">
<path opacity="0.4" d="M231.136 19.786C236.886 18.1992 218.093 12.5962 213.816 13.1158H213.535C213.077 13.1802 212.636 13.3391 212.242 13.5824C211.848 13.8257 211.508 14.1482 211.245 14.5295C210.981 14.9108 210.8 15.3427 210.711 15.7978C210.623 16.253 210.629 16.7216 210.731 17.174L211.754 21.8362C214.439 33.9657 214.542 46.5254 212.056 58.6973C209.571 70.8693 204.553 82.3806 197.329 92.4818C190.105 102.583 180.838 111.047 170.13 117.324C159.422 123.6 147.514 127.548 135.181 128.911C134.364 129 133.608 129.387 133.057 129.998C132.507 130.609 132.199 131.402 132.194 132.225C132.188 133.407 132.43 134.577 132.906 135.66C133.381 136.742 134.079 137.712 134.953 138.507C135.827 139.302 136.859 139.903 137.981 140.273C139.102 140.642 140.289 140.77 141.464 140.65L237.924 129.936C239.083 129.795 240.201 129.415 241.205 128.819C242.21 128.223 243.079 127.424 243.758 126.473C244.438 125.522 244.912 124.44 245.151 123.295C245.39 122.151 245.388 120.969 245.146 119.825L231.136 19.786Z" fill="white"/>
</g>
<path d="M345.843 120.624L425.278 80.8118C433.59 76.6462 436.955 66.5227 432.795 58.2005L411.527 15.6563C407.367 7.33406 397.256 3.96447 388.945 8.13013L309.51 47.9424C301.198 52.1081 297.833 62.2315 301.993 70.5538L323.261 113.098C327.421 121.42 337.531 124.79 345.843 120.624Z" fill="white"/>
<path d="M335.586 80.6913L335.153 80.9156L333.519 79.9275L333.365 81.8409L332.958 82.0513L333.168 79.7727L331.339 78.7262L331.763 78.5065L333.259 79.3924L333.407 77.6556L333.812 77.4464L333.605 79.5382L335.586 80.6913ZM338.246 79.315L337.812 79.5393L336.178 78.5512L336.024 80.4646L335.618 80.675L335.828 78.3964L333.998 77.3499L334.423 77.1302L335.919 78.0161L336.067 76.2793L336.471 76.0701L336.265 78.1619L338.246 79.315ZM340.905 77.9387L340.472 78.163L338.837 77.1749L338.684 79.0883L338.277 79.2987L338.487 77.0201L336.658 75.9736L337.082 75.7539L338.578 76.6398L338.726 74.903L339.131 74.6938L338.924 76.7856L340.905 77.9387ZM343.991 76.3415L343.196 76.753L341.791 75.9055L341.669 77.5435L340.923 77.9294L341.138 75.6711L339.297 74.6077L340.065 74.2102L341.383 75.0261L341.467 73.4848L342.217 73.0966L342.027 75.2595L343.991 76.3415ZM347.828 74.3561L347.394 74.5805L345.76 73.5923L345.606 75.5057L345.2 75.7161L345.41 73.4376L343.58 72.391L344.005 72.1713L345.501 73.0572L345.649 71.3204L346.053 71.1112L345.846 73.203L347.828 74.3561ZM350.487 72.9798L350.054 73.2042L348.419 72.216L348.266 74.1294L347.859 74.3398L348.069 72.0613L346.24 71.0147L346.664 70.795L348.16 71.6809L348.308 69.9441L348.713 69.7349L348.506 71.8267L350.487 72.9798ZM353.147 71.6035L352.713 71.8279L351.079 70.8397L350.925 72.7531L350.519 72.9635L350.728 70.685L348.899 69.6384L349.323 69.4187L350.82 70.3046L350.968 68.5678L351.372 68.3586L351.165 70.4504L353.147 71.6035ZM356.233 70.0063L355.438 70.4178L354.032 69.5703L353.91 71.2083L353.164 71.5942L353.379 69.3359L351.538 68.2726L352.306 67.875L353.624 68.691L353.708 67.1497L354.458 66.7614L354.268 68.9243L356.233 70.0063ZM360.069 68.0209L359.636 68.2453L358.001 67.2572L357.848 69.1706L357.441 69.381L357.651 67.1024L355.821 66.0558L356.246 65.8361L357.742 66.7221L357.89 64.9852L358.294 64.776L358.088 66.8678L360.069 68.0209ZM362.728 66.6446L362.295 66.869L360.661 65.8809L360.507 67.7943L360.1 68.0047L360.31 65.7261L358.481 64.6795L358.905 64.4598L360.402 65.3458L360.55 63.6089L360.954 63.3997L360.747 65.4915L362.728 66.6446ZM365.388 65.2683L364.954 65.4927L363.32 64.5045L363.166 66.418L362.76 66.6284L362.97 64.3498L361.14 63.3032L361.565 63.0835L363.061 63.9694L363.209 62.2326L363.613 62.0234L363.407 64.1152L365.388 65.2683ZM368.474 63.6712L367.679 64.0827L366.274 63.2351L366.152 64.8731L365.406 65.259L365.621 63.0008L363.779 61.9374L364.548 61.5398L365.865 62.3558L365.949 60.8145L366.699 60.4262L366.509 62.5891L368.474 63.6712ZM372.31 61.6858L371.877 61.9101L370.243 60.922L370.089 62.8354L369.682 63.0458L369.892 60.7672L368.063 59.7207L368.487 59.501L369.983 60.3869L370.131 58.6501L370.536 58.4408L370.329 60.5326L372.31 61.6858ZM374.97 60.3095L374.536 60.5338L372.902 59.5457L372.748 61.4591L372.342 61.6695L372.552 59.3909L370.722 58.3444L371.147 58.1247L372.643 59.0106L372.791 57.2738L373.195 57.0645L372.988 59.1563L374.97 60.3095ZM378.056 58.7123L377.261 59.1238L375.856 58.2762L375.733 59.9142L374.988 60.3002L375.202 58.0419L373.361 56.9785L374.13 56.581L375.447 57.3969L375.531 55.8556L376.281 55.4674L376.091 57.6302L378.056 58.7123Z" fill="#212121"/>
<path d="M406.746 62.95L407.155 65.1773L406.94 65.3027L405.209 63.8452L405.433 63.7147L406.568 64.6775C406.614 64.716 406.657 64.7536 406.696 64.7903C406.736 64.8265 406.774 64.862 406.808 64.8968C406.843 64.9316 406.876 64.9659 406.907 64.9997C406.893 64.9561 406.879 64.9106 406.866 64.8631C406.853 64.8147 406.84 64.7641 406.829 64.7113C406.817 64.6576 406.805 64.6009 406.794 64.541L406.52 63.082L406.746 62.95ZM409.176 64.0006L408.788 63.6398L408.117 64.0306L408.238 64.5468L407.817 64.7917L407.393 62.5634L407.87 62.2856L409.597 63.7558L409.176 64.0006ZM408.505 63.3664L408.122 63.0157C408.097 62.992 408.065 62.962 408.025 62.9258C407.985 62.8883 407.944 62.8506 407.903 62.8127C407.863 62.7734 407.828 62.739 407.8 62.7095C407.811 62.7488 407.824 62.7985 407.839 62.8585C407.854 62.9173 407.868 62.9732 407.881 63.0264C407.894 63.0796 407.903 63.1176 407.908 63.1403L408.025 63.6457L408.505 63.3664ZM409.83 63.6201L408.76 61.7778L409.15 61.5505L410.033 63.0703L410.78 62.6355L410.967 62.9581L409.83 63.6201ZM411.288 62.7712L410.218 60.9288L410.609 60.7015L411.678 62.5439L411.288 62.7712ZM413.124 60.446C413.245 60.6535 413.306 60.8502 413.307 61.0361C413.309 61.2207 413.255 61.392 413.145 61.55C413.036 61.7072 412.875 61.8474 412.663 61.9706L412.142 62.2741L411.072 60.4317L411.65 60.0952C411.843 59.9828 412.031 59.9197 412.213 59.906C412.394 59.8915 412.563 59.9287 412.719 60.0177C412.875 60.1058 413.01 60.2486 413.124 60.446ZM412.725 60.6921C412.646 60.556 412.561 60.456 412.47 60.3921C412.379 60.3269 412.282 60.296 412.18 60.2994C412.078 60.3024 411.97 60.3371 411.856 60.4036L411.648 60.5245L412.345 61.7242L412.512 61.6267C412.703 61.5158 412.815 61.3826 412.848 61.2272C412.883 61.0713 412.841 60.8929 412.725 60.6921Z" fill="#212121"/>
<path d="M405.095 73.1981L404.69 73.4339L403.075 72.564L403.019 74.4065L402.639 74.6277L402.732 72.4322L400.928 71.5155L401.324 71.2846L402.801 72.0631L402.861 70.3902L403.239 70.1702L403.14 72.1864L405.095 73.1981ZM407.979 71.5192L407.236 71.9518L405.848 71.2057L405.809 72.7826L405.112 73.1883L405.21 71.0121L403.394 70.0798L404.112 69.6619L405.414 70.3818L405.421 68.8995L406.122 68.4913L406.043 70.5749L407.979 71.5192ZM407.59 70.5541L407.285 70.0291L408.412 69.3729L408.717 69.898L407.59 70.5541ZM411.833 69.2758L411.427 69.5117L409.813 68.6417L409.757 70.4843L409.377 70.7054L409.47 68.51L407.665 67.5933L408.062 67.3623L409.539 68.1408L409.598 66.4679L409.976 66.248L409.877 68.2642L411.833 69.2758ZM414.716 67.597L413.973 68.0295L412.585 67.2835L412.546 68.8604L411.849 69.2661L411.948 67.0898L410.131 66.1575L410.849 65.7397L412.152 66.4595L412.159 64.9772L412.86 64.5691L412.781 66.6527L414.716 67.597Z" fill="#212121"/>
<path d="M376.639 35.5979C379.838 35.5979 382.431 33.0013 382.431 29.7983C382.431 26.5953 379.838 23.9987 376.639 23.9987C373.44 23.9987 370.847 26.5953 370.847 29.7983C370.847 33.0013 373.44 35.5979 376.639 35.5979Z" fill="#7B7B7B"/>
<path d="M383.651 31.7362C386.85 31.7362 389.443 29.1396 389.443 25.9366C389.443 22.7336 386.85 20.137 383.651 20.137C380.452 20.137 377.859 22.7336 377.859 25.9366C377.859 29.1396 380.452 31.7362 383.651 31.7362Z" fill="#4DAE18"/>
<path d="M251.654 30.6128C251.474 32.5945 250.9 34.5201 249.966 36.2763C249.032 38.0326 247.756 39.5838 246.214 40.8388C244.672 42.0938 242.894 43.027 240.987 43.5836C239.079 44.1402 237.079 44.3088 235.105 44.0796C231.094 43.4901 227.473 41.3533 225.015 38.1258C222.556 34.8982 221.457 30.836 221.95 26.8072C222.191 23.8121 223.338 20.9618 225.239 18.6365C227.14 16.3112 229.703 14.6216 232.588 13.7931C235.473 12.9646 238.541 13.0366 241.384 13.9994C244.226 14.9623 246.708 16.7703 248.498 19.1821C250.977 22.4454 252.106 26.5382 251.654 30.6128Z" fill="#FCAF15"/>
<path d="M248.765 30.5847C248.577 32.1835 248.072 33.7284 247.278 35.1286C246.485 36.5287 245.42 37.7557 244.145 38.7372C242.871 39.7187 241.414 40.4348 239.858 40.8435C238.303 41.2521 236.682 41.345 235.091 41.1166C231.854 40.5418 228.968 38.725 227.048 36.0526C225.129 33.3802 224.326 30.0632 224.811 26.8072C225.057 24.3823 226.039 22.0909 227.625 20.2412C229.21 18.3916 231.323 17.0722 233.679 16.4605C236.036 15.8489 238.523 15.9742 240.806 16.8198C243.089 17.6653 245.059 19.1905 246.451 21.1902C248.41 23.9027 249.239 27.2712 248.765 30.5847Z" fill="#FECA57"/>
<path opacity="0.02" d="M249.452 30.8796C249.932 27.4441 249.15 23.9508 247.25 21.0498C248.063 23.2514 248.318 25.6202 247.993 27.9447C247.787 29.7145 247.228 31.4249 246.35 32.975C245.473 34.525 244.294 35.8834 242.883 36.9698C241.473 38.0562 239.859 38.8486 238.138 39.3004C236.417 39.7521 234.622 39.854 232.861 39.6C230.995 39.2925 229.215 38.5961 227.635 37.556C226.055 36.5158 224.71 35.155 223.689 33.5617C224.508 35.8595 225.925 37.8963 227.794 39.4616C229.663 41.0269 231.916 42.0636 234.319 42.4647C236.076 42.719 237.865 42.6196 239.582 42.1722C241.299 41.7248 242.91 40.9385 244.319 39.8593C245.729 38.7802 246.909 37.4299 247.79 35.8879C248.672 34.3459 249.237 32.6431 249.452 30.8796Z" fill="#232323"/>
<path opacity="0.13" d="M223.605 32.9158C224.537 36.2062 226.65 39.0363 229.537 40.8638C227.905 39.194 226.714 37.1427 226.073 34.8957C225.019 31.4246 225.369 27.6777 227.048 24.4625C228.727 21.2474 231.6 18.8215 235.049 17.7077C236.843 17.1718 238.732 17.03 240.585 17.2917C242.439 17.5534 244.215 18.2126 245.791 19.2243C244.121 17.4845 242.006 16.238 239.676 15.6213C237.346 15.0047 234.891 15.0414 232.58 15.7277C229.13 16.8384 226.254 19.2638 224.575 22.4799C222.895 25.696 222.547 29.4446 223.605 32.9158Z" fill="white"/>
<path d="M235.234 33.1146L235.467 32.0834C235.094 31.985 234.743 31.8644 234.414 31.7216C234.088 31.5796 233.828 31.4348 233.635 31.2871L233.815 30.4916C234.016 30.6515 234.284 30.8139 234.618 30.9787C234.952 31.1435 235.29 31.2711 235.631 31.3616L236.12 29.201C235.717 28.9744 235.391 28.7495 235.143 28.5261C234.898 28.3003 234.731 28.0573 234.642 27.7971C234.553 27.5368 234.545 27.2463 234.617 26.9255C234.693 26.5916 234.836 26.326 235.046 26.1286C235.259 25.9288 235.525 25.7969 235.842 25.7329C236.16 25.669 236.513 25.6744 236.902 25.749L237.094 24.8995L237.691 25.0456L237.501 25.8853C237.847 25.9806 238.156 26.0978 238.428 26.2368C238.7 26.3725 238.946 26.5228 239.167 26.6874L238.758 27.3077C238.556 27.165 238.334 27.031 238.09 26.9057C237.847 26.7804 237.597 26.6743 237.342 26.5875L236.856 28.7333C237.264 28.968 237.598 29.1934 237.859 29.4093C238.123 29.626 238.306 29.8591 238.408 30.1086C238.509 30.3582 238.522 30.6515 238.446 30.9887C238.337 31.4667 238.075 31.8102 237.66 32.0194C237.245 32.2253 236.716 32.2822 236.073 32.1903L235.83 33.2607L235.234 33.1146ZM236.237 31.4635C236.647 31.5225 236.967 31.499 237.198 31.3931C237.432 31.2847 237.578 31.1028 237.636 30.8474C237.678 30.6641 237.673 30.5039 237.621 30.3669C237.573 30.2307 237.472 30.0989 237.319 29.9714C237.166 29.8407 236.95 29.6997 236.671 29.5485L236.237 31.4635ZM236.306 28.3809L236.741 26.461C236.493 26.4174 236.277 26.4129 236.093 26.4475C235.91 26.4821 235.762 26.5495 235.65 26.6499C235.541 26.751 235.468 26.8851 235.43 27.052C235.386 27.2452 235.385 27.416 235.427 27.5645C235.474 27.7106 235.568 27.8494 235.71 27.981C235.856 28.1101 236.055 28.2434 236.306 28.3809Z" fill="white"/>
<path d="M341.746 34.4745C343.247 33.2949 347.23 34.1796 349.74 37.5217C352.251 40.8638 353.148 44.6132 350.75 46.4107" stroke="#212121" stroke-width="0.5" stroke-linecap="round" stroke-linejoin="round"/>
<path d="M347.328 34.4745H268.245C266.959 34.4745 265.917 35.5181 265.917 36.8055V104.477C265.917 105.764 266.959 106.808 268.245 106.808H347.328C348.614 106.808 349.656 105.764 349.656 104.477V36.8055C349.656 35.5181 348.614 34.4745 347.328 34.4745Z" fill="#FECA57"/>
<path opacity="0.4" d="M308.845 52.786H306.741V114.222H308.845V52.786Z" fill="#F9A40D"/>
<path d="M319.49 34.4745H296.097V66.9409H319.49V34.4745Z" fill="#FCAF15"/>
<path d="M361.647 48.0396C361.516 47.6076 361.251 47.2288 360.89 46.9583L353.877 41.6783C353.617 41.4811 353.313 41.3479 352.992 41.2894C352.67 41.2308 352.34 41.2486 352.026 41.3413L346.585 42.9141C346.255 43.0168 345.955 43.1983 345.71 43.4429C345.466 43.6876 345.285 43.988 345.182 44.3183L342.448 52.7438C342.329 53.1519 342.329 53.5855 342.448 53.9936L347.552 71.5749C347.715 72.106 348.08 72.5516 348.568 72.8145C349.057 73.0775 349.629 73.1367 350.161 72.9792L365.518 68.5136C366.051 68.3515 366.499 67.9837 366.762 67.4913C367.025 66.9989 367.082 66.4221 366.92 65.8877L361.647 48.0396ZM351.129 47.6885C350.796 47.7857 350.442 47.7819 350.111 47.6776C349.78 47.5733 349.488 47.3731 349.271 47.1024C349.054 46.8316 348.922 46.5025 348.891 46.1567C348.861 45.8109 348.934 45.4638 349.101 45.1594C349.267 44.855 349.521 44.6069 349.828 44.4466C350.136 44.2862 350.484 44.2208 350.828 44.2585C351.173 44.2962 351.499 44.4354 351.764 44.6586C352.03 44.8817 352.224 45.1787 352.321 45.5119C352.451 45.9589 352.398 46.4392 352.175 46.8474C351.951 47.2556 351.575 47.5582 351.129 47.6885Z" fill="#FCAF15"/>
<path d="M350.932 46.7055L350.722 46.846C350.511 46.999 350.28 47.1219 350.035 47.2111C349.164 47.549 348.199 47.549 347.328 47.2111C346.177 46.7447 345.139 46.0359 344.285 45.1328C343.318 44.1417 342.436 43.0707 341.648 41.9311C340.767 40.8282 340.088 39.5778 339.643 38.2379C339.439 37.5697 339.439 36.8558 339.643 36.1877C339.874 35.613 340.234 35.099 340.695 34.6851C341.096 34.319 341.576 34.05 342.097 33.8987C342.308 33.8142 342.53 33.7621 342.756 33.7443C342.934 33.7552 343.112 33.7552 343.289 33.7443L344.271 33.8145C344.333 33.8214 344.39 33.8511 344.431 33.8977C344.473 33.9444 344.496 34.0048 344.495 34.0672C344.488 34.1293 344.459 34.1866 344.412 34.2281C344.365 34.2696 344.305 34.2923 344.243 34.2919C343.93 34.2645 343.616 34.2645 343.303 34.2919C343.142 34.3018 342.982 34.33 342.826 34.3762C342.66 34.4051 342.495 34.4474 342.335 34.5026C341.926 34.6313 341.552 34.8523 341.242 35.1485C340.857 35.4792 340.559 35.8985 340.372 36.3702C340.202 36.9047 340.202 37.4787 340.372 38.0132C340.792 39.2687 341.433 40.4387 342.265 41.4677C343.022 42.5803 343.877 43.6235 344.818 44.5851C345.605 45.4163 346.561 46.0677 347.623 46.4949C348.334 46.7779 349.127 46.7779 349.839 46.4949C350.039 46.4257 350.229 46.3263 350.399 46.2L350.61 46.0596C350.69 46.0115 350.786 45.9964 350.878 46.0173C350.969 46.0382 351.049 46.0936 351.101 46.1719C351.126 46.2102 351.143 46.2533 351.151 46.2986C351.159 46.3438 351.158 46.3902 351.148 46.4349C351.137 46.4796 351.118 46.5217 351.09 46.5586C351.063 46.5954 351.028 46.6264 350.989 46.6494L350.932 46.7055Z" fill="#212121"/>
<path d="M272.69 57.7009C273.328 59.5853 273.584 61.5786 273.44 63.5632C273.297 65.5479 272.759 67.4838 271.857 69.257C270.956 71.0302 269.709 72.6047 268.19 73.8879C266.671 75.1711 264.911 76.1369 263.014 76.7285C259.109 77.8163 254.934 77.3306 251.383 75.3754C247.831 73.4202 245.185 70.1508 244.01 66.2668C243.014 63.4315 242.906 60.3591 243.701 57.4607C244.496 54.5622 246.155 51.9758 248.458 50.0473C250.76 48.1189 253.596 46.9404 256.586 46.6694C259.575 46.3985 262.576 47.048 265.187 48.5311C268.775 50.5058 271.462 53.7906 272.69 57.7009Z" fill="#FCAF15"/>
<path d="M269.997 58.7962C270.475 60.3347 270.64 61.9535 270.482 63.5568C270.324 65.1602 269.847 66.7155 269.078 68.1309C268.309 69.5462 267.264 70.7927 266.006 71.7967C264.747 72.8008 263.301 73.5418 261.751 73.9762C258.564 74.7607 255.197 74.2714 252.364 72.612C249.531 70.9526 247.456 68.2535 246.577 65.0873C246.101 63.5497 245.938 61.9322 246.097 60.3305C246.256 58.7287 246.734 57.1751 247.503 55.7614C248.272 54.3477 249.315 53.1025 250.573 52.0995C251.83 51.0964 253.275 50.3558 254.823 49.9213C256.381 49.5089 258.005 49.4108 259.602 49.6326C261.198 49.8543 262.734 50.3917 264.121 51.2132C266.979 52.8926 269.083 55.6074 269.997 58.7962Z" fill="#FECA57"/>
<path opacity="0.02" d="M270.741 58.7962C269.79 55.4848 267.672 52.631 264.78 50.7638C266.416 52.445 267.61 54.5048 268.258 56.76C268.794 58.4652 268.983 60.2609 268.812 62.0404C268.641 63.8198 268.115 65.5468 267.265 67.1187C266.414 68.6905 265.257 70.0753 263.862 71.1906C262.467 72.3059 260.862 73.129 259.143 73.6111C257.311 74.0881 255.399 74.1745 253.532 73.8649C251.664 73.5553 249.882 72.8564 248.302 71.8136C249.98 73.5823 252.101 74.8692 254.444 75.5408C256.786 76.2124 259.266 76.2443 261.625 75.6332C263.344 75.1527 264.948 74.3311 266.343 73.2171C267.739 72.1032 268.896 70.7197 269.746 69.1489C270.597 67.5782 271.123 65.8522 271.294 64.0737C271.465 62.2952 271.277 60.5004 270.741 58.7962Z" fill="#232323"/>
<path opacity="0.13" d="M247.937 71.1396C250.125 73.7648 253.199 75.4939 256.576 75.9983C254.397 75.136 252.469 73.7407 250.967 71.94C248.598 69.1945 247.402 65.6263 247.638 62.0057C247.874 58.3852 249.523 55.003 252.229 52.5894C253.651 51.37 255.32 50.4738 257.121 49.9623C258.923 49.4508 260.813 49.3362 262.663 49.6264C260.433 48.7133 257.996 48.4307 255.617 48.8096C253.238 49.1885 251.008 50.2142 249.171 51.7749C246.469 54.1948 244.825 57.5815 244.594 61.2042C244.363 64.8269 245.564 68.3953 247.937 71.1396Z" fill="white"/>
<path d="M259.913 67.0727L259.594 66.0617C259.222 66.167 258.857 66.2417 258.5 66.286C258.147 66.3292 257.849 66.3364 257.607 66.3074L257.361 65.5275C257.616 65.5632 257.93 65.5671 258.302 65.5392C258.674 65.5113 259.031 65.4496 259.371 65.354L258.703 63.2358C258.24 63.2452 257.845 63.2168 257.517 63.1504C257.191 63.0799 256.924 62.9548 256.716 62.7751C256.507 62.5954 256.354 62.3483 256.254 62.0338C256.151 61.7064 256.14 61.4039 256.222 61.1262C256.306 60.8443 256.469 60.5948 256.711 60.3778C256.953 60.1607 257.261 59.9852 257.635 59.8513L257.373 59.0185L257.962 58.8407L258.222 59.664C258.57 59.5697 258.896 59.5135 259.201 59.4954C259.505 59.4741 259.794 59.4784 260.068 59.5082L260.027 60.2532C259.781 60.2326 259.521 60.2301 259.247 60.2459C258.973 60.2617 258.704 60.2972 258.439 60.3524L259.103 62.4562C259.574 62.4512 259.977 62.4756 260.311 62.5294C260.649 62.5822 260.925 62.6906 261.139 62.8546C261.353 63.0185 261.512 63.2658 261.616 63.5963C261.764 64.0649 261.711 64.4956 261.458 64.8884C261.203 65.278 260.774 65.597 260.172 65.8454L260.503 66.8949L259.913 67.0727ZM259.947 65.1329C260.331 64.9749 260.596 64.7914 260.742 64.5823C260.89 64.3689 260.924 64.1371 260.845 63.8868C260.789 63.7071 260.703 63.5711 260.59 63.4788C260.479 63.3856 260.325 63.3231 260.128 63.2911C259.93 63.2559 259.672 63.244 259.355 63.2554L259.947 65.1329ZM258.449 62.4318L257.856 60.5494C257.619 60.6383 257.43 60.7444 257.289 60.8678C257.148 60.9912 257.054 61.1248 257.008 61.2688C256.965 61.4119 256.969 61.5652 257.021 61.7289C257.081 61.9183 257.166 62.0665 257.278 62.1735C257.391 62.2763 257.543 62.3484 257.732 62.3897C257.924 62.4268 258.163 62.4408 258.449 62.4318Z" fill="white"/>
<path d="M352.011 60.8215C352.066 60.9962 352.069 61.1586 352.02 61.3086C351.973 61.4569 351.881 61.5869 351.745 61.6986C351.608 61.8102 351.434 61.898 351.223 61.9618C351.111 61.9956 351.003 62.0221 350.9 62.0415C350.797 62.0608 350.7 62.073 350.61 62.0781C350.52 62.0831 350.439 62.0804 350.366 62.07L350.262 61.7415C350.377 61.7526 350.512 61.7544 350.67 61.7467C350.826 61.7378 350.984 61.7093 351.143 61.6613C351.292 61.6166 351.411 61.5593 351.501 61.4894C351.591 61.4182 351.651 61.3377 351.68 61.2479C351.71 61.1564 351.709 61.0583 351.676 60.9534C351.644 60.8527 351.595 60.7754 351.529 60.7216C351.463 60.6665 351.37 60.6271 351.248 60.6033C351.128 60.5778 350.969 60.5603 350.771 60.5508C350.632 60.5443 350.506 60.5293 350.393 60.5057C350.281 60.4809 350.181 60.4446 350.095 60.3969C350.009 60.3493 349.936 60.2862 349.874 60.2077C349.814 60.1287 349.765 60.0322 349.729 59.918C349.68 59.7608 349.677 59.6144 349.722 59.4789C349.767 59.3416 349.851 59.2221 349.974 59.1203C350.098 59.0167 350.252 58.937 350.437 58.8813C350.595 58.8338 350.745 58.8046 350.888 58.7939C351.032 58.7828 351.168 58.7852 351.296 58.8012L351.282 59.1278C351.161 59.1156 351.036 59.1128 350.907 59.1194C350.779 59.1256 350.651 59.1479 350.524 59.1861C350.398 59.2243 350.296 59.2755 350.221 59.3395C350.146 59.4018 350.096 59.4735 350.071 59.5545C350.047 59.6355 350.049 59.7224 350.078 59.8151C350.111 59.9185 350.159 59.998 350.224 60.0535C350.29 60.1086 350.38 60.1486 350.492 60.1735C350.606 60.1966 350.752 60.2131 350.929 60.2229C351.123 60.2336 351.292 60.2562 351.436 60.2908C351.579 60.3241 351.699 60.3822 351.794 60.4652C351.889 60.5469 351.962 60.6657 352.011 60.8215ZM354.718 60.8638L354.059 60.0384L352.874 60.3959L352.806 61.4402L352.458 61.5452L352.683 58.2375L352.992 58.1442L355.075 60.7565L354.718 60.8638ZM353.86 59.7652L353.221 58.9404C353.205 58.9186 353.179 58.8831 353.143 58.8337C353.108 58.7839 353.072 58.7322 353.034 58.6788C352.997 58.6254 352.966 58.5824 352.943 58.5498C352.947 58.6089 352.949 58.6685 352.95 58.7284C352.953 58.7867 352.954 58.8415 352.954 58.893C352.953 58.9432 352.953 58.986 352.952 59.0215L352.893 60.0568L353.86 59.7652ZM355.485 60.6326L354.556 57.686L354.9 57.5823L355.733 60.2226L357.046 59.8267L357.142 60.1331L355.485 60.6326ZM359.297 59.4834L357.65 59.98L356.721 57.0333L358.368 56.5368L358.463 56.8391L357.16 57.232L357.461 58.1853L358.689 57.815L358.783 58.1133L357.555 58.4836L357.899 59.5739L359.202 59.1811L359.297 59.4834Z" fill="white"/>
<path d="M73.7684 139.148H13.716C12.1028 139.151 10.5569 139.795 9.41621 140.937C8.27556 142.079 7.6331 143.627 7.62939 145.242V187.819C7.6331 189.434 8.27556 190.982 9.41621 192.124C10.5569 193.267 12.1028 193.91 13.716 193.914H54.8776L65.0172 200.57C65.5606 200.927 66.1887 201.134 66.8378 201.17C67.4868 201.206 68.1338 201.069 68.7132 200.774C69.2926 200.479 69.7839 200.036 70.1372 199.49C70.4905 198.943 70.6933 198.313 70.7251 197.663L70.9215 193.914H73.7263C75.3395 193.91 76.8855 193.267 78.0261 192.124C79.1668 190.982 79.8092 189.434 79.8129 187.819V145.242C79.8093 143.634 79.1726 142.093 78.041 140.952C76.9095 139.811 75.3742 139.162 73.7684 139.148Z" fill="#4DAE18"/>
<path d="M238.26 306.858C238.26 306.858 240.869 340.012 229.102 358.478C228.364 359.617 227.945 360.935 227.891 362.292C227.837 363.649 228.15 364.996 228.796 366.19C229.442 367.385 230.397 368.383 231.562 369.079C232.726 369.775 234.057 370.145 235.413 370.148L323.767 365.935C330.008 365.935 334.987 364.685 331.228 359.686C323.206 348.971 319.826 323.877 321.72 305.552L238.26 306.858Z" fill="#CFCFCF"/>
<path d="M341.901 312.826H234.572V329.789H341.901V312.826Z" fill="#B4B4B4"/>
<path d="M427.954 88.5945H132.446C123.152 88.5945 115.617 96.139 115.617 105.446V306.872C115.617 316.179 123.152 323.723 132.446 323.723H427.954C437.249 323.723 444.784 316.179 444.784 306.872V105.446C444.784 96.139 437.249 88.5945 427.954 88.5945Z" fill="#CFCFCF"/>
<path d="M428.361 104.041H133.849V268.339H428.361V104.041Z" fill="#FCFFFF"/>
<path d="M182.752 128.279H149.767C148.148 128.279 146.835 129.593 146.835 131.214V164.242C146.835 165.863 148.148 167.177 149.767 167.177H182.752C184.371 167.177 185.683 165.863 185.683 164.242V131.214C185.683 129.593 184.371 128.279 182.752 128.279Z" fill="#EFEFEF"/>
<path d="M180.873 172.26H151.828C151.611 172.256 151.404 172.167 151.252 172.012C151.1 171.857 151.015 171.649 151.015 171.431C151.015 171.215 151.1 171.008 151.253 170.856C151.405 170.703 151.612 170.617 151.828 170.617H180.873C181.088 170.617 181.295 170.703 181.448 170.856C181.6 171.008 181.686 171.215 181.686 171.431C181.686 171.649 181.601 171.857 181.449 172.012C181.296 172.167 181.09 172.256 180.873 172.26Z" fill="#EFEFEF"/>
<path d="M180.48 182.216H151.968C150.976 182.212 150.026 181.816 149.325 181.114C148.623 180.412 148.228 179.46 148.224 178.467C148.228 177.474 148.623 176.522 149.325 175.82C150.026 175.117 150.976 174.721 151.968 174.717H180.48C181.472 174.721 182.422 175.117 183.124 175.82C183.825 176.522 184.221 177.474 184.225 178.467C184.221 179.46 183.825 180.412 183.124 181.114C182.422 181.816 181.472 182.212 180.48 182.216Z" fill="#7FCD4A"/>
<path d="M147.284 136.578C150.382 136.578 152.894 134.063 152.894 130.961C152.894 127.859 150.382 125.344 147.284 125.344C144.186 125.344 141.674 127.859 141.674 130.961C141.674 134.063 144.186 136.578 147.284 136.578Z" fill="#7FCD4A"/>
<path d="M146.981 131.527V131.025C146.797 131.022 146.622 131.006 146.454 130.977C146.289 130.948 146.153 130.911 146.048 130.865V130.477C146.158 130.528 146.299 130.573 146.471 130.611C146.643 130.649 146.813 130.67 146.981 130.673V129.62C146.77 129.561 146.596 129.494 146.457 129.419C146.32 129.343 146.217 129.25 146.148 129.139C146.08 129.029 146.045 128.896 146.045 128.74C146.045 128.577 146.084 128.438 146.16 128.324C146.238 128.207 146.348 128.116 146.488 128.051C146.628 127.985 146.793 127.948 146.981 127.938V127.524H147.273V127.934C147.443 127.938 147.599 127.958 147.739 127.991C147.88 128.023 148.01 128.064 148.129 128.115L148.005 128.448C147.896 128.405 147.779 128.368 147.653 128.338C147.527 128.308 147.4 128.287 147.273 128.276V129.321C147.486 129.384 147.665 129.45 147.809 129.52C147.954 129.59 148.063 129.677 148.136 129.781C148.21 129.884 148.246 130.018 148.246 130.183C148.246 130.416 148.161 130.604 147.99 130.747C147.82 130.889 147.581 130.975 147.273 131.006V131.527H146.981ZM147.273 130.652C147.469 130.632 147.615 130.585 147.711 130.51C147.808 130.434 147.856 130.333 147.856 130.209C147.856 130.12 147.837 130.046 147.799 129.989C147.762 129.931 147.702 129.882 147.617 129.841C147.533 129.797 147.418 129.757 147.273 129.718V130.652ZM146.981 129.221V128.285C146.861 128.293 146.761 128.316 146.679 128.352C146.598 128.389 146.537 128.437 146.495 128.496C146.455 128.555 146.435 128.625 146.435 128.706C146.435 128.801 146.453 128.879 146.488 128.943C146.525 129.006 146.583 129.059 146.663 129.104C146.744 129.147 146.85 129.186 146.981 129.221Z" fill="#FCFFFF"/>
<path d="M182.752 198.716H149.767C148.148 198.716 146.835 200.03 146.835 201.651V234.679C146.835 236.3 148.148 237.614 149.767 237.614H182.752C184.371 237.614 185.683 236.3 185.683 234.679V201.651C185.683 200.03 184.371 198.716 182.752 198.716Z" fill="#EFEFEF"/>
<path d="M180.873 242.697H151.828C151.612 242.697 151.405 242.612 151.253 242.459C151.1 242.306 151.015 242.099 151.015 241.883C151.015 241.667 151.1 241.46 151.253 241.307C151.405 241.154 151.612 241.069 151.828 241.069H180.873C181.088 241.069 181.295 241.154 181.448 241.307C181.6 241.46 181.686 241.667 181.686 241.883C181.686 242.099 181.6 242.306 181.448 242.459C181.295 242.612 181.088 242.697 180.873 242.697Z" fill="#EFEFEF"/>
<path d="M180.48 252.654H151.968C150.978 252.654 150.027 252.261 149.326 251.56C148.624 250.86 148.228 249.91 148.224 248.918C148.228 247.925 148.623 246.974 149.325 246.271C150.026 245.569 150.976 245.173 151.968 245.169H180.48C181.472 245.173 182.422 245.569 183.124 246.271C183.825 246.974 184.221 247.925 184.225 248.918C184.221 249.91 183.825 250.86 183.123 251.56C182.421 252.261 181.471 252.654 180.48 252.654Z" fill="#7FCD4A"/>
<path d="M147.284 207.029C150.382 207.029 152.894 204.515 152.894 201.412C152.894 198.31 150.382 195.795 147.284 195.795C144.186 195.795 141.674 198.31 141.674 201.412C141.674 204.515 144.186 207.029 147.284 207.029Z" fill="#7FCD4A"/>
<path d="M146.981 201.979V201.476C146.797 201.473 146.622 201.457 146.454 201.428C146.289 201.4 146.153 201.362 146.048 201.316V200.928C146.158 200.979 146.299 201.024 146.471 201.062C146.643 201.101 146.813 201.121 146.981 201.125V200.072C146.77 200.013 146.596 199.946 146.457 199.871C146.32 199.794 146.217 199.701 146.148 199.591C146.08 199.481 146.045 199.348 146.045 199.191C146.045 199.029 146.084 198.89 146.16 198.775C146.238 198.659 146.348 198.568 146.488 198.502C146.628 198.437 146.793 198.399 146.981 198.39V197.976H147.273V198.385C147.443 198.39 147.599 198.409 147.739 198.443C147.88 198.474 148.01 198.516 148.129 198.567L148.005 198.899C147.896 198.856 147.779 198.82 147.653 198.789C147.527 198.759 147.4 198.738 147.273 198.727V199.773C147.486 199.835 147.665 199.901 147.809 199.971C147.954 200.042 148.063 200.128 148.136 200.232C148.21 200.336 148.246 200.47 148.246 200.634C148.246 200.867 148.161 201.055 147.99 201.199C147.82 201.341 147.581 201.427 147.273 201.457V201.979H146.981ZM147.273 201.103C147.469 201.084 147.615 201.037 147.711 200.962C147.808 200.885 147.856 200.785 147.856 200.66C147.856 200.571 147.837 200.498 147.799 200.44C147.762 200.383 147.702 200.333 147.617 200.292C147.533 200.249 147.418 200.208 147.273 200.17V201.103ZM146.981 199.672V198.737C146.861 198.745 146.761 198.767 146.679 198.804C146.598 198.84 146.537 198.888 146.495 198.947C146.455 199.006 146.435 199.077 146.435 199.158C146.435 199.252 146.453 199.331 146.488 199.395C146.525 199.457 146.583 199.51 146.663 199.555C146.744 199.598 146.85 199.637 146.981 199.672Z" fill="#FCFFFF"/>
<path d="M240.827 128.279H207.841C206.223 128.279 204.91 129.593 204.91 131.214V164.242C204.91 165.863 206.223 167.177 207.841 167.177H240.827C242.446 167.177 243.758 165.863 243.758 164.242V131.214C243.758 129.593 242.446 128.279 240.827 128.279Z" fill="#EFEFEF"/>
<path d="M239.032 172.26H209.917C209.699 172.256 209.49 172.168 209.336 172.013C209.182 171.859 209.093 171.65 209.09 171.431C209.093 171.214 209.182 171.007 209.337 170.855C209.492 170.702 209.7 170.617 209.917 170.617H239.032C239.247 170.617 239.454 170.703 239.607 170.856C239.759 171.008 239.845 171.215 239.845 171.431C239.845 171.649 239.76 171.857 239.608 172.012C239.456 172.167 239.249 172.256 239.032 172.26Z" fill="#EFEFEF"/>
<path d="M238.569 182.216H210.043C209.053 182.212 208.104 181.816 207.405 181.113C206.706 180.41 206.313 179.459 206.313 178.467C206.313 177.475 206.706 176.523 207.405 175.821C208.104 175.118 209.053 174.721 210.043 174.717H238.569C239.56 174.721 240.509 175.118 241.208 175.821C241.907 176.523 242.3 177.475 242.3 178.467C242.3 179.459 241.907 180.41 241.208 181.113C240.509 181.816 239.56 182.212 238.569 182.216Z" fill="#7FCD4A"/>
<path d="M205.373 136.578C208.471 136.578 210.983 134.063 210.983 130.961C210.983 127.859 208.471 125.344 205.373 125.344C202.275 125.344 199.763 127.859 199.763 130.961C199.763 134.063 202.275 136.578 205.373 136.578Z" fill="#7FCD4A"/>
<path d="M205.056 131.527V131.025C204.872 131.022 204.697 131.006 204.529 130.977C204.364 130.948 204.228 130.911 204.123 130.865V130.477C204.233 130.528 204.374 130.573 204.546 130.611C204.718 130.649 204.888 130.67 205.056 130.673V129.62C204.845 129.561 204.671 129.494 204.532 129.419C204.395 129.343 204.292 129.25 204.223 129.139C204.155 129.029 204.12 128.896 204.12 128.74C204.12 128.577 204.159 128.438 204.235 128.324C204.313 128.207 204.423 128.116 204.563 128.051C204.703 127.985 204.868 127.948 205.056 127.938V127.524H205.348V127.934C205.518 127.938 205.674 127.958 205.814 127.991C205.955 128.023 206.085 128.064 206.204 128.115L206.08 128.448C205.971 128.405 205.854 128.368 205.728 128.338C205.602 128.308 205.475 128.287 205.348 128.276V129.321C205.561 129.384 205.74 129.45 205.884 129.52C206.029 129.59 206.138 129.677 206.211 129.781C206.285 129.884 206.321 130.018 206.321 130.183C206.321 130.416 206.236 130.604 206.065 130.747C205.895 130.889 205.656 130.975 205.348 131.006V131.527H205.056ZM205.348 130.652C205.544 130.632 205.69 130.585 205.785 130.51C205.883 130.434 205.931 130.333 205.931 130.209C205.931 130.12 205.912 130.046 205.874 129.989C205.837 129.931 205.777 129.882 205.692 129.841C205.608 129.797 205.493 129.757 205.348 129.718V130.652ZM205.056 129.221V128.285C204.936 128.293 204.836 128.316 204.754 128.352C204.673 128.389 204.612 128.437 204.57 128.496C204.53 128.555 204.51 128.625 204.51 128.706C204.51 128.801 204.528 128.879 204.563 128.943C204.6 129.006 204.658 129.059 204.738 129.104C204.819 129.147 204.925 129.186 205.056 129.221Z" fill="#FCFFFF"/>
<path d="M240.827 198.716H207.841C206.223 198.716 204.91 200.03 204.91 201.651V234.679C204.91 236.3 206.223 237.614 207.841 237.614H240.827C242.446 237.614 243.758 236.3 243.758 234.679V201.651C243.758 200.03 242.446 198.716 240.827 198.716Z" fill="#EFEFEF"/>
<path d="M239.032 242.697H209.917C209.7 242.697 209.492 242.612 209.337 242.46C209.182 242.307 209.093 242.1 209.09 241.883C209.093 241.666 209.182 241.459 209.337 241.306C209.492 241.154 209.7 241.068 209.917 241.069H239.032C239.247 241.069 239.454 241.154 239.607 241.307C239.759 241.46 239.845 241.667 239.845 241.883C239.845 242.099 239.759 242.306 239.607 242.459C239.454 242.612 239.247 242.697 239.032 242.697Z" fill="#EFEFEF"/>
<path d="M238.569 252.654H210.043C209.055 252.65 208.108 252.255 207.41 251.556C206.711 250.856 206.317 249.908 206.313 248.918C206.313 247.926 206.706 246.975 207.405 246.272C208.104 245.569 209.053 245.173 210.043 245.169H238.569C239.56 245.173 240.509 245.569 241.208 246.272C241.907 246.975 242.3 247.926 242.3 248.918C242.296 249.908 241.902 250.856 241.203 251.556C240.504 252.255 239.557 252.65 238.569 252.654Z" fill="#7FCD4A"/>
<path d="M205.373 207.029C208.471 207.029 210.983 204.515 210.983 201.412C210.983 198.31 208.471 195.795 205.373 195.795C202.275 195.795 199.763 198.31 199.763 201.412C199.763 204.515 202.275 207.029 205.373 207.029Z" fill="#7FCD4A"/>
<path d="M205.056 201.979V201.476C204.872 201.473 204.697 201.457 204.529 201.428C204.364 201.4 204.228 201.362 204.123 201.316V200.928C204.233 200.979 204.374 201.024 204.546 201.062C204.718 201.101 204.888 201.121 205.056 201.125V200.072C204.845 200.013 204.671 199.946 204.532 199.871C204.395 199.794 204.292 199.701 204.223 199.591C204.155 199.481 204.12 199.348 204.12 199.191C204.12 199.029 204.159 198.89 204.235 198.775C204.313 198.659 204.423 198.568 204.563 198.502C204.703 198.437 204.868 198.399 205.056 198.39V197.976H205.348V198.385C205.518 198.39 205.674 198.409 205.814 198.443C205.955 198.474 206.085 198.516 206.204 198.567L206.08 198.899C205.971 198.856 205.854 198.82 205.728 198.789C205.602 198.759 205.475 198.738 205.348 198.727V199.773C205.561 199.835 205.74 199.901 205.884 199.971C206.029 200.042 206.138 200.128 206.211 200.232C206.285 200.336 206.321 200.47 206.321 200.634C206.321 200.867 206.236 201.055 206.065 201.199C205.895 201.341 205.656 201.427 205.348 201.457V201.979H205.056ZM205.348 201.103C205.544 201.084 205.69 201.037 205.785 200.962C205.883 200.885 205.931 200.785 205.931 200.66C205.931 200.571 205.912 200.498 205.874 200.44C205.837 200.383 205.777 200.333 205.692 200.292C205.608 200.249 205.493 200.208 205.348 200.17V201.103ZM205.056 199.672V198.737C204.936 198.745 204.836 198.767 204.754 198.804C204.673 198.84 204.612 198.888 204.57 198.947C204.53 199.006 204.51 199.077 204.51 199.158C204.51 199.252 204.528 199.331 204.563 199.395C204.6 199.457 204.658 199.51 204.738 199.555C204.819 199.598 204.925 199.637 205.056 199.672Z" fill="#FCFFFF"/>
<path d="M299.617 128.279H266.632C265.013 128.279 263.701 129.593 263.701 131.214V164.242C263.701 165.863 265.013 167.177 266.632 167.177H299.617C301.236 167.177 302.548 165.863 302.548 164.242V131.214C302.548 129.593 301.236 128.279 299.617 128.279Z" fill="#EFEFEF"/>
<path d="M297.738 172.26H268.693C268.476 172.256 268.269 172.167 268.117 172.012C267.965 171.857 267.88 171.649 267.88 171.431C267.88 171.215 267.966 171.008 268.118 170.856C268.271 170.703 268.478 170.617 268.693 170.617H297.738C297.954 170.617 298.16 170.703 298.313 170.856C298.466 171.008 298.551 171.215 298.551 171.431C298.551 171.649 298.466 171.857 298.314 172.012C298.162 172.167 297.955 172.256 297.738 172.26Z" fill="#EFEFEF"/>
<path d="M297.345 182.216H268.834C267.842 182.212 266.891 181.816 266.19 181.114C265.489 180.412 265.093 179.46 265.089 178.467C265.093 177.474 265.489 176.522 266.19 175.82C266.891 175.117 267.842 174.721 268.834 174.717H297.345C298.337 174.721 299.288 175.117 299.989 175.82C300.69 176.522 301.086 177.474 301.09 178.467C301.086 179.46 300.69 180.412 299.989 181.114C299.288 181.816 298.337 182.212 297.345 182.216Z" fill="#7FCD4A"/>
<path d="M264.15 136.578C267.248 136.578 269.759 134.063 269.759 130.961C269.759 127.859 267.248 125.344 264.15 125.344C261.051 125.344 258.54 127.859 258.54 130.961C258.54 134.063 261.051 136.578 264.15 136.578Z" fill="#7FCD4A"/>
<path d="M263.846 131.527V131.025C263.663 131.022 263.487 131.006 263.32 130.977C263.154 130.948 263.018 130.911 262.913 130.865V130.477C263.023 130.528 263.164 130.573 263.336 130.611C263.509 130.649 263.679 130.67 263.846 130.673V129.62C263.635 129.561 263.461 129.494 263.322 129.419C263.185 129.343 263.082 129.25 263.013 129.139C262.945 129.029 262.911 128.896 262.911 128.74C262.911 128.577 262.949 128.438 263.025 128.324C263.104 128.207 263.213 128.116 263.353 128.051C263.494 127.985 263.658 127.948 263.846 127.938V127.524H264.138V127.934C264.309 127.938 264.464 127.958 264.604 127.991C264.745 128.023 264.875 128.064 264.994 128.115L264.87 128.448C264.762 128.405 264.644 128.368 264.518 128.338C264.392 128.308 264.266 128.287 264.138 128.276V129.321C264.352 129.384 264.53 129.45 264.674 129.52C264.819 129.59 264.928 129.677 265.002 129.781C265.075 129.884 265.112 130.018 265.112 130.183C265.112 130.416 265.026 130.604 264.856 130.747C264.685 130.889 264.446 130.975 264.138 131.006V131.527H263.846ZM264.138 130.652C264.334 130.632 264.48 130.585 264.576 130.51C264.673 130.434 264.722 130.333 264.722 130.209C264.722 130.12 264.703 130.046 264.664 129.989C264.628 129.931 264.567 129.882 264.482 129.841C264.398 129.797 264.283 129.757 264.138 129.718V130.652ZM263.846 129.221V128.285C263.726 128.293 263.626 128.316 263.545 128.352C263.463 128.389 263.402 128.437 263.36 128.496C263.32 128.555 263.301 128.625 263.301 128.706C263.301 128.801 263.318 128.879 263.353 128.943C263.39 129.006 263.448 129.059 263.528 129.104C263.609 129.147 263.715 129.186 263.846 129.221Z" fill="#FCFFFF"/>
<path d="M299.617 198.716H266.632C265.013 198.716 263.701 200.03 263.701 201.651V234.679C263.701 236.3 265.013 237.614 266.632 237.614H299.617C301.236 237.614 302.548 236.3 302.548 234.679V201.651C302.548 200.03 301.236 198.716 299.617 198.716Z" fill="#EFEFEF"/>
<path d="M297.738 242.697H268.693C268.478 242.697 268.271 242.612 268.118 242.459C267.966 242.306 267.88 242.099 267.88 241.883C267.88 241.667 267.966 241.46 268.118 241.307C268.271 241.154 268.478 241.069 268.693 241.069H297.738C297.954 241.069 298.16 241.154 298.313 241.307C298.466 241.46 298.551 241.667 298.551 241.883C298.551 242.099 298.466 242.306 298.313 242.459C298.16 242.612 297.954 242.697 297.738 242.697Z" fill="#EFEFEF"/>
<path d="M297.345 252.654H268.834C267.843 252.654 266.893 252.261 266.191 251.56C265.489 250.86 265.093 249.91 265.089 248.918C265.093 247.925 265.489 246.974 266.19 246.271C266.891 245.569 267.842 245.173 268.834 245.169H297.345C298.337 245.173 299.288 245.569 299.989 246.271C300.69 246.974 301.086 247.925 301.09 248.918C301.086 249.91 300.69 250.86 299.988 251.56C299.286 252.261 298.336 252.654 297.345 252.654Z" fill="#7FCD4A"/>
<path d="M264.15 207.029C267.248 207.029 269.759 204.515 269.759 201.412C269.759 198.31 267.248 195.795 264.15 195.795C261.051 195.795 258.54 198.31 258.54 201.412C258.54 204.515 261.051 207.029 264.15 207.029Z" fill="#7FCD4A"/>
<path d="M263.846 201.979V201.476C263.663 201.473 263.487 201.457 263.32 201.428C263.154 201.4 263.018 201.362 262.913 201.316V200.928C263.023 200.979 263.164 201.024 263.336 201.062C263.509 201.101 263.679 201.121 263.846 201.125V200.072C263.635 200.013 263.461 199.946 263.322 199.871C263.185 199.794 263.082 199.701 263.013 199.591C262.945 199.481 262.911 199.348 262.911 199.191C262.911 199.029 262.949 198.89 263.025 198.775C263.104 198.659 263.213 198.568 263.353 198.502C263.494 198.437 263.658 198.399 263.846 198.39V197.976H264.138V198.385C264.309 198.39 264.464 198.409 264.604 198.443C264.745 198.474 264.875 198.516 264.994 198.567L264.87 198.899C264.762 198.856 264.644 198.82 264.518 198.789C264.392 198.759 264.266 198.738 264.138 198.727V199.773C264.352 199.835 264.53 199.901 264.674 199.971C264.819 200.042 264.928 200.128 265.002 200.232C265.075 200.336 265.112 200.47 265.112 200.634C265.112 200.867 265.026 201.055 264.856 201.199C264.685 201.341 264.446 201.427 264.138 201.457V201.979H263.846ZM264.138 201.103C264.334 201.084 264.48 201.037 264.576 200.962C264.673 200.885 264.722 200.785 264.722 200.66C264.722 200.571 264.703 200.498 264.664 200.44C264.628 200.383 264.567 200.333 264.482 200.292C264.398 200.249 264.283 200.208 264.138 200.17V201.103ZM263.846 199.672V198.737C263.726 198.745 263.626 198.767 263.545 198.804C263.463 198.84 263.402 198.888 263.36 198.947C263.32 199.006 263.301 199.077 263.301 199.158C263.301 199.252 263.318 199.331 263.353 199.395C263.39 199.457 263.448 199.51 263.528 199.555C263.609 199.598 263.715 199.637 263.846 199.672Z" fill="#FCFFFF"/>
<path d="M357.706 128.279H324.721C323.102 128.279 321.79 129.593 321.79 131.214V164.242C321.79 165.863 323.102 167.177 324.721 167.177H357.706C359.325 167.177 360.637 165.863 360.637 164.242V131.214C360.637 129.593 359.325 128.279 357.706 128.279Z" fill="#EFEFEF"/>
<path d="M355.827 172.26H326.782C326.57 172.253 326.369 172.164 326.22 172.013C326.071 171.861 325.986 171.658 325.983 171.446C325.983 171.23 326.069 171.022 326.221 170.87C326.374 170.717 326.581 170.631 326.796 170.631H355.841C356.057 170.631 356.264 170.717 356.416 170.87C356.569 171.022 356.654 171.23 356.654 171.446C356.651 171.663 356.562 171.87 356.407 172.022C356.252 172.175 356.044 172.26 355.827 172.26Z" fill="#EFEFEF"/>
<path d="M355.434 182.216H326.923C325.931 182.212 324.98 181.816 324.279 181.114C323.578 180.412 323.182 179.46 323.178 178.467C323.182 177.474 323.578 176.522 324.279 175.82C324.98 175.117 325.931 174.721 326.923 174.717H355.434C356.426 174.721 357.377 175.117 358.078 175.82C358.779 176.522 359.175 177.474 359.179 178.467C359.175 179.46 358.779 180.412 358.078 181.114C357.377 181.816 356.426 182.212 355.434 182.216Z" fill="#7FCD4A"/>
<path d="M322.238 136.578C325.337 136.578 327.848 134.063 327.848 130.961C327.848 127.859 325.337 125.344 322.238 125.344C319.14 125.344 316.629 127.859 316.629 130.961C316.629 134.063 319.14 136.578 322.238 136.578Z" fill="#7FCD4A"/>
<path d="M321.935 131.527V131.025C321.752 131.022 321.576 131.006 321.409 130.977C321.243 130.948 321.107 130.911 321.002 130.865V130.477C321.112 130.528 321.253 130.573 321.426 130.611C321.598 130.649 321.768 130.67 321.935 130.673V129.62C321.725 129.561 321.55 129.494 321.411 129.419C321.274 129.343 321.171 129.25 321.103 129.139C321.034 129.029 321 128.896 321 128.74C321 128.577 321.038 128.438 321.115 128.324C321.193 128.207 321.302 128.116 321.442 128.051C321.583 127.985 321.747 127.948 321.935 127.938V127.524H322.227V127.934C322.398 127.938 322.553 127.958 322.694 127.991C322.834 128.023 322.964 128.064 323.084 128.115L322.959 128.448C322.851 128.405 322.733 128.368 322.607 128.338C322.481 128.308 322.355 128.287 322.227 128.276V129.321C322.441 129.384 322.619 129.45 322.763 129.52C322.908 129.59 323.017 129.677 323.091 129.781C323.164 129.884 323.201 130.018 323.201 130.183C323.201 130.416 323.115 130.604 322.945 130.747C322.774 130.889 322.535 130.975 322.227 131.006V131.527H321.935ZM322.227 130.652C322.423 130.632 322.569 130.585 322.665 130.51C322.762 130.434 322.811 130.333 322.811 130.209C322.811 130.12 322.792 130.046 322.753 129.989C322.717 129.931 322.656 129.882 322.572 129.841C322.487 129.797 322.372 129.757 322.227 129.718V130.652ZM321.935 129.221V128.285C321.816 128.293 321.715 128.316 321.634 128.352C321.552 128.389 321.491 128.437 321.449 128.496C321.41 128.555 321.39 128.625 321.39 128.706C321.39 128.801 321.407 128.879 321.442 128.943C321.479 129.006 321.537 129.059 321.617 129.104C321.698 129.147 321.804 129.186 321.935 129.221Z" fill="#FCFFFF"/>
<path d="M357.706 198.716H324.721C323.102 198.716 321.79 200.03 321.79 201.651V234.679C321.79 236.3 323.102 237.614 324.721 237.614H357.706C359.325 237.614 360.637 236.3 360.637 234.679V201.651C360.637 200.03 359.325 198.716 357.706 198.716Z" fill="#EFEFEF"/>
<path d="M355.827 242.697H326.782C326.676 242.697 326.57 242.676 326.471 242.635C326.372 242.595 326.283 242.535 326.207 242.459C326.132 242.383 326.072 242.293 326.031 242.195C325.99 242.096 325.969 241.99 325.969 241.883C325.969 241.776 325.99 241.67 326.031 241.571C326.072 241.473 326.132 241.383 326.207 241.307C326.283 241.231 326.372 241.171 326.471 241.131C326.57 241.09 326.676 241.069 326.782 241.069H355.827C356.043 241.069 356.25 241.154 356.402 241.307C356.555 241.46 356.64 241.667 356.64 241.883C356.64 241.99 356.619 242.096 356.578 242.195C356.538 242.293 356.478 242.383 356.402 242.459C356.327 242.535 356.237 242.595 356.138 242.635C356.04 242.676 355.934 242.697 355.827 242.697Z" fill="#EFEFEF"/>
<path d="M355.434 252.654H326.923C325.932 252.654 324.982 252.261 324.28 251.56C323.578 250.86 323.182 249.91 323.178 248.918C323.182 247.925 323.578 246.974 324.279 246.271C324.98 245.569 325.931 245.173 326.923 245.169H355.434C356.426 245.173 357.377 245.569 358.078 246.271C358.779 246.974 359.175 247.925 359.179 248.918C359.175 249.91 358.779 250.86 358.077 251.56C357.375 252.261 356.425 252.654 355.434 252.654Z" fill="#7FCD4A"/>
<path d="M322.238 207.029C325.337 207.029 327.848 204.515 327.848 201.412C327.848 198.31 325.337 195.795 322.238 195.795C319.14 195.795 316.629 198.31 316.629 201.412C316.629 204.515 319.14 207.029 322.238 207.029Z" fill="#7FCD4A"/>
<path d="M321.935 201.979V201.476C321.752 201.473 321.576 201.457 321.409 201.428C321.243 201.4 321.107 201.362 321.002 201.316V200.928C321.112 200.979 321.253 201.024 321.426 201.062C321.598 201.101 321.768 201.121 321.935 201.125V200.072C321.725 200.013 321.55 199.946 321.411 199.871C321.274 199.794 321.171 199.701 321.103 199.591C321.034 199.481 321 199.348 321 199.191C321 199.029 321.038 198.89 321.115 198.775C321.193 198.659 321.302 198.568 321.442 198.502C321.583 198.437 321.747 198.399 321.935 198.39V197.976H322.227V198.385C322.398 198.39 322.553 198.409 322.694 198.443C322.834 198.474 322.964 198.516 323.084 198.567L322.959 198.899C322.851 198.856 322.733 198.82 322.607 198.789C322.481 198.759 322.355 198.738 322.227 198.727V199.773C322.441 199.835 322.619 199.901 322.763 199.971C322.908 200.042 323.017 200.128 323.091 200.232C323.164 200.336 323.201 200.47 323.201 200.634C323.201 200.867 323.115 201.055 322.945 201.199C322.774 201.341 322.535 201.427 322.227 201.457V201.979H321.935ZM322.227 201.103C322.423 201.084 322.569 201.037 322.665 200.962C322.762 200.885 322.811 200.785 322.811 200.66C322.811 200.571 322.792 200.498 322.753 200.44C322.717 200.383 322.656 200.333 322.572 200.292C322.487 200.249 322.372 200.208 322.227 200.17V201.103ZM321.935 199.672V198.737C321.816 198.745 321.715 198.767 321.634 198.804C321.552 198.84 321.491 198.888 321.449 198.947C321.41 199.006 321.39 199.077 321.39 199.158C321.39 199.252 321.407 199.331 321.442 199.395C321.479 199.457 321.537 199.51 321.617 199.555C321.698 199.598 321.804 199.637 321.935 199.672Z" fill="#FCFFFF"/>
<path d="M411.925 128.279H378.939C377.32 128.279 376.008 129.593 376.008 131.214V164.242C376.008 165.863 377.32 167.177 378.939 167.177H411.925C413.543 167.177 414.856 165.863 414.856 164.242V131.214C414.856 129.593 413.543 128.279 411.925 128.279Z" fill="#EFEFEF"/>
<path d="M410.129 172.26H381.015C380.796 172.256 380.588 172.168 380.434 172.013C380.279 171.859 380.191 171.65 380.187 171.431C380.191 171.214 380.28 171.007 380.434 170.855C380.589 170.702 380.798 170.617 381.015 170.617H410.129C410.345 170.617 410.552 170.703 410.704 170.856C410.857 171.008 410.943 171.215 410.943 171.431C410.943 171.649 410.858 171.857 410.705 172.012C410.553 172.167 410.346 172.256 410.129 172.26Z" fill="#EFEFEF"/>
<path d="M409.666 182.216H381.141C380.15 182.212 379.201 181.816 378.502 181.113C377.803 180.41 377.41 179.459 377.41 178.467C377.41 177.475 377.803 176.523 378.502 175.821C379.201 175.118 380.15 174.721 381.141 174.717H409.666C410.657 174.721 411.606 175.118 412.305 175.821C413.004 176.523 413.397 177.475 413.397 178.467C413.397 179.459 413.004 180.41 412.305 181.113C411.606 181.816 410.657 182.212 409.666 182.216Z" fill="#7FCD4A"/>
<path d="M376.471 136.578C379.569 136.578 382.081 134.063 382.081 130.961C382.081 127.859 379.569 125.344 376.471 125.344C373.373 125.344 370.861 127.859 370.861 130.961C370.861 134.063 373.373 136.578 376.471 136.578Z" fill="#7FCD4A"/>
<path d="M376.153 131.527V131.025C375.97 131.022 375.795 131.006 375.627 130.977C375.461 130.948 375.326 130.911 375.22 130.865V130.477C375.33 130.528 375.472 130.573 375.644 130.611C375.816 130.649 375.986 130.67 376.153 130.673V129.62C375.943 129.561 375.768 129.494 375.629 129.419C375.492 129.343 375.389 129.25 375.321 129.139C375.252 129.029 375.218 128.896 375.218 128.74C375.218 128.577 375.256 128.438 375.333 128.324C375.411 128.207 375.52 128.116 375.661 128.051C375.801 127.985 375.965 127.948 376.153 127.938V127.524H376.445V127.934C376.616 127.938 376.772 127.958 376.912 127.991C377.052 128.023 377.182 128.064 377.302 128.115L377.177 128.448C377.069 128.405 376.952 128.368 376.826 128.338C376.7 128.308 376.573 128.287 376.445 128.276V129.321C376.659 129.384 376.838 129.45 376.981 129.52C377.126 129.59 377.236 129.677 377.309 129.781C377.382 129.884 377.419 130.018 377.419 130.183C377.419 130.416 377.334 130.604 377.163 130.747C376.992 130.889 376.753 130.975 376.445 131.006V131.527H376.153ZM376.445 130.652C376.642 130.632 376.787 130.585 376.883 130.51C376.98 130.434 377.029 130.333 377.029 130.209C377.029 130.12 377.01 130.046 376.972 129.989C376.935 129.931 376.874 129.882 376.79 129.841C376.705 129.797 376.59 129.757 376.445 129.718V130.652ZM376.153 129.221V128.285C376.034 128.293 375.933 128.316 375.852 128.352C375.771 128.389 375.709 128.437 375.668 128.496C375.628 128.555 375.608 128.625 375.608 128.706C375.608 128.801 375.625 128.879 375.661 128.943C375.697 129.006 375.755 129.059 375.835 129.104C375.917 129.147 376.023 129.186 376.153 129.221Z" fill="#FCFFFF"/>
<path d="M411.925 198.716H378.939C377.32 198.716 376.008 200.03 376.008 201.651V234.679C376.008 236.3 377.32 237.614 378.939 237.614H411.925C413.543 237.614 414.856 236.3 414.856 234.679V201.651C414.856 200.03 413.543 198.716 411.925 198.716Z" fill="#EFEFEF"/>
<path d="M410.129 242.697H381.015C380.798 242.697 380.589 242.612 380.434 242.46C380.28 242.307 380.191 242.1 380.187 241.883C380.191 241.666 380.28 241.459 380.434 241.306C380.589 241.154 380.798 241.068 381.015 241.069H410.129C410.345 241.069 410.552 241.154 410.704 241.307C410.857 241.46 410.943 241.667 410.943 241.883C410.943 242.099 410.857 242.306 410.704 242.459C410.552 242.612 410.345 242.697 410.129 242.697Z" fill="#EFEFEF"/>
<path d="M409.666 252.654H381.141C380.153 252.65 379.206 252.255 378.507 251.556C377.808 250.856 377.414 249.908 377.41 248.918C377.41 247.926 377.803 246.975 378.502 246.272C379.201 245.569 380.15 245.173 381.141 245.169H409.666C410.657 245.173 411.606 245.569 412.305 246.272C413.004 246.975 413.397 247.926 413.397 248.918C413.393 249.908 412.999 250.856 412.3 251.556C411.601 252.255 410.655 252.65 409.666 252.654Z" fill="#7FCD4A"/>
<path d="M376.471 207.029C379.569 207.029 382.081 204.515 382.081 201.412C382.081 198.31 379.569 195.795 376.471 195.795C373.373 195.795 370.861 198.31 370.861 201.412C370.861 204.515 373.373 207.029 376.471 207.029Z" fill="#7FCD4A"/>
<path d="M376.153 201.979V201.476C375.97 201.473 375.795 201.457 375.627 201.428C375.461 201.4 375.326 201.362 375.22 201.316V200.928C375.33 200.979 375.472 201.024 375.644 201.062C375.816 201.101 375.986 201.121 376.153 201.125V200.072C375.943 200.013 375.768 199.946 375.629 199.871C375.492 199.794 375.389 199.701 375.321 199.591C375.252 199.481 375.218 199.348 375.218 199.191C375.218 199.029 375.256 198.89 375.333 198.775C375.411 198.659 375.52 198.568 375.661 198.502C375.801 198.437 375.965 198.399 376.153 198.39V197.976H376.445V198.385C376.616 198.39 376.772 198.409 376.912 198.443C377.052 198.474 377.182 198.516 377.302 198.567L377.177 198.899C377.069 198.856 376.952 198.82 376.826 198.789C376.7 198.759 376.573 198.738 376.445 198.727V199.773C376.659 199.835 376.838 199.901 376.981 199.971C377.126 200.042 377.236 200.128 377.309 200.232C377.382 200.336 377.419 200.47 377.419 200.634C377.419 200.867 377.334 201.055 377.163 201.199C376.992 201.341 376.753 201.427 376.445 201.457V201.979H376.153ZM376.445 201.103C376.642 201.084 376.787 201.037 376.883 200.962C376.98 200.885 377.029 200.785 377.029 200.66C377.029 200.571 377.01 200.498 376.972 200.44C376.935 200.383 376.874 200.333 376.79 200.292C376.705 200.249 376.59 200.208 376.445 200.17V201.103ZM376.153 199.672V198.737C376.034 198.745 375.933 198.767 375.852 198.804C375.771 198.84 375.709 198.888 375.668 198.947C375.628 199.006 375.608 199.077 375.608 199.158C375.608 199.252 375.625 199.331 375.661 199.395C375.697 199.457 375.755 199.51 375.835 199.555C375.917 199.598 376.023 199.637 376.153 199.672Z" fill="#FCFFFF"/>
<path d="M329.279 370.148H231.108C229.435 370.144 227.832 369.477 226.65 368.293C225.467 367.109 224.801 365.503 224.797 363.829C224.801 362.154 225.467 360.549 226.65 359.364C227.832 358.18 229.435 357.513 231.108 357.509H329.279C330.951 357.513 332.554 358.18 333.737 359.364C334.92 360.549 335.586 362.154 335.59 363.829C335.586 365.503 334.92 367.109 333.737 368.293C332.554 369.477 330.951 370.144 329.279 370.148Z" fill="#B4B4B4"/>
<path opacity="0.3" d="M280.193 313.977C286.002 313.977 290.712 309.262 290.712 303.446C290.712 297.629 286.002 292.914 280.193 292.914C274.384 292.914 269.675 297.629 269.675 303.446C269.675 309.262 274.384 313.977 280.193 313.977Z" fill="#FFFFFD"/>
<path d="M133.849 104.041L87.3721 149.062L459.369 149.511L428.361 104.041H133.849Z" fill="#4DAE18"/>
<path d="M115.519 149.581L152.417 103.058L174.183 103.803L144.157 149.581H115.519Z" fill="white"/>
<path d="M172.584 149.581L194.182 101.542L215.709 103.044L201.208 149.581H172.584Z" fill="white"/>
<path d="M230.645 149.581L241.739 102.047L262.761 102.539L259.269 149.581H230.645Z" fill="white"/>
<path d="M316.559 149.076L305.465 101.542L284.443 102.047L287.935 149.076H316.559Z" fill="white"/>
<path d="M430.437 149.076L398.391 102.047L376.878 101.542L401.799 149.076H430.437Z" fill="white"/>
<path d="M373.372 149.076L351.774 101.036L330.247 102.539L344.734 149.076H373.372Z" fill="white"/>
<path d="M116.164 149.062C116.164 152.883 114.648 156.547 111.95 159.249C109.251 161.951 105.591 163.469 101.775 163.469C97.9588 163.469 94.2989 161.951 91.6005 159.249C88.902 156.547 87.386 152.883 87.386 149.062H116.164Z" fill="#3D8813"/>
<path d="M144.802 149.062C144.685 152.807 143.117 156.359 140.43 158.967C137.743 161.575 134.148 163.033 130.406 163.033C126.664 163.033 123.068 161.575 120.381 158.967C117.694 156.359 116.127 152.807 116.01 149.062H144.802Z" fill="#E4E4E4"/>
<path d="M173.426 149.062C173.426 152.883 171.91 156.547 169.211 159.249C166.513 161.951 162.853 163.469 159.037 163.469C155.22 163.469 151.561 161.951 148.862 159.249C146.164 156.547 144.648 152.883 144.648 149.062H173.426Z" fill="#3D8813"/>
<path d="M202.064 149.062C201.947 152.807 200.379 156.359 197.692 158.967C195.005 161.575 191.41 163.033 187.668 163.033C183.925 163.033 180.33 161.575 177.643 158.967C174.956 156.359 173.388 152.807 173.271 149.062H202.064Z" fill="#E4E4E4"/>
<path d="M230.687 149.062C230.687 152.883 229.171 156.547 226.473 159.249C223.774 161.951 220.114 163.469 216.298 163.469C212.482 163.469 208.822 161.951 206.124 159.249C203.425 156.547 201.909 152.883 201.909 149.062H230.687Z" fill="#3D8813"/>
<path d="M259.325 149.062C259.208 152.807 257.64 156.359 254.953 158.967C252.266 161.575 248.671 163.033 244.929 163.033C241.187 163.033 237.592 161.575 234.905 158.967C232.218 156.359 230.65 152.807 230.533 149.062H259.325Z" fill="#E4E4E4"/>
<path d="M287.949 149.062C287.949 150.954 287.577 152.827 286.853 154.575C286.13 156.323 285.07 157.912 283.734 159.249C282.398 160.587 280.812 161.649 279.066 162.373C277.32 163.097 275.449 163.469 273.56 163.469C271.67 163.469 269.799 163.097 268.053 162.373C266.307 161.649 264.721 160.587 263.385 159.249C262.049 157.912 260.989 156.323 260.266 154.575C259.543 152.827 259.171 150.954 259.171 149.062H287.949Z" fill="#3D8813"/>
<path d="M316.587 149.062C316.47 152.807 314.902 156.359 312.215 158.967C309.528 161.575 305.933 163.033 302.191 163.033C298.449 163.033 294.853 161.575 292.166 158.967C289.479 156.359 287.911 152.807 287.795 149.062H316.587Z" fill="#E4E4E4"/>
<path d="M345.224 149.062C345.108 152.807 343.54 156.359 340.853 158.967C338.166 161.575 334.571 163.033 330.828 163.033C327.086 163.033 323.491 161.575 320.804 158.967C318.117 156.359 316.549 152.807 316.432 149.062H345.224Z" fill="#3D8813"/>
<path d="M373.848 149.062C373.732 152.807 372.164 156.359 369.477 158.967C366.79 161.575 363.194 163.033 359.452 163.033C355.71 163.033 352.115 161.575 349.428 158.967C346.741 156.359 345.173 152.807 345.056 149.062H373.848Z" fill="#E4E4E4"/>
<path d="M402.121 149.511C402.005 153.256 400.437 156.809 397.75 159.417C395.063 162.024 391.467 163.483 387.725 163.483C383.983 163.483 380.388 162.024 377.701 159.417C375.014 156.809 373.446 153.256 373.329 149.511H402.121Z" fill="#3D8813"/>
<path d="M430.745 149.511C430.745 153.332 429.229 156.997 426.531 159.699C423.832 162.401 420.172 163.919 416.356 163.919C412.54 163.919 408.88 162.401 406.181 159.699C403.483 156.997 401.967 153.332 401.967 149.511H430.745Z" fill="#E4E4E4"/>
<path d="M459.383 149.511C459.266 153.256 457.698 156.809 455.011 159.417C452.324 162.024 448.729 163.483 444.987 163.483C441.245 163.483 437.65 162.024 434.962 159.417C432.275 156.809 430.708 153.256 430.591 149.511H459.383Z" fill="#3D8813"/>
<path d="M109.53 377.071C114.759 377.071 118.997 372.827 118.997 367.592C118.997 362.357 114.759 358.113 109.53 358.113C104.302 358.113 100.064 362.357 100.064 367.592C100.064 372.827 104.302 377.071 109.53 377.071Z" fill="#232323"/>
<path d="M115.813 367.592C115.813 368.84 115.444 370.059 114.751 371.096C114.059 372.134 113.074 372.942 111.923 373.418C110.771 373.895 109.505 374.019 108.283 373.775C107.061 373.53 105.939 372.929 105.059 372.045C104.179 371.162 103.58 370.037 103.339 368.813C103.097 367.589 103.224 366.321 103.703 365.169C104.182 364.017 104.991 363.034 106.028 362.343C107.066 361.652 108.284 361.284 109.53 361.287C110.357 361.287 111.175 361.45 111.938 361.767C112.701 362.084 113.395 362.549 113.978 363.134C114.562 363.72 115.024 364.415 115.339 365.18C115.654 365.945 115.815 366.765 115.813 367.592Z" fill="white"/>
<path d="M177.184 378.461C182.412 378.461 186.651 374.217 186.651 368.982C186.651 363.747 182.412 359.503 177.184 359.503C171.956 359.503 167.718 363.747 167.718 368.982C167.718 374.217 171.956 378.461 177.184 378.461Z" fill="#232323"/>
<path d="M85.5488 253.201L215.611 251.994L201.166 325.563L101.579 326.868L85.5488 253.201Z" stroke="#232323" stroke-width="2.58" stroke-miterlimit="10"/>
<path d="M190.325 359.321C190.323 359.559 190.275 359.794 190.182 360.013C190.089 360.232 189.955 360.431 189.785 360.598C189.616 360.765 189.415 360.896 189.195 360.986C188.975 361.075 188.739 361.12 188.502 361.118L91.1165 360.514L90.9763 358.871C90.4764 355.012 91.3096 351.097 93.3376 347.776C95.3656 344.456 98.4664 341.929 102.126 340.616C99.8116 329.452 85.7592 261.865 81.3836 242.108C79.5604 233.949 74.1049 229.02 65.1293 227.616C60.6257 226.944 56.0415 227.034 51.5677 227.883L50.7964 224.358C55.682 223.395 60.6973 223.285 65.6202 224.035C76.0683 225.748 82.7159 231.744 84.8616 241.405C89.6299 262.877 105.786 340.743 105.898 341.515L106.263 343.242L104.552 343.649C104.145 343.748 95.4641 345.994 94.5104 355.263C94.489 355.479 94.5128 355.698 94.5804 355.905C94.6479 356.112 94.7577 356.303 94.9027 356.466C95.0478 356.628 95.2249 356.758 95.4229 356.849C95.6209 356.939 95.8355 356.987 96.0531 356.99L188.446 357.551C188.924 357.559 189.381 357.754 189.717 358.096C190.053 358.438 190.241 358.898 190.241 359.377L190.325 359.321Z" fill="#232323"/>
<g opacity="0.12">
<path opacity="0.12" d="M103.177 339.956C100.863 328.792 86.811 261.206 82.4354 241.448C80.6122 233.261 75.1567 228.36 66.2232 226.871C61.7196 226.2 57.1353 226.29 52.6616 227.138L52.1287 224.723C51.161 224.863 50.5579 225.004 50.4878 225.018L51.2591 228.543C55.7329 227.694 60.3171 227.604 64.8207 228.276C73.7543 229.764 79.2097 234.665 81.0329 242.852C85.3244 262.231 98.914 327.627 101.621 340.644C102.196 340.349 102.715 340.125 103.177 339.956Z" fill="white"/>
<path opacity="0.12" d="M98.6055 347.371C100.253 345.944 102.191 344.894 104.285 344.295L105.996 343.888L105.772 342.863H105.688C102.942 343.65 100.483 345.216 98.6055 347.371Z" fill="white"/>
<path opacity="0.12" d="M92.1682 359.812L92.0279 358.169C91.7214 355.799 91.9178 353.391 92.6041 351.102C93.2904 348.813 94.4513 346.694 96.0109 344.885C92.8414 347.694 89.9944 352.314 90.6255 359.574L90.7658 361.217L189.96 361.834V360.43L92.1682 359.812Z" fill="white"/>
</g>
<path d="M107.427 253.145L118.506 326.911" stroke="#232323" stroke-width="2.58" stroke-miterlimit="10"/>
<path d="M127.987 253.145L136.878 326.405" stroke="#232323" stroke-width="2.58" stroke-miterlimit="10"/>
<path d="M193.705 251.39L181.434 326.461" stroke="#232323" stroke-width="2.58" stroke-miterlimit="10"/>
<path d="M170.999 253.145L163.987 326.644" stroke="#232323" stroke-width="2.58" stroke-miterlimit="10"/>
<path d="M89.1531 272.187H212.456" stroke="#232323" stroke-width="2.58" stroke-miterlimit="10"/>
<path d="M94.1318 293.897L206.579 294.346" stroke="#232323" stroke-width="2.58" stroke-miterlimit="10"/>
<path d="M150.426 252.682V327.107" stroke="#232323" stroke-width="2.58" stroke-miterlimit="10"/>
<path d="M61.4971 228.922H46.7715C45.8416 228.922 44.9498 228.552 44.2923 227.893C43.6348 227.235 43.2654 226.342 43.2654 225.411C43.2691 224.481 43.6396 223.59 44.2964 222.933C44.9531 222.275 45.8427 221.904 46.7715 221.9H61.4971C62.4258 221.904 63.3155 222.275 63.9722 222.933C64.6289 223.59 64.9995 224.481 65.0032 225.411C64.9995 226.341 64.6289 227.232 63.9722 227.889C63.3155 228.547 62.4258 228.918 61.4971 228.922Z" fill="#3D8813"/>
<path opacity="0.2" d="M112.462 367.592C112.462 368.172 112.29 368.74 111.968 369.223C111.645 369.705 111.188 370.081 110.652 370.303C110.117 370.526 109.527 370.584 108.959 370.47C108.39 370.357 107.868 370.078 107.458 369.667C107.048 369.257 106.769 368.734 106.656 368.165C106.543 367.595 106.601 367.005 106.822 366.469C107.044 365.933 107.42 365.474 107.902 365.152C108.384 364.829 108.951 364.657 109.53 364.657C110.308 364.657 111.053 364.966 111.603 365.517C112.153 366.067 112.462 366.814 112.462 367.592Z" fill="#232323"/>
<path d="M183.481 368.982C183.481 370.23 183.111 371.449 182.419 372.487C181.726 373.524 180.742 374.332 179.591 374.809C178.439 375.285 177.172 375.41 175.951 375.165C174.729 374.921 173.607 374.319 172.727 373.436C171.847 372.552 171.248 371.428 171.006 370.204C170.765 368.98 170.892 367.711 171.371 366.56C171.849 365.408 172.659 364.424 173.696 363.733C174.733 363.042 175.952 362.674 177.198 362.677C178.024 362.677 178.843 362.84 179.606 363.157C180.369 363.474 181.062 363.939 181.646 364.525C182.229 365.11 182.692 365.806 183.007 366.57C183.322 367.335 183.483 368.155 183.481 368.982Z" fill="white"/>
<path opacity="0.2" d="M180.129 368.982C180.126 369.562 179.952 370.128 179.628 370.609C179.305 371.09 178.846 371.464 178.31 371.684C177.774 371.904 177.185 371.96 176.618 371.845C176.05 371.73 175.529 371.449 175.121 371.038C174.712 370.627 174.434 370.105 174.322 369.536C174.21 368.967 174.269 368.377 174.492 367.842C174.714 367.306 175.089 366.849 175.571 366.527C176.053 366.205 176.619 366.033 177.198 366.033C177.977 366.037 178.722 366.349 179.272 366.902C179.821 367.455 180.129 368.203 180.129 368.982Z" fill="#232323"/>
<path d="M8.80734 134.668C8.89933 133.852 9.25323 133.089 9.81585 132.492C10.3785 131.894 11.1195 131.496 11.9274 131.357C12.7353 131.218 13.5666 131.345 14.2963 131.719C15.0259 132.093 15.6146 132.694 15.9738 133.432C16.5298 132.832 17.2643 132.427 18.0684 132.278C18.8724 132.129 19.7031 132.243 20.437 132.604C21.1708 132.966 21.7688 133.554 22.1421 134.282C22.5155 135.011 22.6441 135.841 22.5092 136.648C23.3122 136.485 24.1465 136.588 24.8865 136.94C25.6266 137.292 26.2325 137.875 26.6134 138.602C26.9944 139.328 27.1296 140.159 26.999 140.968C26.8684 141.778 26.4789 142.524 25.889 143.094C26.6342 143.434 27.2492 144.006 27.6418 144.726C28.0344 145.446 28.1833 146.273 28.0664 147.085C27.9495 147.897 27.573 148.648 26.9933 149.228C26.4136 149.807 25.662 150.182 24.8512 150.297C25.2557 151.011 25.4183 151.836 25.3145 152.65C25.2107 153.463 24.8463 154.221 24.2758 154.81C23.7053 155.399 22.9596 155.786 22.1505 155.914C21.3414 156.043 20.5126 155.905 19.7885 155.521C19.6913 156.335 19.3342 157.096 18.7702 157.691C18.2062 158.285 17.4655 158.682 16.6584 158.82C15.8514 158.959 15.0211 158.834 14.2913 158.462C13.5614 158.09 12.971 157.492 12.6079 156.757C12.0546 157.362 11.3204 157.77 10.5154 157.922C9.71052 158.073 8.87826 157.959 8.14352 157.597C7.40878 157.234 6.81115 156.643 6.44029 155.912C6.06944 155.181 5.94533 154.349 6.0866 153.541C5.28532 153.697 4.45515 153.591 3.71896 153.238C2.98277 152.885 2.3797 152.304 1.99899 151.581C1.61828 150.858 1.48017 150.031 1.60511 149.223C1.73005 148.416 2.11141 147.67 2.69272 147.096C1.94755 146.756 1.33254 146.183 0.939973 145.463C0.547404 144.744 0.398445 143.916 0.515363 143.104C0.632282 142.293 1.00878 141.541 1.58846 140.962C2.16814 140.383 2.91974 140.007 3.73051 139.892C3.33375 139.177 3.17771 138.353 3.28553 137.542C3.39335 136.731 3.75929 135.976 4.3291 135.39C4.89891 134.804 5.64224 134.417 6.44889 134.287C7.25555 134.157 8.08256 134.29 8.80734 134.668Z" fill="#FCAF15"/>
<path opacity="0.12" d="M27.3477 143.655C27.9641 143.051 28.3694 142.263 28.5033 141.41C28.6373 140.556 28.4927 139.682 28.0911 138.917C27.6896 138.152 27.0524 137.538 26.2742 137.164C25.496 136.791 24.6184 136.679 23.7715 136.845C23.9053 136.061 23.8035 135.254 23.479 134.528C23.1546 133.802 22.6221 133.189 21.9491 132.766C21.276 132.343 20.4928 132.13 19.6987 132.154C18.9046 132.178 18.1353 132.437 17.4885 132.899C18.3035 132.853 19.1129 133.057 19.8088 133.484C20.5048 133.911 21.054 134.541 21.3833 135.289C21.7125 136.036 21.806 136.867 21.6514 137.67C21.4967 138.472 21.1013 139.208 20.5178 139.78C21.3074 140.137 21.9598 140.741 22.3765 141.502C22.7933 142.262 22.9519 143.138 22.8285 143.997C22.7051 144.856 22.3063 145.651 21.6922 146.263C21.0782 146.875 20.2821 147.271 19.4239 147.391C19.8485 148.147 20.0173 149.02 19.9048 149.88C19.7924 150.74 19.4049 151.541 18.8003 152.162C18.1956 152.783 17.4064 153.192 16.5506 153.327C15.6947 153.461 14.8184 153.315 14.0525 152.909C13.9512 153.768 13.5757 154.571 12.982 155.199C12.3883 155.827 11.608 156.246 10.7571 156.395C9.90632 156.543 9.03042 156.412 8.25969 156.022C7.48896 155.632 6.86458 155.003 6.47938 154.229C6.29418 154.43 6.0872 154.609 5.8623 154.763H6.42331C6.27859 155.616 6.41298 156.493 6.80654 157.264C7.20009 158.035 7.83174 158.657 8.60735 159.039C9.38296 159.421 10.261 159.542 11.1108 159.384C11.9606 159.226 12.7366 158.797 13.3233 158.161C13.7085 158.935 14.3329 159.564 15.1036 159.954C15.8743 160.344 16.7502 160.475 17.6011 160.327C18.4519 160.178 19.2322 159.759 19.8259 159.131C20.4197 158.503 20.7951 157.7 20.8965 156.841C21.6619 157.241 22.5358 157.383 23.3883 157.246C24.2407 157.109 25.0262 156.7 25.6279 156.08C26.2297 155.46 26.6157 154.662 26.7284 153.805C26.8412 152.948 26.6747 152.077 26.2538 151.323C27.1325 151.222 27.9533 150.833 28.5875 150.216C29.2218 149.599 29.6337 148.789 29.7588 147.912C29.8838 147.035 29.715 146.142 29.2787 145.372C28.8424 144.601 28.1633 143.998 27.3477 143.655Z" fill="white"/>
<path d="M9.28607 146.854L12.7534 138.707L13.3628 138.591L9.89545 146.738L9.28607 146.854ZM9.16147 143.4C8.83785 143.462 8.536 143.437 8.25592 143.326C7.97445 143.208 7.73476 143.015 7.53686 142.746C7.34585 142.475 7.21045 142.144 7.13067 141.753C7.05089 141.361 7.04632 141.006 7.11696 140.686C7.19449 140.364 7.3411 140.101 7.55679 139.896C7.77108 139.684 8.04004 139.547 8.36366 139.486C8.68728 139.425 8.98639 139.454 9.26098 139.573C9.54105 139.684 9.78004 139.874 9.97794 140.143C10.1758 140.412 10.3147 140.742 10.3945 141.134C10.4742 141.525 10.4754 141.881 10.3978 142.203C10.3203 142.524 10.1744 142.791 9.96011 143.003C9.75131 143.206 9.48509 143.339 9.16147 143.4ZM9.06699 142.937C9.40439 142.873 9.64633 142.691 9.79283 142.393C9.94481 142.086 9.97321 141.699 9.87803 141.232C9.78286 140.765 9.60539 140.42 9.34563 140.198C9.09136 139.969 8.79553 139.886 8.45814 139.95C8.11386 140.015 7.86917 140.2 7.72407 140.506C7.57758 140.805 7.55192 141.188 7.6471 141.655C7.74227 142.122 7.917 142.47 8.17127 142.7C8.42414 142.923 8.72271 143.002 9.06699 142.937ZM14.2852 145.959C13.9685 146.019 13.6701 145.994 13.39 145.883C13.1085 145.765 12.8688 145.572 12.6709 145.302C12.473 145.033 12.3342 144.703 12.2544 144.311C12.1746 143.92 12.1735 143.564 12.251 143.242C12.3285 142.921 12.4752 142.658 12.6908 142.453C12.9051 142.241 13.1706 142.105 13.4874 142.045C13.8179 141.982 14.1204 142.01 14.395 142.129C14.6751 142.24 14.9107 142.431 15.1017 142.701C15.2996 142.971 15.4384 143.301 15.5182 143.692C15.598 144.084 15.5991 144.44 15.5216 144.762C15.4509 145.082 15.3085 145.348 15.0942 145.559C14.8854 145.763 14.6157 145.896 14.2852 145.959ZM14.1907 145.496C14.5281 145.431 14.7701 145.25 14.9166 144.951C15.0685 144.644 15.0969 144.257 15.0018 143.79C14.9066 143.323 14.7291 142.979 14.4694 142.757C14.2151 142.527 13.9193 142.444 13.5819 142.508C13.2445 142.572 12.9998 142.758 12.8478 143.065C12.7013 143.364 12.6756 143.747 12.7708 144.214C12.866 144.68 13.0407 145.029 13.295 145.259C13.5547 145.481 13.8533 145.56 14.1907 145.496Z" fill="white"/>
<path d="M28.077 187.946C27.5645 187.963 27.0641 187.788 26.6745 187.454C26.2474 187.096 25.9796 186.583 25.9296 186.028C25.8797 185.472 26.0518 184.92 26.4081 184.491L37.9782 170.561C38.3353 170.131 38.8484 169.86 39.4046 169.809C39.9609 169.757 40.5148 169.929 40.9444 170.287C41.374 170.645 41.6441 171.158 41.6954 171.715C41.7467 172.272 41.5749 172.827 41.2179 173.257L29.6477 187.187C29.4553 187.419 29.2155 187.606 28.9445 187.737C28.6736 187.868 28.3777 187.939 28.077 187.946Z" fill="white"/>
<path opacity="0.03" d="M45.9299 176.796C43.2948 176.796 40.7189 176.013 38.5279 174.547C36.3369 173.082 34.6292 170.998 33.6208 168.56C32.6124 166.123 32.3486 163.441 32.8627 160.853C33.3768 158.265 34.6457 155.888 36.509 154.022C38.3722 152.157 40.7462 150.886 43.3306 150.371C45.9151 149.856 48.5939 150.121 51.0284 151.13C53.4629 152.14 55.5437 153.85 57.0077 156.044C58.4716 158.238 59.253 160.817 59.253 163.455C59.2493 166.992 57.8444 170.383 55.3467 172.884C52.8489 175.385 49.4622 176.792 45.9299 176.796ZM45.9299 154.328C44.1269 154.328 42.3644 154.863 40.8654 155.866C39.3663 156.869 38.1979 158.294 37.5079 159.962C36.8179 161.63 36.6374 163.465 36.9892 165.236C37.3409 167.007 38.2091 168.633 39.484 169.91C40.7588 171.186 42.3831 172.055 44.1514 172.408C45.9197 172.76 47.7527 172.579 49.4184 171.888C51.0841 171.197 52.5077 170.027 53.5094 168.526C54.5111 167.025 55.0457 165.261 55.0457 163.455C55.042 161.036 54.0804 158.716 52.3716 157.005C50.6629 155.294 48.3464 154.331 45.9299 154.328Z" fill="#232323"/>
<path d="M36.9965 181.191L31.6672 187.3C31.0006 188.052 30.0654 188.512 29.0632 188.58C28.061 188.648 27.0722 188.32 26.3099 187.665C25.5573 186.997 25.0982 186.059 25.0326 185.055C24.9669 184.05 25.3 183.06 25.9593 182.3L31.3026 176.192L36.9965 181.191Z" fill="white"/>
<path opacity="0.03" d="M36.5335 179.59L31.036 185.867C30.652 186.305 30.1857 186.663 29.6635 186.921C29.1414 187.178 28.5737 187.33 27.9928 187.368C27.412 187.406 26.8294 187.329 26.2783 187.141C25.7273 186.954 25.2185 186.659 24.7811 186.274C24.4834 186.007 24.2239 185.7 24.0098 185.362C24.081 186.554 24.6204 187.67 25.5104 188.465C26.3971 189.236 27.5526 189.625 28.7246 189.546C29.8966 189.467 30.9897 188.927 31.7653 188.044L38.0202 180.896L36.5335 179.59Z" fill="#010102"/>
<path d="M46.5471 176.009C43.912 176.009 41.3361 175.227 39.1451 173.761C36.9541 172.295 35.2465 170.212 34.2381 167.774C33.2297 165.336 32.9658 162.654 33.4799 160.066C33.994 157.479 35.2629 155.102 37.1261 153.236C38.9894 151.37 41.3634 150.1 43.9478 149.585C46.5323 149.07 49.2111 149.334 51.6456 150.344C54.0801 151.354 56.1609 153.064 57.6249 155.257C59.0888 157.451 59.8702 160.03 59.8702 162.669C59.8665 166.206 58.4617 169.597 55.9639 172.098C53.4661 174.599 50.0795 176.006 46.5471 176.009ZM46.5471 153.541C44.7441 153.541 42.9817 154.077 41.4826 155.08C39.9835 156.083 38.8151 157.508 38.1251 159.176C37.4352 160.844 37.2547 162.679 37.6064 164.45C37.9581 166.22 38.8263 167.847 40.1012 169.123C41.3761 170.4 43.0003 171.269 44.7686 171.621C46.5369 171.973 48.3699 171.793 50.0356 171.102C51.7013 170.411 53.1249 169.241 54.1266 167.74C55.1283 166.239 55.6629 164.474 55.6629 162.669C55.6592 160.249 54.6976 157.93 52.9888 156.219C51.2801 154.508 48.9636 153.545 46.5471 153.541Z" fill="white"/>
<g opacity="0.04">
<path opacity="0.04" d="M35.5659 162.206C35.6029 164.187 36.2781 166.104 37.4911 167.67C38.7041 169.237 40.39 170.369 42.2976 170.898C40.8096 170.156 39.5548 169.018 38.6714 167.608C37.788 166.198 37.3103 164.572 37.2909 162.908C37.3606 160.421 38.4127 158.063 40.2163 156.352C42.0199 154.641 44.4278 153.716 46.9116 153.78C47.8949 153.774 48.8735 153.916 49.8147 154.201C48.385 153.459 46.7972 153.073 45.1866 153.078C42.7028 153.014 40.2949 153.939 38.4913 155.65C36.6877 157.361 35.6357 159.719 35.5659 162.206Z" fill="#232323"/>
<path opacity="0.04" d="M51.5817 150.382C53.8492 151.432 55.7732 153.104 57.1309 155.204C58.4885 157.304 59.2243 159.746 59.2531 162.248C59.1466 165.874 57.6127 169.312 54.9856 171.811C52.3585 174.31 48.8514 175.667 45.2287 175.588C43.6405 175.585 42.0633 175.324 40.5586 174.816C42.5581 175.758 44.7438 176.238 46.9537 176.22C50.5754 176.296 54.0804 174.937 56.7066 172.439C59.3329 169.94 60.868 166.505 60.9781 162.88C60.9148 160.074 59.9741 157.359 58.2884 155.117C56.6027 152.875 54.257 151.219 51.5817 150.382Z" fill="#232323"/>
</g>
<path d="M387.171 319.538L398.391 369.46C398.522 370.057 398.482 370.68 398.277 371.256C398.071 371.832 397.707 372.339 397.227 372.717L387.48 380.357L387.171 319.538Z" fill="#FCAF15"/>
<path d="M381.225 328.104L338.549 328.329C337.895 328.333 337.247 328.207 336.642 327.96C336.036 327.713 335.485 327.349 335.02 326.889C334.555 326.428 334.185 325.881 333.932 325.278C333.678 324.674 333.546 324.027 333.542 323.372C333.539 322.052 334.058 320.785 334.986 319.848C335.914 318.911 337.175 318.38 338.493 318.373L381.169 318.148C381.823 318.144 382.471 318.27 383.076 318.517C383.682 318.764 384.233 319.128 384.698 319.588C385.163 320.049 385.533 320.596 385.786 321.2C386.04 321.803 386.172 322.45 386.176 323.105C386.179 323.759 386.054 324.407 385.807 325.013C385.56 325.618 385.196 326.169 384.737 326.633C384.277 327.098 383.73 327.467 383.127 327.719C382.525 327.972 381.878 328.102 381.225 328.104Z" fill="#FF7C10"/>
<path d="M385.362 380.581L333.921 379.963C333.138 379.945 332.367 379.767 331.654 379.44C330.942 379.112 330.304 378.644 329.779 378.061C329.254 377.479 328.853 376.796 328.601 376.053C328.349 375.311 328.25 374.525 328.311 373.743L332.448 321.139C332.487 320.606 332.725 320.108 333.115 319.743C333.505 319.379 334.018 319.175 334.552 319.173L385.489 319.061C386.029 319.06 386.549 319.266 386.943 319.637C387.337 320.007 387.574 320.515 387.606 321.055L391.253 374.417C391.307 375.218 391.195 376.021 390.922 376.776C390.649 377.531 390.221 378.221 389.667 378.801C389.113 379.381 388.443 379.839 387.702 380.146C386.961 380.452 386.164 380.601 385.362 380.581Z" fill="#FF9F43"/>
<g opacity="0.3">
<path opacity="0.4" d="M390.397 319.819C393.945 319.3 383.118 314.567 380.58 314.553H380.412C380.13 314.552 379.85 314.61 379.592 314.723C379.334 314.837 379.103 315.004 378.914 315.214C378.724 315.423 378.581 315.67 378.494 315.939C378.406 316.207 378.377 316.491 378.406 316.772L378.673 319.58C379.377 327.03 378.509 334.544 376.125 341.635C373.741 348.727 369.894 355.237 364.834 360.743C359.774 366.249 353.614 370.628 346.754 373.596C339.894 376.564 332.488 378.054 325.015 377.969C324.52 377.962 324.04 378.136 323.665 378.46C323.29 378.783 323.047 379.233 322.982 379.725C322.891 380.429 322.95 381.146 323.154 381.826C323.359 382.506 323.705 383.136 324.17 383.673C324.635 384.21 325.208 384.642 325.852 384.942C326.495 385.242 327.195 385.402 327.904 385.412L386.372 386.114C387.078 386.121 387.778 385.979 388.426 385.699C389.074 385.418 389.656 385.004 390.135 384.484C390.613 383.964 390.977 383.349 391.204 382.679C391.43 382.009 391.514 381.299 391.449 380.595L390.397 319.819Z" fill="white"/>
</g>
<path d="M347.805 329.143C347.37 315.101 346.823 302.35 360.006 302.364C372.628 302.364 373.834 314.104 373.315 329.312" stroke="#212121" stroke-width="0.95" stroke-linecap="round" stroke-linejoin="round"/>
<path d="M349.586 330.983C349.581 331.341 349.469 331.69 349.266 331.984C349.062 332.279 348.776 332.507 348.443 332.639C348.111 332.771 347.746 332.801 347.397 332.726C347.047 332.65 346.727 332.473 346.478 332.216C346.229 331.958 346.062 331.633 345.998 331.281C345.933 330.928 345.975 330.565 346.117 330.236C346.259 329.907 346.495 329.628 346.795 329.433C347.096 329.239 347.447 329.138 347.805 329.143C348.043 329.145 348.279 329.194 348.497 329.288C348.716 329.382 348.915 329.518 349.08 329.69C349.246 329.861 349.376 330.063 349.463 330.285C349.55 330.507 349.592 330.745 349.586 330.983Z" fill="#FF7C10"/>
<path d="M375.068 331.151C375.066 331.389 375.018 331.623 374.925 331.842C374.832 332.06 374.697 332.258 374.528 332.423C374.358 332.589 374.158 332.72 373.937 332.808C373.717 332.895 373.482 332.939 373.245 332.935C372.887 332.932 372.537 332.823 372.241 332.621C371.945 332.419 371.715 332.133 371.581 331.8C371.447 331.467 371.415 331.102 371.489 330.751C371.563 330.4 371.739 330.078 371.995 329.828C372.252 329.577 372.576 329.408 372.929 329.342C373.281 329.277 373.645 329.318 373.974 329.459C374.304 329.601 374.583 329.838 374.778 330.139C374.973 330.44 375.074 330.793 375.068 331.151Z" fill="#FF7C10"/>
<path d="M428.179 304.302L442.75 366.3C442.926 367.04 442.887 367.815 442.638 368.533C442.39 369.252 441.942 369.885 441.348 370.358L429.315 380.005L428.179 304.302Z" fill="#FCAF15"/>
<path d="M420.872 315.045L367.748 315.901C366.933 315.914 366.125 315.767 365.368 315.467C364.611 315.167 363.92 314.72 363.335 314.153C362.751 313.586 362.283 312.909 361.96 312.161C361.636 311.412 361.463 310.608 361.451 309.793C361.428 308.149 362.058 306.563 363.202 305.384C364.345 304.205 365.91 303.528 367.551 303.502L420.676 302.645C421.49 302.632 422.298 302.78 423.055 303.08C423.812 303.38 424.503 303.826 425.088 304.393C425.673 304.961 426.14 305.638 426.463 306.386C426.787 307.134 426.96 307.938 426.973 308.754C426.995 310.397 426.365 311.983 425.222 313.162C424.078 314.342 422.514 315.019 420.872 315.045Z" fill="#FCAF15"/>
<path d="M426.734 380.314L362.685 380.244C361.701 380.243 360.729 380.039 359.827 379.646C358.926 379.252 358.115 378.678 357.444 377.957C356.774 377.237 356.258 376.387 355.929 375.459C355.6 374.531 355.465 373.545 355.532 372.563L359.978 307.026C360.017 306.362 360.307 305.737 360.789 305.278C361.27 304.819 361.908 304.561 362.573 304.555L425.977 303.726C426.648 303.717 427.298 303.965 427.793 304.419C428.288 304.873 428.592 305.499 428.642 306.17L433.971 372.563C434.051 373.558 433.923 374.56 433.594 375.503C433.266 376.446 432.744 377.31 432.063 378.039C431.382 378.769 430.556 379.348 429.638 379.74C428.721 380.132 427.732 380.327 426.734 380.314Z" fill="#FECA57"/>
<g opacity="0.3">
<path opacity="0.4" d="M432.176 304.611C436.607 303.909 423.06 298.151 419.834 298.18H419.61C419.257 298.183 418.91 298.261 418.589 298.408C418.269 298.555 417.983 298.768 417.75 299.032C417.517 299.297 417.343 299.608 417.238 299.945C417.133 300.282 417.1 300.638 417.142 300.988L417.52 304.541C418.505 313.807 417.53 323.178 414.659 332.042C411.788 340.907 407.086 349.067 400.858 355.992C394.63 362.916 387.015 368.451 378.511 372.235C370.006 376.019 360.8 377.968 351.493 377.955C350.876 377.955 350.28 378.182 349.819 378.594C349.359 379.006 349.066 379.574 348.997 380.188C348.888 381.068 348.966 381.96 349.228 382.807C349.49 383.654 349.928 384.435 350.514 385.099C351.101 385.763 351.821 386.295 352.628 386.659C353.435 387.022 354.311 387.21 355.196 387.209L428.011 387.308C428.889 387.307 429.757 387.121 430.559 386.762C431.361 386.404 432.079 385.881 432.666 385.227C433.253 384.573 433.696 383.802 433.967 382.966C434.238 382.129 434.33 381.245 434.237 380.371L432.176 304.611Z" fill="white"/>
</g>
<path d="M379.276 316.786C378.56 299.289 377.705 283.435 394.127 283.28C409.779 283.126 411.49 297.702 411.041 316.66" stroke="#212121" stroke-width="1.19" stroke-linecap="round" stroke-linejoin="round"/>
<path d="M381.534 319.047C381.534 319.646 381.296 320.221 380.872 320.645C380.449 321.069 379.875 321.308 379.276 321.308C378.677 321.308 378.103 321.069 377.679 320.645C377.256 320.221 377.018 319.646 377.018 319.047C377.018 318.447 377.256 317.872 377.679 317.448C378.103 317.024 378.677 316.786 379.276 316.786C379.875 316.786 380.449 317.024 380.872 317.448C381.296 317.872 381.534 318.447 381.534 319.047Z" fill="#FCAF15"/>
<path d="M413.299 318.892C413.299 319.339 413.166 319.777 412.918 320.148C412.67 320.52 412.318 320.81 411.905 320.981C411.492 321.152 411.038 321.197 410.6 321.11C410.162 321.022 409.76 320.807 409.444 320.491C409.129 320.175 408.913 319.772 408.826 319.333C408.739 318.895 408.784 318.44 408.955 318.027C409.126 317.614 409.415 317.261 409.787 317.013C410.158 316.764 410.594 316.631 411.041 316.631C411.64 316.631 412.214 316.87 412.638 317.294C413.061 317.718 413.299 318.293 413.299 318.892Z" fill="#FCAF15"/>
<path d="M32.8731 301.634C32.6936 303.616 32.1198 305.541 31.1856 307.298C30.2514 309.054 28.9757 310.605 27.4335 311.86C25.8914 313.115 24.114 314.048 22.2061 314.605C20.2982 315.161 18.2983 315.33 16.3243 315.101C12.3136 314.511 8.69219 312.375 6.23406 309.147C3.77592 305.919 2.67605 301.857 3.16943 297.828C3.41035 294.833 4.55773 291.983 6.45845 289.658C8.35918 287.332 10.9229 285.643 13.8075 284.814C16.6921 283.986 19.7605 284.058 22.6032 285.021C25.4459 285.984 27.9277 287.792 29.7176 290.203C32.196 293.467 33.3259 297.559 32.8731 301.634Z" fill="#7FCD4A"/>
<path d="M16.1351 295.329C16.7313 295.538 17.1042 295.936 17.2537 296.524C17.4085 297.109 17.3436 297.838 17.0591 298.711C16.7747 299.584 16.4038 300.212 15.9464 300.596C15.4904 300.976 14.9543 301.059 14.3382 300.843C13.7658 300.643 13.4055 300.247 13.2573 299.655C13.1144 299.061 13.1852 298.327 13.4697 297.454C13.7541 296.582 14.1191 295.958 14.5646 295.583C15.0114 295.204 15.5349 295.119 16.1351 295.329ZM15.9022 296.044C15.5802 295.931 15.2882 296.019 15.0262 296.306C14.7656 296.59 14.525 297.07 14.3044 297.747C14.0839 298.423 13.993 298.96 14.0319 299.357C14.0707 299.755 14.2511 300.01 14.5731 300.122C14.907 300.239 15.2115 300.154 15.4867 299.867C15.7619 299.579 16.0098 299.097 16.2303 298.421C16.4496 297.748 16.5332 297.213 16.4811 296.815C16.433 296.419 16.24 296.162 15.9022 296.044ZM21.6153 297.388L13.918 304.477L13.0474 304.172L20.7448 297.083L21.6153 297.388ZM20.2768 300.7C20.8691 300.907 21.242 301.305 21.3955 301.894C21.5502 302.479 21.4854 303.208 21.2009 304.081C20.9177 304.95 20.5475 305.577 20.0901 305.961C19.6341 306.341 19.098 306.423 18.4819 306.208C17.9055 306.006 17.5452 305.61 17.401 305.02C17.2581 304.425 17.3283 303.694 17.6114 302.825C17.8959 301.952 18.2589 301.327 18.7004 300.951C19.1471 300.572 19.6726 300.488 20.2768 300.7ZM20.042 301.421C19.72 301.308 19.4287 301.393 19.168 301.677C18.9073 301.96 18.6667 302.44 18.4462 303.117C18.2257 303.794 18.1348 304.331 18.1736 304.728C18.2138 305.121 18.3948 305.374 18.7168 305.487C19.0507 305.604 19.3539 305.522 19.6265 305.243C19.9004 304.96 20.1489 304.476 20.3721 303.791C20.5913 303.118 20.6743 302.585 20.6209 302.192C20.5728 301.796 20.3798 301.539 20.042 301.421Z" fill="white"/>
<path d="M49.1976 258.622C49.6931 260.544 49.8007 262.546 49.5141 264.51C49.2276 266.474 48.5527 268.362 47.5288 270.061C46.505 271.761 45.1528 273.24 43.5513 274.41C41.9499 275.58 40.1315 276.419 38.2024 276.877C34.2295 277.679 30.1009 276.896 26.6957 274.696C23.2904 272.495 20.8775 269.051 19.9707 265.095C19.1719 262.189 19.2802 259.107 20.2811 256.264C21.282 253.421 23.1276 250.953 25.57 249.191C28.0125 247.428 30.9349 246.456 33.9451 246.405C36.9552 246.354 39.9089 247.226 42.4097 248.904C45.8353 251.15 48.2661 254.63 49.1976 258.622Z" fill="#7FCD4A"/>
<path d="M35.4638 261.761L38.7523 261.034L39.0085 262.115L35.72 262.843L36.5188 266.216L35.4252 266.458L34.6265 263.085L31.338 263.813L31.0818 262.731L34.3703 262.003L33.5678 258.615L34.6613 258.373L35.4638 261.761Z" fill="white"/>
<path d="M85.8573 103.69C86.9417 105.357 87.6825 107.224 88.0361 109.181C88.3898 111.138 88.3492 113.147 87.9167 115.088C87.4843 117.03 86.6687 118.865 85.5178 120.486C84.367 122.107 82.9041 123.482 81.2152 124.529C77.7007 126.562 73.5308 127.136 69.5987 126.129C65.6667 125.121 62.2852 122.611 60.1786 119.137C58.5128 116.638 57.6474 113.69 57.6982 110.686C57.7489 107.682 58.7132 104.765 60.4624 102.324C62.2117 99.8824 64.6627 98.0333 67.4886 97.023C70.3145 96.0127 73.3808 95.8892 76.2786 96.6689C80.2525 97.6931 83.6816 100.207 85.8573 103.69Z" fill="#7FCD4A"/>
<path d="M72.4787 105.896C72.8842 105.754 73.2763 105.668 73.6551 105.638C74.0365 105.603 74.4238 105.621 74.817 105.693L74.6915 106.647C74.4206 106.604 74.1161 106.586 73.7782 106.592C73.4403 106.599 73.1123 106.658 72.7942 106.769C72.4841 106.878 72.2177 107.027 71.9951 107.216C71.7725 107.406 71.5982 107.636 71.4724 107.908C71.3466 108.18 71.2693 108.492 71.2403 108.846C71.2099 109.196 71.2299 109.586 71.3004 110.016L74.306 108.964L74.5721 109.701L71.489 110.78C71.5137 110.861 71.539 110.944 71.5651 111.028C71.5937 111.107 71.6238 111.191 71.6553 111.278C71.6853 111.361 71.7168 111.448 71.7497 111.539C71.7866 111.629 71.8228 111.717 71.8582 111.802L74.6133 110.838L74.8795 111.575L72.2139 112.508C72.4784 112.955 72.7749 113.311 73.1033 113.576C73.4357 113.838 73.801 114.001 74.1994 114.062C74.5977 114.123 75.0255 114.074 75.4827 113.914C75.7967 113.804 76.0972 113.657 76.3841 113.472C76.671 113.286 76.9216 113.094 77.136 112.894L77.4558 113.779C77.248 113.972 77.0039 114.158 76.7235 114.337C76.4486 114.518 76.1183 114.676 75.7326 114.811C75.0846 115.037 74.4829 115.107 73.9276 115.021C73.3763 114.932 72.8731 114.705 72.418 114.337C71.9668 113.969 71.5648 113.476 71.212 112.859L70.2161 113.207L69.9499 112.47L70.8564 112.153C70.8166 112.055 70.7819 111.972 70.7521 111.902C70.7264 111.83 70.6942 111.741 70.6555 111.634C70.6226 111.543 70.5917 111.451 70.5628 111.359C70.5324 111.262 70.5072 111.186 70.4872 111.131L69.5807 111.448L69.3145 110.711L70.2985 110.367C70.1561 109.663 70.1392 109.015 70.248 108.423C70.3554 107.828 70.593 107.314 70.9608 106.882C71.3326 106.449 71.8386 106.12 72.4787 105.896Z" fill="white"/>
</svg>
