<svg width="40" height="40" viewBox="0 0 40 40" fill="none" xmlns="http://www.w3.org/2000/svg">
<g clip-path="url(#clip0_232_1739)">
<path d="M23.9474 21.1158C23.8164 20.9779 23.6519 20.8764 23.47 20.821C23.288 20.7657 23.0948 20.7585 22.9092 20.8001C22.7237 20.8418 22.5521 20.9308 22.4112 21.0585C22.2703 21.1862 22.1649 21.3483 22.1053 21.5289C22.0112 21.7839 21.8279 21.996 21.5894 22.1262C21.3509 22.2564 21.0732 22.2957 20.808 22.2368C19.6264 21.9421 18.0343 20.3947 17.7395 19.1711C17.6675 18.9049 17.7009 18.6212 17.8328 18.3791C17.9646 18.1369 18.1848 17.955 18.4474 17.8711C18.6247 17.8114 18.7839 17.7074 18.9097 17.569C19.0355 17.4305 19.1238 17.2622 19.1663 17.08C19.2087 16.8978 19.2039 16.7077 19.1522 16.5279C19.1006 16.3481 19.0038 16.1845 18.8711 16.0526L17.2185 14.4C17.0014 14.2005 16.7173 14.0897 16.4224 14.0897C16.1276 14.0897 15.8435 14.2005 15.6264 14.4L14.5053 15.5263C13.3843 16.7053 14.6237 19.8316 17.4001 22.6053C20.1764 25.3789 23.2974 26.6737 24.4764 25.5L25.5974 24.3789C25.7933 24.1626 25.9017 23.8813 25.9017 23.5895C25.9017 23.2977 25.7933 23.0163 25.5974 22.8L23.9474 21.1158Z" fill="#23D265"/>
<path d="M20 0C16.0444 0 12.1776 1.17298 8.8886 3.37061C5.59962 5.56824 3.03617 8.69181 1.52242 12.3463C0.00866564 16.0009 -0.387401 20.0222 0.384303 23.9018C1.15601 27.7814 3.06082 31.3451 5.85787 34.1421C8.65492 36.9392 12.2186 38.844 16.0982 39.6157C19.9778 40.3874 23.9992 39.9913 27.6537 38.4776C31.3082 36.9638 34.4318 34.4004 36.6294 31.1114C38.827 27.8224 40 23.9556 40 20C40 14.6957 37.8929 9.60859 34.1421 5.85786C30.3914 2.10714 25.3043 0 20 0ZM20 30.5263C17.9409 30.5302 15.9266 29.925 14.2105 28.7868L10.1658 30.0816L11.4816 26.1711C10.345 24.6004 9.66421 22.7463 9.51442 20.8133C9.36463 18.8803 9.75161 16.9434 10.6327 15.2164C11.5138 13.4893 12.8547 12.0392 14.5076 11.0259C16.1605 10.0125 18.0612 9.47539 20 9.47368C22.7918 9.47368 25.4692 10.5827 27.4432 12.5568C29.4173 14.5308 30.5263 17.2082 30.5263 20C30.5263 22.7918 29.4173 25.4692 27.4432 27.4432C25.4692 29.4173 22.7918 30.5263 20 30.5263Z" fill="#23D265"/>
</g>
<defs>
<clipPath id="clip0_232_1739">
<rect width="40" height="40" fill="white"/>
</clipPath>
</defs>
</svg>
