<svg width="40" height="40" viewBox="0 0 40 40" fill="none" xmlns="http://www.w3.org/2000/svg">
<path d="M20 40C31.0457 40 40 31.0457 40 20C40 8.9543 31.0457 0 20 0C8.9543 0 0 8.9543 0 20C0 31.0457 8.9543 40 20 40Z" fill="#F96600"/>
<path d="M18.7703 25.1091C16.8317 24.9068 15.084 24.4273 13.5885 23.2591C13.4022 23.1137 13.2113 22.9728 13.0408 22.8046C12.3863 22.175 12.3203 21.4546 12.8385 20.7137C13.2817 20.0773 14.0249 19.9068 14.7999 20.2728C14.9487 20.3481 15.0916 20.4347 15.2272 20.5318C16.613 21.4737 18.2465 21.9845 19.922 21.9998C21.5976 22.0152 23.2402 21.5345 24.6431 20.6182C24.9111 20.401 25.2204 20.2402 25.5522 20.1455C25.8607 20.0543 26.1909 20.0695 26.4898 20.1886C26.7886 20.3077 27.0387 20.5239 27.1999 20.8023C27.609 21.4705 27.6044 22.1205 27.0999 22.6387C26.3265 23.4208 25.3919 24.025 24.3613 24.4091C23.3578 24.7696 22.3134 25.004 21.2522 25.1068C21.4113 25.2818 21.4794 25.3659 21.5885 25.4659C23.0272 26.9137 24.4726 28.3546 25.9067 29.8046C26.1352 30.0123 26.2901 30.2885 26.3483 30.5917C26.4065 30.8949 26.3648 31.2089 26.2294 31.4864C26.0916 31.7906 25.8672 32.0474 25.5842 32.2249C25.3013 32.4023 24.9724 32.4925 24.6385 32.4841C24.248 32.4457 23.8865 32.2605 23.6272 31.9659C22.5408 30.8728 21.434 29.8 20.3703 28.6864C20.0613 28.3637 19.9158 28.425 19.6385 28.7046C18.5453 29.8409 17.434 30.9387 16.3181 32.0387C16.1109 32.2683 15.8333 32.4226 15.5288 32.4773C15.2244 32.532 14.9104 32.4841 14.6363 32.3409C14.3392 32.2022 14.0885 31.9806 13.9143 31.7028C13.7401 31.425 13.6499 31.1029 13.6544 30.775C13.6872 30.3699 13.8763 29.9933 14.1817 29.725C15.609 28.3023 17.0317 26.8788 18.4499 25.4546C18.5453 25.3568 18.6363 25.2546 18.7703 25.1091Z" fill="white"/>
<path d="M19.9498 20.1546C18.6965 20.1473 17.4736 19.7679 16.4362 19.0646C15.3988 18.3613 14.5936 17.3658 14.1228 16.2042C13.652 15.0427 13.5368 13.7675 13.7917 12.5404C14.0466 11.3133 14.6603 10.1895 15.5548 9.31161C16.4493 8.43372 17.5843 7.84126 18.816 7.60937C20.0477 7.37748 21.3205 7.51661 22.473 8.00911C23.6255 8.50161 24.6058 9.32529 25.2895 10.3757C25.9733 11.4261 26.3296 12.6559 26.3134 13.9091C26.2907 15.5789 25.6092 17.1721 24.4173 18.3419C23.2255 19.5116 21.6198 20.1631 19.9498 20.1546ZM23.093 13.8205C23.0912 13.2079 22.9076 12.6096 22.5656 12.1013C22.2236 11.5931 21.7384 11.1978 21.1716 10.9654C20.6048 10.7331 19.9817 10.6742 19.3814 10.7961C18.781 10.9181 18.2304 11.2154 17.7991 11.6505C17.3678 12.0856 17.0754 12.6388 16.9587 13.2402C16.8421 13.8416 16.9065 14.4641 17.1438 15.0289C17.3812 15.5936 17.7808 16.0753 18.292 16.4128C18.8032 16.7504 19.4031 16.9286 20.0157 16.925C20.4219 16.9241 20.8239 16.843 21.1986 16.6864C21.5733 16.5297 21.9134 16.3005 22.1993 16.0121C22.4853 15.7236 22.7114 15.3815 22.8648 15.0054C23.0181 14.6293 23.0957 14.2266 23.093 13.8205Z" fill="white"/>
</svg>
