<svg width="40" height="40" viewBox="0 0 40 40" fill="none" xmlns="http://www.w3.org/2000/svg">
<path d="M18.2789 17.7132C16.6842 16.9237 17.5763 15.3184 19.8394 15.3184C22.9631 15.3184 21.9447 17.85 23.8789 17.85C25.4894 17.85 26.0263 15.8026 24.0342 14.2605C21.8736 12.5974 16.8552 12.7316 15.1447 14.9342C14.7062 15.5036 14.4656 16.2006 14.4594 16.9193C14.4533 17.6379 14.6818 18.3389 15.1105 18.9158C16.9526 21.1868 20.9684 20.6711 22.3736 21.9684C22.9 22.4605 22.9947 23.4868 22.0184 24.1395C21.0421 24.7921 19.3315 24.7684 18.5421 24.4026C16.8184 23.5921 17.3578 21.6026 15.6473 21.6026C13.3842 21.6026 13.8499 24.7605 16.4736 26.1526C18.3157 27.1158 21.3552 27.1105 23.2026 26.35C24.8736 25.6711 25.9447 24.3684 25.9473 22.6316C25.9473 18.4211 20.4421 18.7868 18.2789 17.7132Z" fill="#00B0EF"/>
<path d="M20 0C16.0444 0 12.1776 1.17298 8.8886 3.37061C5.59962 5.56824 3.03617 8.69181 1.52242 12.3463C0.00866564 16.0009 -0.387401 20.0222 0.384303 23.9018C1.15601 27.7814 3.06082 31.3451 5.85787 34.1421C8.65492 36.9392 12.2186 38.844 16.0982 39.6157C19.9778 40.3874 23.9992 39.9913 27.6537 38.4776C31.3082 36.9638 34.4318 34.4004 36.6294 31.1114C38.827 27.8224 40 23.9556 40 20C40 14.6957 37.8929 9.60859 34.1421 5.85786C30.3914 2.10714 25.3043 0 20 0ZM21.9369 29.8263C14.9026 31.1026 8.85527 24.9737 10.2632 18.1132C9.74429 17.2369 9.47154 16.2368 9.47369 15.2184C9.47369 10.6684 14.5632 7.98947 18.3869 10.3605C25.429 9.16842 31.4237 15.3842 29.9 22.2316C32.4079 27.2105 26.9105 32.4553 21.9369 29.8263Z" fill="#00B0EF"/>
</svg>
