<svg width="40" height="40" viewBox="0 0 40 40" fill="none" xmlns="http://www.w3.org/2000/svg">
<path d="M24.0579 17.9816C24.1502 17.9905 24.2423 17.963 24.3145 17.905C24.3868 17.847 24.4335 17.7631 24.4448 17.6711C24.4623 17.5419 24.472 17.4119 24.4737 17.2816C24.4723 16.3503 24.1012 15.4577 23.442 14.7999C22.7827 14.1421 21.8892 13.773 20.9579 13.7737C20.8278 13.7728 20.6977 13.7799 20.5685 13.7947C20.5227 13.7998 20.4783 13.8137 20.4379 13.8359C20.3975 13.858 20.3619 13.8879 20.3331 13.9239C20.3043 13.9598 20.2828 14.001 20.2699 14.0452C20.257 14.0895 20.2529 14.1358 20.2579 14.1816C20.263 14.2274 20.2769 14.2717 20.2991 14.3121C20.3212 14.3525 20.3511 14.3881 20.387 14.417C20.423 14.4458 20.4642 14.4673 20.5084 14.4802C20.5527 14.4931 20.599 14.4971 20.6448 14.4921C20.7487 14.4793 20.8533 14.4732 20.9579 14.4737C21.7022 14.4751 22.4156 14.7714 22.9419 15.2976C23.4682 15.8239 23.7644 16.5373 23.7658 17.2816C23.765 17.3862 23.7589 17.4907 23.7474 17.5947C23.7385 17.687 23.766 17.7791 23.824 17.8513C23.882 17.9236 23.966 17.9703 24.0579 17.9816Z" fill="#7C539C"/>
<path d="M20.9579 15.1763C20.9092 15.1721 20.8602 15.178 20.8139 15.1938C20.7676 15.2095 20.7251 15.2347 20.6891 15.2677C20.6531 15.3008 20.6243 15.3409 20.6047 15.3857C20.585 15.4304 20.5748 15.4788 20.5748 15.5276C20.5748 15.5765 20.585 15.6248 20.6047 15.6696C20.6243 15.7143 20.6531 15.7545 20.6891 15.7875C20.7251 15.8205 20.7676 15.8457 20.8139 15.8615C20.8602 15.8772 20.9092 15.8832 20.9579 15.8789C21.1428 15.8779 21.326 15.9134 21.4971 15.9834C21.6682 16.0535 21.8237 16.1566 21.9548 16.287C22.0859 16.4173 22.1899 16.5723 22.2609 16.743C22.3319 16.9137 22.3684 17.0967 22.3684 17.2816C22.376 17.3695 22.4164 17.4514 22.4814 17.511C22.5464 17.5707 22.6315 17.6038 22.7197 17.6038C22.808 17.6038 22.893 17.5707 22.9581 17.511C23.0231 17.4514 23.0634 17.3695 23.0711 17.2816C23.0711 17.0044 23.0163 16.73 22.9101 16.4741C22.8038 16.2182 22.648 15.9857 22.4517 15.7901C22.2553 15.5945 22.0223 15.4396 21.766 15.3343C21.5096 15.229 21.235 15.1753 20.9579 15.1763ZM23.3447 20.2184C23.2231 20.0897 23.0704 19.9945 22.9014 19.9419C22.7323 19.8893 22.5525 19.8811 22.3793 19.9181C22.2062 19.9551 22.0455 20.0361 21.9127 20.1532C21.7799 20.2703 21.6794 20.4197 21.6211 20.5868C21.5307 20.8265 21.356 21.025 21.1298 21.1452C20.9036 21.2653 20.6413 21.2988 20.3921 21.2395C19.2868 20.95 17.8053 19.4895 17.5395 18.3211C17.4738 18.0699 17.5078 17.8032 17.6343 17.5766C17.7609 17.3499 17.9702 17.1811 18.2184 17.1053C18.3866 17.0502 18.5378 16.9529 18.6576 16.8227C18.7775 16.6925 18.8619 16.5337 18.9028 16.3616C18.9437 16.1894 18.9398 16.0097 18.8914 15.8395C18.843 15.6693 18.7517 15.5143 18.6263 15.3895L17.0895 13.8105C16.8871 13.621 16.6211 13.5143 16.3439 13.5114C16.0667 13.5084 15.7984 13.6095 15.5921 13.7947L14.5395 14.8474C13.4737 15.9447 14.6053 18.8974 17.1711 21.5342C19.7368 24.1711 22.6763 25.4211 23.7974 24.3237L24.85 23.2711C25.0401 23.069 25.1472 22.8028 25.1501 22.5254C25.153 22.2481 25.0515 21.9797 24.8658 21.7737L23.3447 20.2184Z" fill="#7C539C"/>
<path d="M20 0C16.0444 0 12.1776 1.17298 8.8886 3.37061C5.59962 5.56824 3.03617 8.69181 1.52242 12.3463C0.00866564 16.0009 -0.387401 20.0222 0.384303 23.9018C1.15601 27.7814 3.06082 31.3451 5.85787 34.1421C8.65492 36.9392 12.2186 38.844 16.0982 39.6157C19.9778 40.3874 23.9992 39.9913 27.6537 38.4776C31.3082 36.9638 34.4318 34.4004 36.6294 31.1114C38.827 27.8224 40 23.9556 40 20C40 14.6957 37.8929 9.60859 34.1421 5.85786C30.3914 2.10714 25.3043 0 20 0ZM29.4737 20C29.4737 21.9542 28.6974 23.8284 27.3155 25.2103C25.9337 26.5921 24.0595 27.3684 22.1053 27.3684H18.3921L15.3342 30.4263C15.2848 30.474 15.2226 30.5062 15.1551 30.519C15.0877 30.5317 15.0179 30.5246 14.9545 30.4983C14.8911 30.472 14.8367 30.4278 14.798 30.3711C14.7594 30.3144 14.7381 30.2476 14.7369 30.1789V26.6605C13.4765 26.0627 12.4118 25.1194 11.6665 23.9404C10.9211 22.7613 10.5257 21.3949 10.5263 20V16.8421C10.5263 14.8879 11.3026 13.0137 12.6845 11.6318C14.0663 10.25 15.9405 9.47368 17.8947 9.47368H22.1053C24.0595 9.47368 25.9337 10.25 27.3155 11.6318C28.6974 13.0137 29.4737 14.8879 29.4737 16.8421V20Z" fill="#7C539C"/>
<path d="M20.958 12.3684C20.8317 12.3684 20.7054 12.3737 20.5791 12.3842C20.4862 12.3912 20.4 12.4347 20.3393 12.5053C20.2786 12.5759 20.2484 12.6677 20.2554 12.7605C20.2624 12.8533 20.3059 12.9396 20.3765 13.0003C20.4471 13.061 20.5389 13.0912 20.6317 13.0842H20.958C22.0747 13.0842 23.1457 13.5278 23.9353 14.3174C24.7249 15.1071 25.1685 16.178 25.1685 17.2947C25.1694 17.6217 25.1314 17.9477 25.0554 18.2658C25.0407 18.312 25.0358 18.3607 25.0408 18.4089C25.0458 18.4571 25.0608 18.5038 25.0846 18.546C25.1085 18.5881 25.1408 18.625 25.1795 18.6541C25.2183 18.6832 25.2626 18.7041 25.3097 18.7153C25.3569 18.7266 25.4058 18.728 25.4536 18.7194C25.5013 18.7109 25.5467 18.6926 25.5871 18.6658C25.6274 18.6389 25.6618 18.604 25.688 18.5632C25.7142 18.5225 25.7318 18.4768 25.7396 18.4289C25.8268 18.0572 25.8709 17.6766 25.8712 17.2947C25.8726 15.99 25.3558 14.7382 24.4345 13.8144C23.5132 12.8906 22.2627 12.3705 20.958 12.3684Z" fill="#7C539C"/>
</svg>
