<svg width="22" height="29" viewBox="0 0 22 29" fill="none" xmlns="http://www.w3.org/2000/svg">
<path d="M0 2.71875V27.6236C0 28.3826 0.624479 29 1.39219 29C1.67865 29 1.95938 28.915 2.19427 28.7508L11 22.6562L19.8057 28.7508C20.0406 28.915 20.3214 29 20.6078 29C21.3755 29 22 28.3826 22 27.6236V2.71875C22 1.21777 20.7682 0 19.25 0H2.75C1.23177 0 0 1.21777 0 2.71875Z" fill="#8998AC"/>
<path d="M18 10.5C18 14.0899 14.866 17 11 17C7.13401 17 4 14.0899 4 10.5C4 6.91015 7.13401 4 11 4C14.866 4 18 6.91015 18 10.5Z" fill="#F7F8F9"/>
</svg>
