<svg width="40" height="40" viewBox="0 0 40 40" fill="none" xmlns="http://www.w3.org/2000/svg">
<g clip-path="url(#clip0_232_1751)">
<path d="M0.00017181 19.9998C0.000203001 8.95417 8.95453 -3.37962e-05 20.0001 -2.44947e-05C31.0458 -1.51932e-05 40.0002 8.95433 40.0002 20C40.0002 31.0457 31.0459 40 20.0002 40C8.95448 40 0.000140619 31.0455 0.00017181 19.9998Z" fill="#0077FF"/>
<path d="M21.0718 29C12.8719 29 8.19488 23.3694 8 14H12.1074C12.2423 20.8769 15.2704 23.7898 17.6689 24.3904V14H21.5366V19.9309C23.9051 19.6757 26.3933 16.973 27.2328 14H31.1004C30.4558 17.6637 27.7575 20.3664 25.8387 21.4775C27.7575 22.3784 30.8307 24.7357 32 29H27.7425C26.8281 26.1471 24.5497 23.9399 21.5366 23.6396V29H21.0718Z" fill="white"/>
</g>
<defs>
<clipPath id="clip0_232_1751">
<rect width="40" height="40" fill="white"/>
</clipPath>
</defs>
</svg>
