<svg width="592" height="322" viewBox="0 0 592 322" fill="none" xmlns="http://www.w3.org/2000/svg">
<g clip-path="url(#clip0_991_3819)">
<path d="M30.2 186.2H122.6" stroke="#E6E8EB" stroke-width="2" stroke-miterlimit="10" stroke-linecap="round"/>
<path d="M25.2 186.2H19.7" stroke="#E6E8EB" stroke-width="2" stroke-miterlimit="10" stroke-linecap="round"/>
<path d="M529.3 99.7H581.5" stroke="#E6E8EB" stroke-width="2" stroke-miterlimit="10" stroke-linecap="round"/>
<path d="M91.5 62.5H183.9" stroke="#E6E8EB" stroke-width="2" stroke-miterlimit="10" stroke-linecap="round"/>
<path d="M11.8 45.5H127.3" stroke="#E6E8EB" stroke-width="2" stroke-miterlimit="10" stroke-linecap="round"/>
<path d="M544.1 43.3H460" stroke="#E6E8EB" stroke-width="2" stroke-miterlimit="10" stroke-linecap="round"/>
<path d="M483.8 65.3H399" stroke="#E6E8EB" stroke-width="2" stroke-miterlimit="10" stroke-linecap="round"/>
<path d="M423.5 33.6H373.3" stroke="#E6E8EB" stroke-width="2" stroke-miterlimit="10" stroke-linecap="round"/>
<path d="M489.2 65.3H499" stroke="#E6E8EB" stroke-width="2" stroke-miterlimit="10" stroke-linecap="round"/>
<path d="M239.3 15.5H196.5" stroke="#E6E8EB" stroke-width="2" stroke-miterlimit="10" stroke-linecap="round"/>
<path d="M181.1 15.5H191.4" stroke="#E6E8EB" stroke-width="2" stroke-miterlimit="10" stroke-linecap="round"/>
<path d="M86.4 62.5H83.2" stroke="#E6E8EB" stroke-width="2" stroke-miterlimit="10" stroke-linecap="round"/>
<path d="M524.3 99.7H521" stroke="#E6E8EB" stroke-width="2" stroke-miterlimit="10" stroke-linecap="round"/>
<path d="M21.2 117.6H14.2" stroke="#E6E8EB" stroke-width="2" stroke-miterlimit="10" stroke-linecap="round"/>
<path d="M513.4 183.2H572.2" stroke="#E6E8EB" stroke-width="2" stroke-miterlimit="10" stroke-linecap="round"/>
<path d="M583.7 183.2H576.5" stroke="#E6E8EB" stroke-width="2" stroke-miterlimit="10" stroke-linecap="round"/>
<path d="M137.5 45.5H146.2" stroke="#E6E8EB" stroke-width="2" stroke-miterlimit="10" stroke-linecap="round"/>
<path d="M142 49.8V41" stroke="#E6E8EB" stroke-width="2" stroke-miterlimit="10" stroke-linecap="round"/>
<path d="M561.6 42H570.5" stroke="#E6E8EB" stroke-width="2" stroke-miterlimit="10" stroke-linecap="round"/>
<path d="M566 46.5V37.8" stroke="#E6E8EB" stroke-width="2" stroke-miterlimit="10" stroke-linecap="round"/>
<path d="M405 92.5H413.9" stroke="#E6E8EB" stroke-width="2" stroke-miterlimit="10" stroke-linecap="round"/>
<path d="M409.5 97V88.3" stroke="#E6E8EB" stroke-width="2" stroke-miterlimit="10" stroke-linecap="round"/>
<path d="M575.7 158.7H581.7" stroke="#E6E8EB" stroke-width="2" stroke-miterlimit="10" stroke-linecap="round"/>
<path d="M578.7 161.7V155.7" stroke="#E6E8EB" stroke-width="2" stroke-miterlimit="10" stroke-linecap="round"/>
<path d="M209.7 36.6H215.6" stroke="#E6E8EB" stroke-width="2" stroke-miterlimit="10" stroke-linecap="round"/>
<path d="M212.7 39.4V33.5" stroke="#E6E8EB" stroke-width="2" stroke-miterlimit="10" stroke-linecap="round"/>
<path d="M504.3 99.7H510.3" stroke="#E6E8EB" stroke-width="2" stroke-miterlimit="10" stroke-linecap="round"/>
<path d="M507.4 102.7V96.7" stroke="#E6E8EB" stroke-width="2" stroke-miterlimit="10" stroke-linecap="round"/>
<path d="M358.4 33.6H364.3" stroke="#E6E8EB" stroke-width="2" stroke-miterlimit="10" stroke-linecap="round"/>
<path d="M361.4 36.6V30.6" stroke="#E6E8EB" stroke-width="2" stroke-miterlimit="10" stroke-linecap="round"/>
<path d="M36.3999 97.2H42.3999" stroke="#E6E8EB" stroke-width="2" stroke-miterlimit="10" stroke-linecap="round"/>
<path d="M39.3999 100.3V94.4" stroke="#E6E8EB" stroke-width="2" stroke-miterlimit="10" stroke-linecap="round"/>
<path d="M18 320.4H585.7" stroke="#616D7E" stroke-width="2" stroke-miterlimit="10"/>
<path d="M7.3 320.4H0" stroke="#616D7E" stroke-width="2" stroke-miterlimit="10"/>
<path d="M379.5 211.7L383.8 215V233.9" stroke="#616D7E" stroke-width="2" stroke-miterlimit="10"/>
<path d="M394.1 274.5L375.9 292.7V313.2H379.5L418.1 274.5H394.1Z" fill="#E1F5CB"/>
<path d="M365.3 251V314.4" stroke="#616D7E" stroke-width="2" stroke-miterlimit="10"/>
<path d="M407.2 261.6H402L391 272.8H396.2L407.2 261.6Z" fill="#E1F5CB"/>
<path d="M399.8 261.6H384.2L375.9 269.9V272.8H388.8L399.8 261.6Z" fill="#E1F5CB"/>
<path d="M401.4 274.5V313.2" stroke="#616D7E" stroke-width="2" stroke-miterlimit="10"/>
<path d="M554.4 211.5H330.2V187.7L325.3 183.4H559.8L554.9 187.7L554.4 211.5Z" fill="white"/>
<path d="M559.8 183.5L554.4 187.7V211.5" stroke="#616D7E" stroke-width="2" stroke-miterlimit="10"/>
<path d="M559.8 177.5H324.8V182.9H559.8V177.5Z" fill="#C1C6CC"/>
<path d="M559.8 177.5H324.8V182.9H559.8V177.5Z" stroke="#616D7E" stroke-width="2" stroke-miterlimit="10"/>
<path d="M466.8 187.6H555" stroke="#616D7E" stroke-width="2" stroke-miterlimit="10"/>
<path d="M462.7 187.6H449.9" stroke="#616D7E" stroke-width="2" stroke-miterlimit="10"/>
<path d="M578.1 231.9H306.7V313.6H578L578.1 231.9Z" fill="#F1F2F2"/>
<path d="M386.1 262.6H320.2V311.2H386.1V262.6Z" fill="#B5E57C"/>
<path d="M386.1 265.7V262.6H378.3L329.7 311.4H340.5L386.1 265.7Z" fill="#E1F5CB"/>
<path d="M386.1 303.3V287.6L362.4 311.4H377.9L386.1 303.3Z" fill="#E1F5CB"/>
<path d="M570.3 239.3V310.7H396.2V239.5L570.3 239.3Z" fill="#B5E57C"/>
<path d="M508.4 239.3L437 310.7H471.1L542.5 239.3H508.4Z" fill="#E1F5CB"/>
<path d="M421.1 239.5L396.2 264.6V310.7H425.5L496.7 239.5H421.1Z" fill="#E1F5CB"/>
<path d="M570.3 255.7L515.4 310.6H547L570.3 287.3V255.7Z" fill="#E1F5CB"/>
<path d="M568.3 233H556.7L560 239.3L572.5 239.1L568.3 233Z" fill="#8C97A3"/>
<path d="M396.5 233L392.3 239.1L404.8 239.3L408.1 233H396.5Z" fill="#8C97A3"/>
<path d="M404.8 239.3L408.1 233H396.5L392.3 239.1" stroke="#616D7E" stroke-width="2" stroke-miterlimit="10"/>
<path d="M583.7 233H300.6C299.9 233 299.3 232.3 299.2 231.3L293.8 198.2C293.6 197.2 294.2 196.5 294.7 196.5H589.9C590.6 196.5 591 197.2 590.8 198.2L585.4 231.3C585 232.3 584.2 233 583.7 233Z" fill="#E6E8EB"/>
<path d="M583.7 233H300.6C299.9 233 299.3 232.3 299.2 231.3L293.8 199C293.6 198.1 294.2 197.3 294.7 197.3H589.9C590.6 197.3 591 198 590.8 199L585.4 231.3C585 232.3 584.2 233 583.7 233Z" stroke="#616D7E" stroke-width="2" stroke-miterlimit="10"/>
<path d="M584.8 313.7H299.3V320.4H584.7V313.7H584.8Z" fill="#8C97A3"/>
<path d="M299.3 319.5V313.7H584.7V319.5" stroke="#616D7E" stroke-width="2" stroke-miterlimit="10"/>
<path d="M398.5 251.6C395.2 251.6 392.5 248.9 392.5 245.6V239.3H404.5V245.6C404.5 248.9 401.8 251.6 398.5 251.6Z" fill="#8C97A3"/>
<path d="M410.4 251.6C407.1 251.6 404.4 248.9 404.4 245.6V239.3H416.3V245.6C416.4 248.9 413.9 251.6 410.4 251.6Z" fill="white"/>
<path d="M422.5 251.6C419.2 251.6 416.5 248.9 416.5 245.6V239.3H428.5V245.6C428.5 248.9 425.8 251.6 422.5 251.6Z" fill="#8C97A3"/>
<path d="M434.5 251.6C431.2 251.6 428.5 248.9 428.5 245.6V239.3H440.4V245.6C440.4 248.9 437.7 251.6 434.5 251.6Z" fill="white"/>
<path d="M446.4 251.6C443.1 251.6 440.4 248.9 440.4 245.6V239.3H452.3V245.6C452.5 248.9 449.8 251.6 446.4 251.6Z" fill="#8C97A3"/>
<path d="M458.5 251.6C455.2 251.6 452.5 248.9 452.5 245.6V239.3H464.5V245.6C464.5 248.9 461.8 251.6 458.5 251.6Z" fill="white"/>
<path d="M470.4 251.6C467.1 251.6 464.4 248.9 464.4 245.6V239.3H476.3V245.6C476.4 248.9 473.7 251.6 470.4 251.6Z" fill="#8C97A3"/>
<path d="M482.3 251.6C479 251.6 476.3 248.9 476.3 245.6V239.3H488.2V245.6C488.5 248.9 485.8 251.6 482.3 251.6Z" fill="white"/>
<path d="M494.5 251.6C491.2 251.6 488.5 248.9 488.5 245.6V239.3H500.4V245.6C500.4 248.9 497.7 251.6 494.5 251.6Z" fill="#8C97A3"/>
<path d="M531.9 283.2C531 283.2 530.1 283.5 529.4 283.9C529.1 284.1 528.8 284.1 528.5 283.9C528.2 283.7 528 283.4 528 283.1V277.2C528 276.3 527.2 275.6 526.3 275.6H519.1C518.8 275.6 518.5 275.4 518.3 275.2C518.1 274.9 518.1 274.6 518.3 274.3C518.7 273.6 518.9 272.8 518.9 271.9C518.9 269.2 516.7 267 514 267C511.3 267 509.1 269.2 509.1 271.9C509.1 272.8 509.3 273.6 509.7 274.3C509.9 274.6 509.8 274.9 509.7 275.2C509.5 275.5 509.2 275.6 508.9 275.6H501.7C500.8 275.6 500 276.3 500 277.2V282.9C500 283.2 500.2 283.5 500.4 283.7C500.7 283.9 501 283.9 501.3 283.7C502 283.3 502.8 283.1 503.6 283.1C506.3 283.1 508.5 285.3 508.5 288C508.5 290.7 506.3 292.9 503.6 292.9C502.8 292.9 502 292.7 501.3 292.3C501 292.1 500.7 292.2 500.4 292.3C500.1 292.5 500 292.8 500 293.1V299.2C500 300.1 500.7 300.8 501.6 300.8L526.2 300.9C527.1 300.9 527.9 300.2 527.9 299.3V293.1C527.9 292.8 528.1 292.5 528.4 292.3C528.7 292.1 529 292.1 529.3 292.3C530 292.8 530.9 293 531.8 293C534.5 293 536.7 290.8 536.7 288.1C536.8 285.4 534.6 283.2 531.9 283.2Z" fill="#E6F7DA" stroke="#707E8E" stroke-width="2" stroke-miterlimit="10"/>
<path d="M503.8 283.2C502.9 283.2 502 283.5 501.3 283.9C501 284.1 500.7 284.1 500.4 283.9C500.1 283.7 499.9 283.4 499.9 283.1V277.2C499.9 276.3 499.1 275.6 498.2 275.6H491C490.7 275.6 490.4 275.4 490.2 275.2C490 274.9 490 274.6 490.2 274.3C490.6 273.6 490.8 272.8 490.8 271.9C490.8 269.2 488.6 267 485.9 267C483.2 267 481 269.2 481 271.9C481 272.8 481.2 273.6 481.6 274.3C481.8 274.6 481.7 274.9 481.6 275.2C481.4 275.5 481.1 275.6 480.8 275.6H473.6C472.7 275.6 471.9 276.3 471.9 277.2V282.9C471.9 283.2 472.1 283.5 472.3 283.7C472.6 283.9 472.9 283.9 473.2 283.7C473.9 283.3 474.7 283.1 475.5 283.1C478.2 283.1 480.4 285.3 480.4 288C480.4 290.7 478.2 292.9 475.5 292.9C474.7 292.9 473.9 292.7 473.2 292.3C472.9 292.1 472.6 292.2 472.3 292.3C472 292.5 471.9 292.8 471.9 293.1V299.2C471.9 300.1 472.6 300.8 473.5 300.8L498.1 300.9C499 300.9 499.8 300.2 499.8 299.3V293.1C499.8 292.8 500 292.5 500.3 292.3C500.6 292.1 500.9 292.1 501.2 292.3C501.9 292.8 502.8 293 503.7 293C506.4 293 508.6 290.8 508.6 288.1C508.7 285.4 506.5 283.2 503.8 283.2Z" fill="#E6F7DA" stroke="#707E8E" stroke-width="2" stroke-miterlimit="10"/>
<path d="M514.6 240.2C511.7 240.2 509.3 242.3 509.3 245C509.3 245.9 509.6 246.7 510.1 247.4C510.3 247.7 510.3 248 510.1 248.3C509.9 248.6 509.6 248.7 509.3 248.7H502.6C501.6 248.7 500.8 249.4 500.8 250.3L500.9 274C500.9 274.9 501.7 275.6 502.7 275.6H508.9C509.2 275.6 509.6 275.4 509.7 275.2C509.9 274.9 509.9 274.6 509.7 274.3C509.3 273.6 509.1 272.9 509.1 272C509.1 269.4 511.4 266.8 514.3 266.8C517.2 266.8 519.2 269.4 519.2 272C519.2 272.8 519 273.6 518.6 274.3C518.4 274.6 518.4 274.9 518.6 275.2C518.8 275.5 519.1 275.6 519.4 275.6L526.4 275.5C527.4 275.5 528.2 274.8 528.1 273.9V267C528.1 266.7 528.3 266.4 528.6 266.2C528.9 266 529.3 266 529.6 266.2C530.4 266.6 531.2 266.8 532.2 266.8C535.1 266.8 537.5 264.7 537.5 262C537.5 259.4 535.1 257.3 532.2 257.3C531.3 257.3 530.4 257.5 529.6 257.9C529.3 258 528.9 258 528.6 257.9C528.3 257.7 528.1 257.5 528.1 257.2V250.3C528.1 249.4 527.3 248.7 526.3 248.7H520C519.6 248.7 519.3 248.5 519.2 248.3C519 248 519 247.7 519.2 247.4C519.7 246.7 520 245.8 520 244.9C519.9 242.3 517.6 240.2 514.6 240.2Z" fill="#E6F7DA" stroke="#707E8E" stroke-width="2" stroke-miterlimit="10"/>
<path d="M506.4 251.6C503.1 251.6 500.4 248.9 500.4 245.6V239.3H512.3V245.6C512.3 248.9 509.6 251.6 506.4 251.6Z" fill="white"/>
<path d="M518.3 251.6C515 251.6 512.3 248.9 512.3 245.6V239.3H524.2V245.6C524.4 248.9 521.7 251.6 518.3 251.6Z" fill="#8C97A3"/>
<path d="M530.4 251.6C527.1 251.6 524.4 248.9 524.4 245.6V239.3H536.3V245.6C536.4 248.9 533.7 251.6 530.4 251.6Z" fill="white"/>
<path d="M542.3 251.6C539 251.6 536.3 248.9 536.3 245.6V239.3H548.2V245.6C548.3 248.9 545.6 251.6 542.3 251.6Z" fill="#8C97A3"/>
<path d="M554.4 251.6C551.1 251.6 548.4 248.9 548.4 245.6V239.3H560.3V245.6C560.4 248.9 557.7 251.6 554.4 251.6Z" fill="white"/>
<path d="M566.4 251.6C563.1 251.6 560.4 248.9 560.4 245.6V239.3H572.3V245.6C572.3 248.9 569.6 251.6 566.4 251.6Z" fill="#8C97A3"/>
<path d="M398.5 251.6C395.2 251.6 392.5 248.9 392.5 245.6V239.3H404.5V245.6C404.5 248.9 401.8 251.6 398.5 251.6Z" stroke="#616D7E" stroke-width="2" stroke-miterlimit="10"/>
<path d="M410.4 251.6C407.1 251.6 404.4 248.9 404.4 245.6V239.3H416.3V245.6C416.4 248.9 413.9 251.6 410.4 251.6Z" stroke="#616D7E" stroke-width="2" stroke-miterlimit="10"/>
<path d="M422.5 251.6C419.2 251.6 416.5 248.9 416.5 245.6V239.3H428.5V245.6C428.5 248.9 425.8 251.6 422.5 251.6Z" stroke="#616D7E" stroke-width="2" stroke-miterlimit="10"/>
<path d="M434.5 251.6C431.2 251.6 428.5 248.9 428.5 245.6V239.3H440.4V245.6C440.4 248.9 437.7 251.6 434.5 251.6Z" stroke="#616D7E" stroke-width="2" stroke-miterlimit="10"/>
<path d="M446.4 251.6C443.1 251.6 440.4 248.9 440.4 245.6V239.3H452.3V245.6C452.5 248.9 449.8 251.6 446.4 251.6Z" stroke="#616D7E" stroke-width="2" stroke-miterlimit="10"/>
<path d="M458.5 251.6C455.2 251.6 452.5 248.9 452.5 245.6V239.3H464.5V245.6C464.5 248.9 461.8 251.6 458.5 251.6Z" stroke="#616D7E" stroke-width="2" stroke-miterlimit="10"/>
<path d="M470.4 251.6C467.1 251.6 464.4 248.9 464.4 245.6V239.3H476.3V245.6C476.4 248.9 473.7 251.6 470.4 251.6Z" stroke="#616D7E" stroke-width="2" stroke-miterlimit="10"/>
<path d="M482.3 251.6C479 251.6 476.3 248.9 476.3 245.6V239.3H488.2V245.6C488.5 248.9 485.8 251.6 482.3 251.6Z" stroke="#616D7E" stroke-width="2" stroke-miterlimit="10"/>
<path d="M494.5 251.6C491.2 251.6 488.5 248.9 488.5 245.6V239.3H500.4V245.6C500.4 248.9 497.7 251.6 494.5 251.6Z" stroke="#616D7E" stroke-width="2" stroke-miterlimit="10"/>
<path d="M506.4 251.6C503.1 251.6 500.4 248.9 500.4 245.6V239.3H512.3V245.6C512.3 248.9 509.6 251.6 506.4 251.6Z" stroke="#616D7E" stroke-width="2" stroke-miterlimit="10"/>
<path d="M518.3 251.6C515 251.6 512.3 248.9 512.3 245.6V239.3H524.2V245.6C524.4 248.9 521.7 251.6 518.3 251.6Z" stroke="#616D7E" stroke-width="2" stroke-miterlimit="10"/>
<path d="M530.4 251.6C527.1 251.6 524.4 248.9 524.4 245.6V239.3H536.3V245.6C536.4 248.9 533.7 251.6 530.4 251.6Z" stroke="#616D7E" stroke-width="2" stroke-miterlimit="10"/>
<path d="M542.3 251.6C539 251.6 536.3 248.9 536.3 245.6V239.3H548.2V245.6C548.3 248.9 545.6 251.6 542.3 251.6Z" stroke="#616D7E" stroke-width="2" stroke-miterlimit="10"/>
<path d="M554.4 251.6C551.1 251.6 548.4 248.9 548.4 245.6V239.3H560.3V245.6C560.4 248.9 557.7 251.6 554.4 251.6Z" stroke="#616D7E" stroke-width="2" stroke-miterlimit="10"/>
<path d="M566.4 251.6C563.1 251.6 560.4 248.9 560.4 245.6V239.3H572.3V245.6C572.3 248.9 569.6 251.6 566.4 251.6Z" stroke="#616D7E" stroke-width="2" stroke-miterlimit="10"/>
<path d="M408.1 233L404.8 239.3H416.7L419.4 233H408.1Z" fill="white"/>
<path d="M430.9 233H419.5L416.8 239.3H428.7L430.9 233Z" fill="#8C97A3"/>
<path d="M442.4 233H430.8L428.6 239.3H440.5L442.4 233Z" fill="white"/>
<path d="M442.4 233L440.6 239.3H452.5L453.8 233H442.4Z" fill="#8C97A3"/>
<path d="M453.8 233L452.5 239.3H464.5L465.2 233H453.8Z" fill="white"/>
<path d="M476.7 233H465.1L464.4 239.3H476.3L476.7 233Z" fill="#8C97A3"/>
<path d="M488.1 233H476.7L476.3 239.3H488.2L488.1 233Z" fill="white"/>
<path d="M499.5 233H488.1L488.3 239.3H500.2L499.5 233Z" fill="#8C97A3"/>
<path d="M511.1 233H499.5L500.2 239.3H512.3L511.1 233Z" fill="white"/>
<path d="M522.5 233H511.1L512.4 239.3H524.3L522.5 233Z" fill="#8C97A3"/>
<path d="M533.8 233H522.5L524.3 239.3H536.2L533.8 233Z" fill="white"/>
<path d="M545.4 233H533.8L536.1 239.3H548L545.4 233Z" fill="#8C97A3"/>
<path d="M556.8 233H545.4L548.1 239.3H560L556.8 233Z" fill="white"/>
<path d="M419.5 233H408.1L404.8 239.3H416.7L419.5 233Z" stroke="#616D7E" stroke-width="2" stroke-miterlimit="10"/>
<path d="M419.5 233L416.8 239.3H428.7L430.9 233H419.5Z" stroke="#616D7E" stroke-width="2" stroke-miterlimit="10"/>
<path d="M430.9 233L428.7 239.3H440.6L442.4 233H430.9Z" stroke="#616D7E" stroke-width="2" stroke-miterlimit="10"/>
<path d="M453.8 233H442.4L440.6 239.3H452.5L453.8 233Z" stroke="#616D7E" stroke-width="2" stroke-miterlimit="10"/>
<path d="M465.2 233H453.8L452.5 239.3H464.5L465.2 233Z" stroke="#616D7E" stroke-width="2" stroke-miterlimit="10"/>
<path d="M465.2 233L464.5 239.3H476.4L476.8 233H465.2Z" stroke="#616D7E" stroke-width="2" stroke-miterlimit="10"/>
<path d="M488.1 233H476.7L476.3 239.3H488.2L488.1 233Z" stroke="#616D7E" stroke-width="2" stroke-miterlimit="10"/>
<path d="M499.5 233H488.1L488.3 239.3H500.2L499.5 233Z" stroke="#616D7E" stroke-width="2" stroke-miterlimit="10"/>
<path d="M511.1 233H499.5L500.2 239.3H512.3L511.1 233Z" stroke="#616D7E" stroke-width="2" stroke-miterlimit="10"/>
<path d="M522.5 233H511.1L512.4 239.3H524.3L522.5 233Z" stroke="#616D7E" stroke-width="2" stroke-miterlimit="10"/>
<path d="M533.8 233H522.5L524.3 239.3H536.2L533.8 233Z" stroke="#616D7E" stroke-width="2" stroke-miterlimit="10"/>
<path d="M545.4 233H533.8L536.1 239.3H548L545.4 233Z" stroke="#616D7E" stroke-width="2" stroke-miterlimit="10"/>
<path d="M556.8 233H545.4L548.1 239.3H560L556.8 233Z" stroke="#616D7E" stroke-width="2" stroke-miterlimit="10"/>
<path d="M572.5 239.1L568.3 233H556.7L560 239.3" stroke="#616D7E" stroke-width="2" stroke-miterlimit="10"/>
<path d="M390 239.3H314.3V313.7" stroke="#616D7E" stroke-width="2" stroke-miterlimit="10"/>
<path d="M570.3 250.7V310.7H396.2V251.6" stroke="#616D7E" stroke-width="2" stroke-miterlimit="10"/>
<path d="M578.3 233V313.8" stroke="#616D7E" stroke-width="2" stroke-miterlimit="10"/>
<path d="M386.1 246.4H320.2V260.3H386.1V246.4Z" fill="#B5E57C"/>
<path d="M385.2 246.4H378.5L364.6 260.5H371.3L385.2 246.4Z" fill="#E1F5CB"/>
<path d="M386.1 246.4H320.2V311.3H386.1V246.4Z" stroke="#616D7E" stroke-width="2" stroke-miterlimit="10"/>
<path d="M559.8 204.1H369.6V228.3H559.8V204.1Z" fill="#8C97A3"/>
<path d="M559.8 204.1H369.6V228.3H559.8V204.1Z" stroke="#616D7E" stroke-width="2" stroke-miterlimit="10"/>
<path d="M554.7 208.8H374.6V223.5H554.7V208.8Z" fill="white"/>
<path d="M321.2 261.3H386.1" stroke="#616D7E" stroke-width="2" stroke-miterlimit="10"/>
<path opacity="0.3" d="M434.8 320.4C438.1 319 441.1 316.8 443.3 313.7L449.2 305.4C449.5 305 449.6 304.4 449.3 303.8L448.9 302.9H423.4V205.4H399.2V212.6H399.8L399.7 212.7L403.4 215.6V228.1H376.5C375.8 228.1 375.2 228.4 374.8 229C374.4 229.6 374.2 230.1 374.4 230.9L378.7 250.4C379 251.5 380.1 252.4 381.3 252.4H384.9V313.5H379V319.5H380.4V320.2H434.9V320.4H434.8Z" fill="#414042"/>
<path d="M416.1 315.3H166.2C165.5 315.3 164.8 314.6 164.8 313.9V144C164.8 138.1 169.5 133.4 175.4 133.4H407C412.9 133.4 417.6 138.1 417.6 144V313.7C417.5 314.5 416.9 315.3 416.1 315.3Z" fill="#8C97A3"/>
<path d="M403.9 147.7H177V297.2H403.9V147.7Z" fill="#616D7E"/>
<path d="M416.1 315.3H166.2C165.5 315.3 164.8 314.6 164.8 313.9V144C164.8 138.1 169.5 133.4 175.4 133.4H407C412.9 133.4 417.6 138.1 417.6 144V313.7C417.5 314.5 416.9 315.3 416.1 315.3Z" stroke="#616D7E" stroke-width="2" stroke-miterlimit="10"/>
<path d="M423.4 320.4H157.4C151.7 320.4 146.2 317.5 142.9 312.9L137 304.6C137 304.6 137 304.5 137.1 304.5H262L266.4 308.8H307.7L312.4 304.5H443.5C443.6 304.5 443.6 304.6 443.6 304.6L437.7 312.9C434.6 317.6 429.1 320.4 423.4 320.4Z" fill="#F3F4F5"/>
<path d="M423.4 320.4H157.4C151.7 320.4 146.2 317.5 142.9 312.9L137 304.6C137 304.6 137 304.5 137.1 304.5H262L266.4 308.8H307.7L312.4 304.5H443.5C443.6 304.5 443.6 304.6 443.6 304.6L437.7 312.9C434.6 317.6 429.1 320.4 423.4 320.4Z" stroke="#616D7E" stroke-width="2" stroke-miterlimit="10"/>
<path opacity="0.3" d="M376.8 295.8H204.9L192.7 132.1H388.2L376.8 295.8Z" fill="#414042"/>
<path d="M377.8 297V65.8C377.8 63.8 376.1 62.1 374.1 62.1H206.8C204.6 62.1 203.1 63.8 203.1 65.8V296.9L377.8 297Z" fill="white"/>
<path d="M203.1 89.1V64.1C203.1 63 204.1 61.9 205.3 61.9H375.8C376.9 61.9 378 62.9 378 64.1V89.1H203.1Z" fill="#C1C6CC"/>
<path d="M203.1 297V64.3C203.1 63.2 204.1 62.1 205.3 62.1H375.8C376.9 62.1 378 63.1 378 64.3V297" stroke="#616D7E" stroke-width="2" stroke-miterlimit="10"/>
<path d="M203.1 89.6H377.8" stroke="#616D7E" stroke-width="2" stroke-miterlimit="10"/>
<path d="M364.7 186.2H216.8V236.7H364.7V186.2Z" fill="#D6E5ED"/>
<path d="M290.5 105.6H216.8V170.7H290.5V105.6Z" fill="#D6E5ED"/>
<path d="M221.3 75.6C221.3 77.2 220 78.5 218.4 78.5C216.8 78.5 215.5 77.2 215.5 75.6C215.5 74 216.8 72.7 218.4 72.7C220 72.7 221.3 74 221.3 75.6Z" fill="#B5E57C"/>
<path d="M232.5 75.6C232.5 77.2 231.2 78.5 229.6 78.5C228 78.5 226.7 77.2 226.7 75.6C226.7 74 228 72.7 229.6 72.7C231.2 72.7 232.5 74 232.5 75.6Z" fill="#B5E57C"/>
<path d="M243.5 75.6C243.5 77.2 242.2 78.5 240.6 78.5C239 78.5 237.7 77.2 237.7 75.6C237.7 74 239 72.7 240.6 72.7C242.2 72.7 243.5 74 243.5 75.6Z" fill="#B5E57C"/>
<path d="M221.3 75.6C221.3 77.2 220 78.5 218.4 78.5C216.8 78.5 215.5 77.2 215.5 75.6C215.5 74 216.8 72.7 218.4 72.7C220 72.7 221.3 74 221.3 75.6Z" stroke="#616D7E" stroke-width="2" stroke-miterlimit="10" stroke-linecap="round"/>
<path d="M232.5 75.6C232.5 77.2 231.2 78.5 229.6 78.5C228 78.5 226.7 77.2 226.7 75.6C226.7 74 228 72.7 229.6 72.7C231.2 72.7 232.5 74 232.5 75.6Z" stroke="#616D7E" stroke-width="2" stroke-miterlimit="10" stroke-linecap="round"/>
<path d="M243.5 75.6C243.5 77.2 242.2 78.5 240.6 78.5C239 78.5 237.7 77.2 237.7 75.6C237.7 74 239 72.7 240.6 72.7C242.2 72.7 243.5 74 243.5 75.6Z" stroke="#616D7E" stroke-width="2" stroke-miterlimit="10" stroke-linecap="round"/>
<path d="M254.4 133.7C254.4 136.6 252.1 138.9 249.2 138.9C246.3 138.9 244 136.6 244 133.7C244 130.8 246.3 128.5 249.2 128.5C252.1 128.4 254.4 130.7 254.4 133.7Z" fill="white"/>
<path d="M547.4 121.6H430.5C430.4 121.6 430.2 121.7 430.2 121.9V166.8C430.2 166.9 430.3 167.1 430.5 167.1H441.7V184.5C441.7 184.8 442 184.9 442.3 184.6L459.8 167.1H547.4C547.5 167.1 547.7 167 547.7 166.8V121.9C547.6 121.8 547.6 121.6 547.4 121.6Z" fill="white"/>
<path d="M547.4 121.6H541.9V163.1C541.9 163.2 541.8 163.4 541.6 163.4H457.5L441.6 182.2V184.4C441.6 184.7 441.9 184.8 442.2 184.5L459.7 167H547.3C547.4 167 547.6 166.9 547.6 166.7V121.8C547.6 121.8 547.6 121.6 547.4 121.6Z" fill="#E6E7E8"/>
<path d="M547.4 121.6H430.5C430.4 121.6 430.2 121.7 430.2 121.9V166.8C430.2 166.9 430.3 167.1 430.5 167.1H441.7V184.5C441.7 184.8 442 184.9 442.3 184.6L459.8 167.1H547.4C547.5 167.1 547.7 167 547.7 166.8V121.9C547.6 121.8 547.6 121.6 547.4 121.6Z" stroke="#616D7E" stroke-width="2" stroke-miterlimit="10"/>
<path d="M469.2 157.2C477.8 149.9 478.8 137.1 471.5 128.5C464.2 119.9 451.4 118.9 442.8 126.2C434.2 133.5 433.2 146.3 440.5 154.9C447.8 163.4 460.6 164.5 469.2 157.2Z" fill="#8C97A3"/>
<path d="M483.3 133.1H536.8" stroke="#E6E8EB" stroke-width="2" stroke-miterlimit="10" stroke-linecap="round"/>
<path d="M483.3 141.7H536.8" stroke="#E6E8EB" stroke-width="2" stroke-miterlimit="10" stroke-linecap="round"/>
<path d="M483.3 150.5H513.4" stroke="#E6E8EB" stroke-width="2" stroke-miterlimit="10" stroke-linecap="round"/>
<path d="M475 165.1V148.5C475 138.2 466.5 129.6 456.1 129.6C445.8 129.6 437.2 138.1 437.2 148.5V165.1H475Z" fill="#C1C6CC"/>
<path d="M456.1 129.4C445.8 129.4 437.2 137.9 437.2 148.3V154.8C437.2 144.5 445.7 135.9 456.1 135.9C466.4 135.9 475 144.4 475 154.8V148.3C475 138 466.5 129.4 456.1 129.4Z" fill="#E6E8EB"/>
<path d="M475 165.1V148.5C475 138.2 466.5 129.6 456.1 129.6C445.8 129.6 437.2 138.1 437.2 148.5V165.1" stroke="#616D7E" stroke-width="2" stroke-miterlimit="10"/>
<path d="M469.2 157.2C477.8 149.9 478.8 137.1 471.5 128.5C464.2 119.9 451.4 118.9 442.8 126.2C434.2 133.5 433.2 146.3 440.5 154.9C447.8 163.4 460.6 164.5 469.2 157.2Z" stroke="#616D7E" stroke-width="2" stroke-miterlimit="10"/>
<path d="M475.7 111.6V103.3C475.7 92.3 466.7 83.2 455.6 83.2C444.6 83.2 435.5 92.2 435.5 103.3V119H468.2C472.4 119 475.7 115.7 475.7 111.6Z" fill="#B5E57C"/>
<path d="M455.8 137.1C453.5 137.1 451.6 135.2 451.6 132.9V124.2C451.6 121.9 453.5 120 455.8 120C458.1 120 460 121.9 460 124.2V132.9C459.9 135.3 458.1 137.1 455.8 137.1Z" fill="white"/>
<path d="M455.8 137.1C453.5 137.1 451.6 135.2 451.6 132.9V124.2C451.6 121.9 453.5 120 455.8 120C458.1 120 460 121.9 460 124.2V132.9C459.9 135.3 458.1 137.1 455.8 137.1Z" stroke="#616D7E" stroke-width="2" stroke-miterlimit="10"/>
<path d="M471.7 94.5V111.9C471.7 120.6 464.5 127.8 455.8 127.8C447.1 127.8 439.9 120.6 439.9 111.9V94.5H471.7Z" fill="white"/>
<path d="M471.7 99.3V112C471.7 120.7 464.5 127.9 455.8 127.9C447.1 127.9 439.9 120.7 439.9 112V102.4" stroke="#616D7E" stroke-width="2" stroke-miterlimit="10"/>
<path d="M473.6 103.7H467.9C462.6 103.8 455.7 98 455.7 94.4V97.3V104.8C455.7 116 446.7 125 435.5 125.2L436.4 103.4L439.4 93.4L472.5 92.7L473.6 97.4V103.7Z" fill="#B5E57C"/>
<path d="M435.6 124.9C446.8 124.9 455.8 115.7 455.8 104.5V91.4C455.8 98.1 461.3 103.6 468 103.6H473.7" stroke="#616D7E" stroke-width="2" stroke-miterlimit="10"/>
<path d="M470.1 118.9C473.4 118 475.7 115.2 475.7 111.6V103.3C475.7 92.3 466.7 83.2 455.6 83.2C444.6 83.2 435.5 92.2 435.5 103.3V126" stroke="#616D7E" stroke-width="2" stroke-miterlimit="10"/>
<path d="M458.9 108.3H465.4" stroke="#616D7E" stroke-width="2" stroke-miterlimit="10"/>
<path d="M458.1 111V115.6H455.8" stroke="#616D7E" stroke-width="2" stroke-miterlimit="10"/>
<path d="M459.7 120.9C458.8 121.8 457.8 122.2 456.7 122.2H455.8C454.8 122.2 453.8 121.8 453.1 121.2L452.8 120.9" stroke="#616D7E" stroke-width="2" stroke-miterlimit="10"/>
<path d="M435.7 120.2C442.9 117 448 109.9 448 101.6" stroke="#616D7E" stroke-width="2" stroke-miterlimit="10"/>
<path d="M435 114.7C440 111 443.3 105.1 443.3 98.3" stroke="#616D7E" stroke-width="2" stroke-miterlimit="10"/>
<path d="M430.3 108.3V113.3" stroke="#616D7E" stroke-width="2" stroke-miterlimit="10" stroke-linecap="round"/>
<path d="M424.9 112.3L426.2 114.6" stroke="#616D7E" stroke-width="2" stroke-miterlimit="10" stroke-linecap="round"/>
<path d="M418.8 115.2L423.2 117.6" stroke="#616D7E" stroke-width="2" stroke-miterlimit="10" stroke-linecap="round"/>
<path d="M419.9 121.8H422.2" stroke="#616D7E" stroke-width="2" stroke-miterlimit="10" stroke-linecap="round"/>
<path d="M419.1 128.5L423.5 125.9" stroke="#616D7E" stroke-width="2" stroke-miterlimit="10" stroke-linecap="round"/>
<path d="M425.2 131.1L426.5 128.9" stroke="#616D7E" stroke-width="2" stroke-miterlimit="10" stroke-linecap="round"/>
<path d="M249.2 119V124.3" stroke="#616D7E" stroke-width="2" stroke-miterlimit="10" stroke-linecap="round"/>
<path d="M263.7 119L255.8 127" stroke="#616D7E" stroke-width="2" stroke-miterlimit="10" stroke-linecap="round"/>
<path d="M263.7 133.5H258.5" stroke="#616D7E" stroke-width="2" stroke-miterlimit="10" stroke-linecap="round"/>
<path d="M249.4 148.3V142.9" stroke="#616D7E" stroke-width="2" stroke-miterlimit="10" stroke-linecap="round"/>
<path d="M234.9 148.3L242.8 140.1" stroke="#616D7E" stroke-width="2" stroke-miterlimit="10" stroke-linecap="round"/>
<path d="M234.3 133.8L240 133.7" stroke="#616D7E" stroke-width="2" stroke-miterlimit="10" stroke-linecap="round"/>
<path d="M234.6 119.2L242.6 127.2" stroke="#616D7E" stroke-width="2" stroke-miterlimit="10" stroke-linecap="round"/>
<path d="M261.1 145.1L276.4 160.4" stroke="#616D7E" stroke-width="5" stroke-miterlimit="10" stroke-linecap="round"/>
<path d="M249.2 134.7L259.2 159.8C259.3 160.7 259.9 160.7 260.2 159.8L264.1 150.5C264.2 150.1 264.5 149.6 265 149.4L249.4 133.8C249.2 134 249.1 134.2 249.2 134.7Z" fill="#616D7E"/>
<path d="M275.5 143.6L250.4 133.6C250 133.5 249.7 133.6 249.4 133.7L265 149.3C265.4 148.9 265.9 148.6 266.1 148.4L275.6 144.5C276.3 144.3 276.3 143.9 275.5 143.6Z" fill="#616D7E"/>
<path d="M320.6 172.2C325.4 167.6 325.7 160 321.1 155.2C316.5 150.4 308.9 150.1 304.1 154.7C299.3 159.3 299 166.9 303.6 171.7C308.2 176.6 315.8 176.8 320.6 172.2Z" fill="#B5E57C"/>
<path d="M304 161.4L311 168.4L324.6 154.8" stroke="#616D7E" stroke-width="5" stroke-miterlimit="10"/>
<path d="M299.3 113.3H367.3" stroke="#E6E8EB" stroke-width="2" stroke-miterlimit="10" stroke-linecap="round"/>
<path d="M231.7 251.4H349.7" stroke="#E6E8EB" stroke-width="2" stroke-miterlimit="10" stroke-linecap="round"/>
<path d="M231.7 263H349.7" stroke="#E6E8EB" stroke-width="2" stroke-miterlimit="10" stroke-linecap="round"/>
<path d="M231.7 274.7H300.3" stroke="#E6E8EB" stroke-width="2" stroke-miterlimit="10" stroke-linecap="round"/>
<path d="M299.3 124.5H367.3" stroke="#E6E8EB" stroke-width="2" stroke-miterlimit="10" stroke-linecap="round"/>
<path d="M299.3 135.8H367.3" stroke="#E6E8EB" stroke-width="2" stroke-miterlimit="10" stroke-linecap="round"/>
<path d="M299.3 147H333.3" stroke="#E6E8EB" stroke-width="2" stroke-miterlimit="10" stroke-linecap="round"/>
<path d="M296 210.8L285.4 204.6V217L296 210.8L285.4 204.6V217L296 210.8Z" fill="#616D7E"/>
<path d="M300.8 220.7C306.3 215 306 205.9 300.3 200.4C294.6 194.9 285.5 195.2 280 200.9C274.5 206.6 274.8 215.7 280.5 221.2C286.3 226.7 295.3 226.5 300.8 220.7Z" stroke="#616D7E" stroke-width="2" stroke-miterlimit="10"/>
<path d="M199.8 319.7V250.6C199.8 249.5 198.8 248.4 197.6 248.4H165.5V207.4C165.5 206.4 164.6 205.5 163.6 205.5H163.5V303H137.4C136.8 303 136.3 303.3 136.1 303.9L135.7 304.8L142 313.8C145.6 318.8 151.5 322 157.6 322H197.8C198.8 321.9 199.8 320.9 199.8 319.7Z" fill="#4B4E5C"/>
<path d="M160.5 303.5H64.5V207.5C64.5 207.2 64.8 206.9 65.1 206.9H159.8C160.1 206.9 160.4 207.2 160.4 207.5V303.5H160.5Z" fill="#DADDE0"/>
<path d="M64.5 303.5V207.5C64.5 207.2 64.8 207.1 64.9 207.1H159.7C160 207.1 160.1 207.4 160.1 207.5V303.5" stroke="#616D7E" stroke-width="2" stroke-miterlimit="10"/>
<path d="M87.7001 224C87.7001 226.9 85.4001 229.3 82.4001 229.3C79.5001 229.3 77.1001 227 77.1001 224C77.1001 221.1 79.4001 218.7 82.4001 218.7C85.3001 218.7 87.7001 221.2 87.7001 224Z" fill="#8C97A3"/>
<path d="M147.8 224C147.8 226.9 145.5 229.3 142.5 229.3C139.6 229.3 137.2 227 137.2 224C137.2 221.1 139.5 218.7 142.5 218.7C145.4 218.7 147.8 221.2 147.8 224Z" fill="#8C97A3"/>
<path d="M82.3999 222.2V235.8C82.3999 252.3 95.8999 265.9 112.5 265.9C129 265.9 142.6 252.4 142.6 235.8V222.2" stroke="#616D7E" stroke-width="2" stroke-miterlimit="10" stroke-linecap="round"/>
<path d="M160.5 303.5H64.5L62.2 319.1H162.7L160.5 303.5Z" fill="#C1C6CC"/>
<path d="M95.5 303.5H64.5L62.2 319.1H162.7L160.4 303.5" stroke="#616D7E" stroke-width="2" stroke-miterlimit="10"/>
<path opacity="0.3" d="M192.9 248.7H91.8V320.4H192.9V248.7Z" fill="#414042"/>
<path d="M194 320.4H95.9C95.5 320.4 95.2 320.1 95.2 319.7V250.6C95.2 250.2 95.5 249.9 95.9 249.9H194C194.4 249.9 194.7 250.2 194.7 250.6V319.7C194.7 320.1 194.4 320.4 194 320.4Z" fill="#B5E57C"/>
<path d="M194 320.4H181.8C181.4 320.4 181.1 320.1 181.1 319.7V250.6C181.1 250.2 181.4 249.9 181.8 249.9H194C194.4 249.9 194.7 250.2 194.7 250.6V319.7C194.7 320.1 194.4 320.4 194 320.4Z" fill="#E1F5CB"/>
<path d="M169.8 283.5C168.4 283.5 167.2 283.9 166.1 284.5C165.7 284.7 165.2 284.8 164.8 284.5C164.4 284.3 164.1 283.8 164.1 283.4V274.9C164.1 273.6 163 272.5 161.7 272.5H151.2C150.7 272.5 150.3 272.3 150.1 271.9C149.9 271.5 149.9 271 150.1 270.6C150.7 269.6 151 268.4 151 267.1C151 263.1 147.8 259.9 143.9 259.9C139.9 259.9 136.7 263.1 136.7 267.1C136.7 268.4 137 269.5 137.6 270.6C137.8 271 137.8 271.5 137.6 271.9C137.4 272.3 136.9 272.5 136.5 272.5H126C124.7 272.5 123.6 273.5 123.6 274.9V283.2C123.6 283.7 123.8 284.1 124.2 284.3C124.6 284.5 125.1 284.6 125.5 284.3C126.5 283.8 127.7 283.4 128.9 283.5C132.9 283.5 136.1 286.7 136 290.7C136 294.7 132.8 297.9 128.8 297.8C127.6 297.8 126.4 297.5 125.4 296.9C125 296.7 124.5 296.7 124.1 296.9C123.7 297.1 123.5 297.6 123.5 298V306.8C123.5 308.1 124.6 309.2 125.9 309.2L161.7 309.3C163 309.3 164.1 308.2 164.1 306.9V297.9C164.1 297.4 164.4 297 164.8 296.8C165.2 296.6 165.7 296.6 166.1 296.8C167.2 297.5 168.4 297.8 169.8 297.8C173.8 297.8 177 294.6 177 290.7C177 286.7 173.8 283.5 169.8 283.5Z" fill="white"/>
<path d="M194 320.4H95.9C95.5 320.4 95.2 320.1 95.2 319.7V250.6C95.2 250.2 95.5 249.9 95.9 249.9H194C194.4 249.9 194.7 250.2 194.7 250.6V319.7C194.7 320.1 194.4 320.4 194 320.4Z" stroke="#616D7E" stroke-width="2" stroke-miterlimit="10"/>
<path d="M121 263.2C121 266.1 118.7 268.5 115.7 268.5C112.8 268.5 110.4 266.2 110.4 263.2C110.4 260.3 112.7 257.9 115.7 257.9C118.6 257.9 121 260.3 121 263.2Z" fill="#8C97A3"/>
<path d="M181.1 263.2C181.1 266.1 178.8 268.5 175.8 268.5C172.9 268.5 170.5 266.2 170.5 263.2C170.5 260.3 172.8 257.9 175.8 257.9C178.7 257.9 181.1 260.3 181.1 263.2Z" fill="#8C97A3"/>
<path d="M115.7 261.8V275.4C115.7 291.9 129.2 305.5 145.8 305.5C162.3 305.5 175.9 292 175.9 275.4V261.8" stroke="#616D7E" stroke-width="2" stroke-miterlimit="10" stroke-linecap="round"/>
<path d="M64.1999 320.4H23.2C18.8 320.4 15.2 316.8 15.2 312.4V227.5C15.2 223.1 18.8 219.5 23.2 219.5H64.1999C68.5999 219.5 72.1999 223.1 72.1999 227.5V312.4C72.1999 316.8 68.6999 320.4 64.1999 320.4Z" fill="white"/>
<path d="M36.7001 219.6H69.7C71.1 219.6 72.1 220.7 72.1 222V317.8C72.1 319.2 71 320.2 69.7 320.2H17.7C16.3 320.2 15.3 319.1 15.3 317.8V222C15.3 220.6 16.4 219.6 17.7 219.6H26.3H36.7001Z" stroke="#616D7E" stroke-width="2" stroke-miterlimit="10"/>
<path d="M37.1001 227.2H50.2001" stroke="#616D7E" stroke-width="2" stroke-miterlimit="10" stroke-linecap="round"/>
<path d="M54.7 227.2H53.5" stroke="#616D7E" stroke-width="2" stroke-miterlimit="10" stroke-linecap="round"/>
<path d="M68.4 234.1H19V305.5H68.3L68.4 234.1Z" fill="#616D7E"/>
<g opacity="0.3">
<path d="M19 248.3V266.1L58.4 305.5H68.3V297.6L19 248.3Z" fill="white"/>
<path d="M68.4 291.7V251.8L50.6 234H19V242.3L68.4 291.7Z" fill="white"/>
</g>
<path opacity="0.3" d="M123 267.8L127.9 260.9L135.8 257.6C136.7 257.3 137.1 256.5 137.1 255.6L137 247.1L141.4 239.8C141.8 239.1 141.8 238.1 141.3 237.4L136.3 230.7L135.6 222.2C135.5 221.3 134.9 220.6 134 220.3L126 217.7L120.5 211.2C119.9 210.5 118.9 210.2 118.1 210.5L114.7 211.6V267.1L120.9 268.5C121.6 268.8 122.4 268.5 123 267.8Z" fill="#414042"/>
<path d="M136.8 238.7L131.9 246.7L132 256L123.3 259.6L118 267.3L108.8 265.1L99.9001 268.1L93.7001 260.9L84.7001 258.2L84.0001 248.7L78.4001 241.2L83.3001 233.2L83.2001 223.7L91.9001 220.1L97.4001 212.4L106.4 214.7L115.3 211.5L121.5 218.7L130.5 221.6L131.2 230.9L136.8 238.7Z" fill="white"/>
<path d="M136.5 239.1L132.1 246.6C132 246.7 132 246.9 132 247L132.1 255.6C132.1 255.9 132 256.2 131.7 256.3L123.7 259.6C123.6 259.6 123.4 259.7 123.4 259.9L118.4 266.9C118.3 267.2 118 267.3 117.5 267.2L109 265.2C108.9 265.2 108.7 265.2 108.6 265.2L100.4 267.9C100.1 268 99.8 267.9 99.5 267.6L93.9 261C93.8 260.9 93.8 260.9 93.6 260.7L85.3 258.1C85 258 84.7 257.8 84.7 257.4L84 248.8C84 248.7 84 248.5 83.9 248.4L78.7 241.4C78.6 241.1 78.6 240.8 78.7 240.5L83.1 233C83.2 232.9 83.2 232.7 83.2 232.6L83.1 224C83.1 223.7 83.2 223.4 83.5 223.3L91.5 220C91.6 220 91.8 219.9 91.8 219.7L96.8 212.7C96.9 212.4 97.2 212.3 97.7 212.4L106.2 214.4C106.3 214.4 106.5 214.4 106.6 214.4L114.8 211.7C115.1 211.6 115.4 211.7 115.7 212L121.3 218.6C121.4 218.7 121.4 218.7 121.6 218.9L129.9 221.5C130.2 221.6 130.5 221.8 130.5 222.2L131.2 230.8C131.2 230.9 131.2 231.1 131.3 231.2L136.5 238.2C136.6 238.4 136.8 238.8 136.5 239.1Z" stroke="#616D7E" stroke-width="2" stroke-miterlimit="10"/>
<path d="M128 238.9C128.6 250.2 119.8 259.8 108.5 260.3C97.2 260.9 87.6 252.1 87.1 240.8C86.5 229.5 95.3 219.9 106.6 219.4C118 218.9 127.4 227.6 128 238.9Z" fill="#B5E57C"/>
<path d="M104.6 230.2C105.5 231.2 106 232.4 106 233.8C106 235.2 105.6 236.4 104.6 237.4C103.7 238.4 102.4 239 101.2 239C99.8001 239 98.6001 238.6 97.8001 237.6C96.9001 236.6 96.4001 235.4 96.4001 234C96.4001 232.6 96.8001 231.4 97.8001 230.4C98.7001 229.4 100 228.8 101.2 228.8C102.6 228.6 103.8 229.2 104.6 230.2ZM117.7 229.2L101.2 251.7H97.0001L113.5 229.2H117.7ZM102.5 235.5C102.8 235.1 103.1 234.5 103.1 233.9C103.1 233.3 103 232.8 102.5 232.3C102.1 231.9 101.6 231.6 101.2 231.6C100.6 231.6 100.2 231.9 99.9001 232.3C99.6001 232.7 99.3001 233.3 99.3001 233.9C99.3001 234.5 99.4001 235 99.9001 235.5C100.3 235.9 100.8 236.2 101.2 236.2C101.8 236.1 102.2 235.9 102.5 235.5ZM117.4 243.2C118.3 244.2 118.8 245.4 118.8 246.8C118.8 248.2 118.4 249.4 117.4 250.4C116.5 251.4 115.2 252 114 252C112.6 252 111.4 251.6 110.6 250.6C109.7 249.6 109.2 248.4 109.2 247C109.2 245.6 109.6 244.4 110.6 243.4C111.5 242.4 112.8 241.8 114 241.8C115.4 241.7 116.5 242.2 117.4 243.2ZM115.4 248.6C115.7 248.2 116 247.6 116 247C116 246.4 115.9 245.9 115.4 245.4C115 245 114.5 244.7 114.1 244.7C113.5 244.7 113.1 245 112.8 245.4C112.5 245.8 112.2 246.4 112.2 247C112.2 247.6 112.3 248.1 112.8 248.6C113.2 249 113.7 249.3 114.1 249.3C114.5 249.3 115 249 115.4 248.6Z" fill="#616D7E"/>
<path d="M107.6 202.8V206.5" stroke="#616D7E" stroke-width="2" stroke-miterlimit="10" stroke-linecap="round"/>
<path d="M107.8 280.7V273" stroke="#616D7E" stroke-width="2" stroke-miterlimit="10" stroke-linecap="round"/>
<path d="M95 274.7L96.4 271.1" stroke="#616D7E" stroke-width="2" stroke-miterlimit="10" stroke-linecap="round"/>
<path d="M81.4001 271.2L86.4001 265.3" stroke="#616D7E" stroke-width="2" stroke-miterlimit="10" stroke-linecap="round"/>
<path d="M75.7 258.4L79 256.5" stroke="#616D7E" stroke-width="2" stroke-miterlimit="10" stroke-linecap="round"/>
<path d="M67.3 247.1L74.9 245.8" stroke="#616D7E" stroke-width="2" stroke-miterlimit="10" stroke-linecap="round"/>
<path d="M71.1001 233.9L74.8001 234.2" stroke="#616D7E" stroke-width="2" stroke-miterlimit="10" stroke-linecap="round"/>
<path d="M71.9001 219.6L78.6001 223.5" stroke="#616D7E" stroke-width="2" stroke-miterlimit="10" stroke-linecap="round"/>
<path d="M84 212.1L86 214.5" stroke="#616D7E" stroke-width="2" stroke-miterlimit="10" stroke-linecap="round"/>
<path d="M93.3 201.5L96 208.7" stroke="#616D7E" stroke-width="2" stroke-miterlimit="10" stroke-linecap="round"/>
<path d="M329.8 60.7H259.9C264.1 76 278.1 87.4 294.9 87.4C311.6 87.3 325.7 76 329.8 60.7Z" fill="#8C97A3"/>
<path d="M294.9 82.3C314.1 82.3 329.8 66.7 329.8 47.4C329.8 28.2 314.2 12.5 294.9 12.5C275.7 12.5 260 28.1 260 47.4C260 66.7 275.6 82.3 294.9 82.3Z" fill="#8C97A3"/>
<path d="M294.9 82.3C314.1 82.3 329.8 66.7 329.8 47.4C329.8 28.2 314.2 12.5 294.9 12.5C275.7 12.5 260 28.1 260 47.4C260 66.7 275.6 82.3 294.9 82.3Z" stroke="#616D7E" stroke-width="2" stroke-miterlimit="10"/>
<path d="M294.9 76.2C310.7 76.2 323.6 63.4 323.6 47.5C323.6 31.6 310.8 18.8 294.9 18.8C279.1 18.8 266.2 31.6 266.2 47.5C266.2 63.4 279 76.2 294.9 76.2Z" fill="#B5E57C"/>
<path d="M313.8 50.5C315.4 40 308.2 30.2 297.7 28.6C287.2 27 277.4 34.2 275.8 44.7C274.2 55.2 281.4 65 291.9 66.6C302.4 68.2 312.2 61 313.8 50.5Z" fill="white"/>
<path d="M294.9 76.2C310.7 76.2 323.6 63.4 323.6 47.5C323.6 31.6 310.8 18.8 294.9 18.8C279.1 18.8 266.2 31.6 266.2 47.5C266.2 63.4 279 76.2 294.9 76.2Z" stroke="#616D7E" stroke-width="2" stroke-miterlimit="10"/>
<path d="M294.9 66.8C289.6 66.8 284.7 64.6 281.3 61.2C277.9 57.8 275.7 52.9 275.7 47.6C275.7 42.3 277.9 37.4 281.3 34C284.7 30.6 289.6 28.4 294.9 28.4C300.2 28.4 305.1 30.6 308.5 34C311.4 36.9 313.4 40.6 314 44.8" stroke="#616D7E" stroke-width="2" stroke-miterlimit="10"/>
<path d="M309.3 40.2L313.7 44.1L317.6 39.5L317.9 43.1L314 47.5L309.6 43.8L309.3 40.2Z" fill="#616D7E"/>
<path d="M296.1 22.7C296.1 23.4 295.5 24 294.8 24C294.1 24 293.5 23.4 293.5 22.7C293.5 22 294.1 21.4 294.8 21.4C295.6 21.4 296.1 21.9 296.1 22.7Z" fill="#616D7E"/>
<path d="M304.6 24.5C304.3 25.2 303.6 25.5 303 25.2C302.3 24.9 302 24.2 302.3 23.6C302.6 22.9 303.3 22.6 303.9 22.9C304.5 23.2 304.9 23.9 304.6 24.5Z" fill="#616D7E"/>
<path d="M311.9 29.3C311.5 29.9 310.6 29.9 310 29.4C309.4 29 309.4 28.1 309.9 27.5C310.3 26.9 311.2 26.9 311.8 27.4C312.2 28 312.4 28.7 311.9 29.3Z" fill="#616D7E"/>
<path d="M317.1 36.1C316.5 36.4 315.7 36.2 315.4 35.7C315.1 35.1 315.3 34.3 315.8 34C316.4 33.7 317.2 33.9 317.5 34.4C317.9 35 317.7 35.9 317.1 36.1Z" fill="#616D7E"/>
<path d="M319.7 44.5C319 44.6 318.4 44.2 318.3 43.5C318.2 42.8 318.6 42.2 319.3 42.1C320 42 320.6 42.4 320.7 43.1C320.8 43.6 320.4 44.3 319.7 44.5Z" fill="#616D7E"/>
<path d="M319.2 53.1C318.5 53 318.1 52.4 318.2 51.7C318.3 51 318.9 50.6 319.6 50.7C320.3 50.8 320.7 51.4 320.6 52.1C320.5 52.8 320 53.2 319.2 53.1Z" fill="#616D7E"/>
<path d="M315.8 61.1C315.2 60.8 314.9 60 315.4 59.4C315.7 58.8 316.5 58.5 317.1 59C317.7 59.3 318 60.1 317.5 60.7C317.2 61.2 316.5 61.4 315.8 61.1Z" fill="#616D7E"/>
<path d="M309.9 67.4C309.5 66.8 309.5 66.1 310 65.5C310.6 65.1 311.3 65.1 311.9 65.6C312.3 66.2 312.3 66.9 311.8 67.5C311.3 68.1 310.5 68 309.9 67.4Z" fill="#616D7E"/>
<path d="M302.3 71.3C302 70.6 302.4 69.9 303 69.7C303.7 69.4 304.4 69.8 304.6 70.4C304.9 71.1 304.5 71.8 303.9 72C303.3 72.3 302.6 72 302.3 71.3Z" fill="#616D7E"/>
<path d="M293.7 72.4C293.7 71.7 294.3 71.1 295 71.1C295.7 71.1 296.3 71.7 296.3 72.4C296.3 73.1 295.7 73.7 295 73.7C294.3 73.7 293.7 73.1 293.7 72.4Z" fill="#616D7E"/>
<path d="M285.2 70.6C285.5 69.9 286.2 69.6 286.8 69.9C287.5 70.2 287.8 70.9 287.5 71.5C287.2 72.2 286.5 72.5 285.9 72.2C285.4 71.9 285.1 71.1 285.2 70.6Z" fill="#616D7E"/>
<path d="M278.1 65.8C278.5 65.2 279.4 65.2 280 65.7C280.6 66.2 280.6 67 280.1 67.6C279.7 68.2 278.8 68.2 278.2 67.7C277.6 67.3 277.5 66.4 278.1 65.8Z" fill="#616D7E"/>
<path d="M272.8 58.9C273.4 58.6 274.2 58.8 274.5 59.3C274.8 59.9 274.6 60.7 274.1 61C273.5 61.3 272.7 61.1 272.4 60.6C271.9 60.1 272.2 59.4 272.8 58.9Z" fill="#616D7E"/>
<path d="M270.2 50.8C270.9 50.7 271.5 51.1 271.6 51.8C271.7 52.5 271.3 53.1 270.6 53.2C269.9 53.3 269.3 52.9 269.2 52.2C269 51.5 269.5 50.9 270.2 50.8Z" fill="#616D7E"/>
<path d="M270.6 42.2C271.3 42.3 271.7 42.9 271.6 43.6C271.5 44.3 270.9 44.7 270.2 44.6C269.5 44.5 269.1 43.9 269.2 43.2C269.2 42.5 269.9 42 270.6 42.2Z" fill="#616D7E"/>
<path d="M273.9 34.1C274.5 34.4 274.8 35.2 274.3 35.8C274 36.4 273.2 36.7 272.6 36.2C272 35.9 271.7 35.1 272.2 34.5C272.5 34 273.3 33.7 273.9 34.1Z" fill="#616D7E"/>
<path d="M279.8 27.8C280.2 28.4 280.2 29.1 279.7 29.7C279.1 30.1 278.4 30.1 277.8 29.6C277.4 29 277.4 28.3 277.9 27.7C278.5 27.1 279.4 27.2 279.8 27.8Z" fill="#616D7E"/>
<path d="M287.4 23.8C287.7 24.5 287.3 25.2 286.7 25.4C286 25.7 285.3 25.3 285.1 24.7C284.8 24 285.2 23.3 285.8 23.1C286.4 22.9 287.3 23.1 287.4 23.8Z" fill="#616D7E"/>
<path d="M294.4 52.9V55.3H283.1V53.4L289.3 47.5C290.7 46.1 291 45.2 291 44.3C291 42.9 290 42 288.1 42C286.7 42 285.4 42.6 284.5 43.6L282.5 42C283.6 40.4 285.8 39.4 288.4 39.4C291.7 39.4 293.9 41.1 293.9 43.8C293.9 45.2 293.5 46.7 291.3 48.7L287.1 52.6H294.4V52.9Z" fill="#616D7E"/>
<path d="M309.5 51.9H306.8V55.3H304.1V51.9H295.6V49.9L303.2 40H306.2L299 49.5H304V46.3H306.7V49.5H309.4V51.9H309.5Z" fill="#616D7E"/>
<path d="M294.9 2.7V7.4" stroke="#616D7E" stroke-width="2" stroke-miterlimit="10" stroke-linecap="round"/>
<path d="M311.8 1L308.6 9.9" stroke="#616D7E" stroke-width="2" stroke-miterlimit="10" stroke-linecap="round"/>
<path d="M323.5 13.2L320.5 16.8" stroke="#616D7E" stroke-width="2" stroke-miterlimit="10" stroke-linecap="round"/>
<path d="M337.6 22.7L329.6 27.4" stroke="#616D7E" stroke-width="2" stroke-miterlimit="10" stroke-linecap="round"/>
<path d="M338.9 39.6L334.3 40.5" stroke="#616D7E" stroke-width="2" stroke-miterlimit="10" stroke-linecap="round"/>
<path d="M250.8 40.4L255.4 40.8" stroke="#616D7E" stroke-width="2" stroke-miterlimit="10" stroke-linecap="round"/>
<path d="M251.8 23.1L260 27.7" stroke="#616D7E" stroke-width="2" stroke-miterlimit="10" stroke-linecap="round"/>
<path d="M266.3 14.1L268.9 17.1" stroke="#616D7E" stroke-width="2" stroke-miterlimit="10" stroke-linecap="round"/>
<path d="M277.5 1.10001L280.8 9.80001" stroke="#616D7E" stroke-width="2" stroke-miterlimit="10" stroke-linecap="round"/>
<path d="M323.7 263.6L331.5 285.9H381.7L389.7 263.6H323.7Z" fill="white"/>
<path d="M349.9 297.8C349.9 300.7 347.5 303.1 344.6 303.1C341.7 303.1 339.3 300.7 339.3 297.8C339.3 294.9 341.7 292.5 344.6 292.5C347.6 292.5 349.9 294.7 349.9 297.8Z" fill="white"/>
<path d="M352 262.8H326.5V232.5C326.5 230.9 327.8 229.6 329.4 229.6H349.2C350.8 229.6 352.1 230.9 352.1 232.5L352 262.8Z" fill="#FFA8A8"/>
<path d="M326.3 262.8V232.5C326.3 230.9 327.6 229.6 329.2 229.6H349C350.6 229.6 351.9 230.9 351.9 232.5V243.5" stroke="#616D7E" stroke-width="2" stroke-miterlimit="10"/>
<path d="M383.9 262.8H348.3V245.6C348.3 244.5 349.3 243.4 350.5 243.4H381.8C382.9 243.4 384 244.4 384 245.6V262.8H383.9Z" fill="#C1C6CC"/>
<path d="M348.3 262.8V246.4C348.3 244.8 349.6 243.5 351.2 243.5H380.9C382.5 243.5 383.8 244.8 383.8 246.4V262.8" stroke="#616D7E" stroke-width="2" stroke-miterlimit="10"/>
<path d="M351.7 250.4H362.9" stroke="#616D7E" stroke-width="2" stroke-miterlimit="10" stroke-linecap="round"/>
<path d="M351.7 256.3H357.3" stroke="#616D7E" stroke-width="2" stroke-miterlimit="10" stroke-linecap="round"/>
<path d="M376.3 297.8H380.9" stroke="#616D7E" stroke-width="2" stroke-miterlimit="10"/>
<path d="M350.4 297.8H364" stroke="#616D7E" stroke-width="2" stroke-miterlimit="10"/>
<path d="M305 253.6L320.9 254.9L334.7 297.8H338.4" stroke="#616D7E" stroke-width="2" stroke-miterlimit="10"/>
<path d="M323.9 263H389.7" stroke="#616D7E" stroke-width="2" stroke-miterlimit="10"/>
<path d="M326.2 270.5H386" stroke="#616D7E" stroke-width="2" stroke-miterlimit="10"/>
<path d="M327.9 277.8H384.3" stroke="#616D7E" stroke-width="2" stroke-miterlimit="10"/>
<path d="M375.2 297.8C375.2 300.7 372.8 303.1 369.9 303.1C367 303.1 364.6 300.7 364.6 297.8C364.6 294.9 367 292.5 369.9 292.5C372.8 292.5 375.2 294.7 375.2 297.8Z" fill="white"/>
<path d="M349.9 297.8C349.9 300.7 347.5 303.1 344.6 303.1C341.7 303.1 339.3 300.7 339.3 297.8C339.3 294.9 341.7 292.5 344.6 292.5C347.6 292.5 349.9 294.7 349.9 297.8Z" stroke="#616D7E" stroke-width="2" stroke-miterlimit="10"/>
<path d="M375.2 297.8C375.2 300.7 372.8 303.1 369.9 303.1C367 303.1 364.6 300.7 364.6 297.8C364.6 294.9 367 292.5 369.9 292.5C372.8 292.5 375.2 294.7 375.2 297.8Z" stroke="#616D7E" stroke-width="2" stroke-miterlimit="10"/>
<path d="M390.3 259L381.7 285.8H330.9" stroke="#616D7E" stroke-width="2" stroke-miterlimit="10"/>
<path d="M342.7 297.8H346.6" stroke="#616D7E" stroke-width="2" stroke-miterlimit="10"/>
<path d="M368.1 297.8H372" stroke="#616D7E" stroke-width="2" stroke-miterlimit="10"/>
<path d="M435.4 219.5V214.9L433.5 218.4H432.9L431 214.9V219.5H430V213.1H431.1L433.2 217L435.3 213.1H436.4V219.5H435.4Z" fill="#616D7E"/>
<path d="M440.6 219.5C440.1 219.5 439.7 219.4 439.4 219.2C439 219 438.7 218.8 438.4 218.5C438.1 218.2 437.9 217.9 437.8 217.5C437.7 217.1 437.6 216.7 437.6 216.3C437.6 215.9 437.7 215.5 437.8 215.1C438 214.7 438.2 214.4 438.4 214.1C438.7 213.8 439 213.6 439.4 213.4C439.8 213.2 440.2 213.1 440.6 213.1C441.1 213.1 441.5 213.2 441.8 213.4C442.2 213.6 442.5 213.8 442.8 214.1C443.1 214.4 443.3 214.8 443.4 215.1C443.5 215.4 443.6 215.9 443.6 216.3C443.6 216.7 443.5 217.1 443.4 217.5C443.2 217.9 443 218.2 442.8 218.5C442.5 218.8 442.2 219 441.8 219.2C441.4 219.4 441 219.5 440.6 219.5ZM438.6 216.3C438.6 216.6 438.6 216.9 438.7 217.2C438.8 217.5 438.9 217.7 439.1 217.9C439.3 218.1 439.5 218.3 439.7 218.4C440 218.5 440.2 218.6 440.5 218.6C440.8 218.6 441.1 218.5 441.4 218.4C441.6 218.3 441.9 218.1 442 217.9C442.1 217.7 442.3 217.4 442.4 217.2C442.5 217 442.5 216.6 442.5 216.4C442.5 216.1 442.5 215.8 442.4 215.5C442.3 215.2 442.2 215 442 214.8C441.8 214.6 441.6 214.4 441.4 214.3C441.2 214.2 440.9 214.1 440.6 214.1C440.3 214.1 440 214.2 439.7 214.3C439.4 214.4 439.2 214.6 439.1 214.8C438.9 215 438.8 215.3 438.7 215.5C438.6 215.7 438.6 216 438.6 216.3Z" fill="#616D7E"/>
<path d="M443.9 218.6H444C444.2 218.6 444.3 218.5 444.5 218.4C444.6 218.3 444.8 218.1 444.9 217.9C445 217.6 445.1 217.3 445.2 216.8C445.3 216.3 445.4 215.7 445.4 214.9L445.5 213.1H449.1V218.6H450.1V221.1H449.2V219.5H444.8V221.1H443.9V218.6ZM448.3 218.6V214H446.6L446.5 215C446.5 215.5 446.4 215.9 446.4 216.3C446.3 216.7 446.3 217 446.2 217.3C446.1 217.6 446 217.8 445.9 218.1C445.8 218.3 445.7 218.5 445.6 218.6H448.3Z" fill="#616D7E"/>
<path d="M452.1 219.5C452 219.5 451.8 219.5 451.7 219.5C451.5 219.5 451.4 219.4 451.3 219.4L451.4 218.6C451.5 218.6 451.6 218.7 451.7 218.7C451.8 218.7 451.9 218.7 452.1 218.7C452.3 218.7 452.5 218.6 452.6 218.5C452.7 218.4 452.9 218.2 453 217.9L450.7 213.1H451.8L453.5 216.8L455.1 213.1H456.2L454 218C453.9 218.3 453.7 218.5 453.6 218.7C453.5 218.9 453.3 219.1 453.2 219.2C453.1 219.3 452.9 219.4 452.8 219.5C452.5 219.5 452.3 219.5 452.1 219.5Z" fill="#616D7E"/>
<path d="M458 215C457.9 215.8 457.8 216.5 457.7 217.1C457.6 217.7 457.4 218.1 457.3 218.5C457.1 218.9 456.9 219.1 456.6 219.3C456.3 219.5 456 219.5 455.6 219.5L455.5 218.6C455.7 218.6 455.9 218.5 456 218.4C456.2 218.3 456.3 218.1 456.4 217.9C456.5 217.7 456.6 217.3 456.7 216.8C456.8 216.3 456.9 215.7 456.9 214.9L457.1 213.1H460.7V219.5H459.7V214H458V215Z" fill="#616D7E"/>
<path d="M463.4 217.9L466.9 213.1H467.7V219.5H466.7V214.8L463.3 219.5H462.4V213.1H463.4V217.9Z" fill="#616D7E"/>
<path d="M470.9 218.6C471.2 218.6 471.3 218.5 471.5 218.4C471.6 218.3 471.8 218.1 471.9 217.9C472 217.6 472.1 217.3 472.2 216.8C472.3 216.3 472.4 215.7 472.4 214.9L472.5 213.1H476.1V218.6H477.1V221.1H476.2V219.5H471.8V221.1H470.9V218.6ZM475.3 218.6V214H473.6L473.5 215C473.5 215.5 473.4 215.9 473.4 216.3C473.3 216.7 473.3 217 473.2 217.3C473.1 217.6 473 217.8 472.9 218.1C472.8 218.3 472.7 218.5 472.6 218.6H475.3Z" fill="#616D7E"/>
<path d="M480 215C479.9 215.8 479.8 216.5 479.7 217.1C479.6 217.7 479.4 218.1 479.3 218.5C479.1 218.9 478.9 219.1 478.6 219.3C478.3 219.5 478 219.5 477.6 219.5L477.5 218.6C477.7 218.6 477.9 218.5 478 218.4C478.2 218.3 478.3 218.1 478.4 217.9C478.5 217.7 478.6 217.3 478.7 216.8C478.8 216.3 478.9 215.7 478.9 214.9L479.1 213.1H482.7V219.5H481.7V214H480V215Z" fill="#616D7E"/>
<path d="M487.7 219.5V217.1H486.5L485 219.5H483.9L485.5 217C485.3 216.9 485.2 216.8 485 216.7C484.8 216.6 484.7 216.4 484.6 216.3C484.5 216.2 484.4 216 484.3 215.8C484.2 215.6 484.2 215.4 484.2 215.2C484.2 214.9 484.2 214.7 484.3 214.5C484.4 214.3 484.5 214 484.7 213.9C484.9 213.7 485.1 213.6 485.3 213.5C485.5 213.4 485.8 213.3 486.1 213.3H488.7V219.7H487.7V219.5ZM487.7 214H486.2C486.1 214 485.9 214 485.8 214.1C485.7 214.2 485.6 214.2 485.5 214.3C485.4 214.4 485.3 214.5 485.3 214.7C485.2 214.8 485.2 215 485.2 215.1C485.2 215.3 485.2 215.4 485.3 215.5C485.3 215.6 485.4 215.7 485.5 215.8C485.6 215.9 485.7 216 485.8 216C485.9 216.1 486.1 216.1 486.2 216.1H487.7V214Z" fill="#616D7E"/>
<path d="M496.3 218.5V219.5H492.5V218.5H493.9V215C493.8 215.1 493.7 215.2 493.6 215.2C493.5 215.2 493.3 215.4 493.2 215.4C493 215.5 492.9 215.5 492.7 215.6C492.5 215.6 492.4 215.7 492.3 215.7V214.7C492.4 214.7 492.6 214.7 492.8 214.6C493 214.5 493.1 214.4 493.3 214.3C493.5 214.2 493.6 214.1 493.7 214C493.8 213.9 493.9 213.8 493.9 213.8H495V218.5H496.3Z" fill="#616D7E"/>
<path d="M497 216.2C497 215.8 497.1 215.4 497.2 215.1C497.3 214.7 497.5 214.4 497.8 214.1C498.1 213.8 498.4 213.6 498.8 213.4C499.2 213.2 499.6 213.1 500.1 213.1C500.7 213.1 501.2 213.2 501.6 213.5C502 213.8 502.3 214.1 502.5 214.5L501.7 215C501.6 214.8 501.5 214.6 501.4 214.5C501.3 214.4 501.1 214.3 501 214.2C500.9 214.1 500.7 214.1 500.5 214C500.3 214 500.2 214 500 214C499.7 214 499.4 214.1 499.1 214.2C498.8 214.3 498.6 214.5 498.5 214.7C498.3 214.9 498.2 215.2 498.1 215.4C498 215.7 498 216 498 216.2C498 216.5 498.1 216.8 498.2 217.1C498.3 217.4 498.4 217.6 498.6 217.8C498.8 218 499 218.2 499.3 218.3C499.6 218.4 499.8 218.5 500.1 218.5C500.3 218.5 500.4 218.5 500.6 218.4C500.8 218.3 500.9 218.3 501.1 218.2C501.3 218.1 501.4 218 501.5 217.9C501.6 217.8 501.7 217.6 501.8 217.4L502.6 217.9C502.5 218.1 502.4 218.4 502.2 218.5C502 218.7 501.8 218.8 501.6 219C501.4 219.2 501.1 219.2 500.9 219.3C500.6 219.4 500.4 219.4 500.1 219.4C499.6 219.4 499.2 219.3 498.9 219.1C498.5 218.9 498.2 218.7 497.9 218.3C497.6 218 497.4 217.6 497.3 217.2C497 217.1 497 216.7 497 216.2Z" fill="#616D7E"/>
<path d="M503.4 217.5V216.6H506.1V217.5H503.4Z" fill="#616D7E"/>
<path d="M507.5 213.1H512.1V214H508.5V215.7H510.5C510.8 215.7 511 215.7 511.3 215.8C511.5 215.9 511.7 216 511.9 216.2C512.1 216.4 512.2 216.6 512.3 216.8C512.4 217 512.4 217.3 512.4 217.6C512.4 217.9 512.4 218.2 512.3 218.4C512.2 218.6 512.1 218.8 511.9 219C511.7 219.2 511.5 219.3 511.3 219.4C511.1 219.5 510.8 219.5 510.5 219.5H507.5V213.1ZM510.4 218.6C510.7 218.6 511 218.5 511.1 218.3C511.3 218.1 511.3 217.9 511.3 217.5C511.3 217.2 511.2 216.9 511.1 216.7C510.9 216.5 510.7 216.4 510.4 216.4H508.5V218.5H510.4V218.6Z" fill="#616D7E"/>
<path d="M514.5 217.9L518 213.1H518.8V219.5H517.8V214.8L514.4 219.5H513.5V213.1H514.5V217.9Z" fill="#616D7E"/>
<path d="M525.1 214H523V219.5H522V214H519.9V213.1H525.2V214H525.1Z" fill="#616D7E"/>
<path d="M526 219.5V213.1H528.7C529 213.1 529.3 213.2 529.5 213.3C529.7 213.4 530 213.6 530.1 213.8C530.2 214 530.4 214.2 530.5 214.5C530.6 214.7 530.6 215 530.6 215.3C530.6 215.6 530.6 215.8 530.5 216.1C530.4 216.3 530.3 216.6 530.1 216.8C529.9 217 529.7 217.2 529.5 217.3C529.3 217.4 529 217.5 528.7 217.5H527V219.7H526V219.5ZM527 216.4H528.7C528.8 216.4 529 216.4 529.1 216.3C529.2 216.2 529.3 216.2 529.4 216C529.5 215.9 529.6 215.8 529.6 215.6C529.6 215.5 529.7 215.3 529.7 215.1C529.7 214.9 529.7 214.8 529.6 214.6C529.5 214.5 529.5 214.3 529.4 214.2C529.3 214.1 529.2 214 529.1 214C529 214 528.9 213.9 528.7 213.9H527.1V216.4H527Z" fill="#616D7E"/>
<path d="M532.7 217.9L536.2 213.1H537V219.5H536V214.8L532.6 219.5H531.7V213.1H532.7V217.9Z" fill="#616D7E"/>
<path d="M539.6 215.8H540.3L542.3 213.1H543.5L541.2 216.2L543.7 219.5H542.5L540.4 216.7H539.6V219.5H538.6V213.1H539.6V215.8Z" fill="#616D7E"/>
<path d="M543.7 216.2C543.7 215.8 543.8 215.4 543.9 215.1C544 214.7 544.2 214.4 544.5 214.1C544.8 213.8 545.1 213.6 545.5 213.4C545.9 213.2 546.3 213.1 546.8 213.1C547.4 213.1 547.9 213.2 548.3 213.5C548.7 213.8 549 214.1 549.2 214.5L548.4 215C548.3 214.8 548.2 214.6 548.1 214.5C548 214.4 547.8 214.3 547.7 214.2C547.6 214.1 547.4 214.1 547.2 214C547 214 546.9 214 546.7 214C546.4 214 546.1 214.1 545.8 214.2C545.5 214.3 545.3 214.5 545.2 214.7C545 214.9 544.9 215.2 544.8 215.4C544.7 215.7 544.7 216 544.7 216.2C544.7 216.5 544.8 216.8 544.9 217.1C545 217.4 545.1 217.6 545.3 217.8C545.5 218 545.7 218.2 546 218.3C546.3 218.4 546.5 218.5 546.8 218.5C547 218.5 547.1 218.5 547.3 218.4C547.5 218.3 547.6 218.3 547.8 218.2C548 218.1 548.1 218 548.2 217.9C548.3 217.8 548.4 217.6 548.5 217.4L549.3 217.9C549.2 218.1 549.1 218.4 548.9 218.5C548.7 218.7 548.5 218.8 548.3 219C548.1 219.2 547.8 219.2 547.6 219.3C547.3 219.4 547.1 219.4 546.8 219.4C546.3 219.4 545.9 219.3 545.6 219.1C545.2 218.9 544.9 218.7 544.6 218.3C544.3 218 544.1 217.6 544 217.2C543.8 217.1 543.7 216.7 543.7 216.2Z" fill="#616D7E"/>
<path d="M59.6 117.3H176.5C176.6 117.3 176.8 117.4 176.8 117.6V162.5C176.8 162.6 176.7 162.8 176.5 162.8H165.3V180.2C165.3 180.5 165 180.6 164.7 180.3L147.2 162.8H59.6C59.5 162.8 59.3 162.7 59.3 162.5V117.6C59.4 117.5 59.4 117.3 59.6 117.3Z" fill="white"/>
<path d="M59.6001 117.3H65.1001V158.8C65.1001 158.9 65.2001 159.1 65.4001 159.1H149.6L165.5 177.9V180.1C165.5 180.4 165.2 180.5 164.9 180.2L147.4 162.7H59.7001C59.6001 162.7 59.4001 162.6 59.4001 162.4V117.5C59.4001 117.5 59.4001 117.3 59.6001 117.3Z" fill="#E6E7E8"/>
<path d="M60.6 117.3H176.5C176.6 117.3 176.8 117.4 176.8 117.6V162.5C176.8 162.6 176.7 162.8 176.5 162.8H165.3V180.2C165.3 180.5 165 180.6 164.7 180.3L147.2 162.8H59.6C59.5 162.8 59.3 162.7 59.3 162.5V118.6C59.3 117.8 59.9 117.3 60.6 117.3Z" stroke="#616D7E" stroke-width="2" stroke-miterlimit="10"/>
<path d="M155.7 157.2C166.7 154.6 173.4 143.7 170.9 132.7C168.3 121.7 157.4 115 146.4 117.5C135.4 120.1 128.7 131 131.2 142C133.8 153 144.8 159.8 155.7 157.2Z" fill="#8C97A3"/>
<path d="M123.7 128.8H70.2" stroke="#E6E8EB" stroke-width="2" stroke-miterlimit="10" stroke-linecap="round"/>
<path d="M123.7 137.4H70.2" stroke="#E6E8EB" stroke-width="2" stroke-miterlimit="10" stroke-linecap="round"/>
<path d="M123.7 146.2H93.7" stroke="#E6E8EB" stroke-width="2" stroke-miterlimit="10" stroke-linecap="round"/>
<path d="M132 160.8V144.2C132 133.9 140.5 125.3 150.9 125.3C161.2 125.3 169.8 133.8 169.8 144.2V160.8H132Z" fill="#B5E57C"/>
<path d="M150.9 125.1C161.2 125.1 169.8 133.6 169.8 144V150.5C169.8 140.2 161.3 131.6 150.9 131.6C140.6 131.6 132 140.1 132 150.5V144C132 133.7 140.5 125.1 150.9 125.1Z" fill="#E1F5CB"/>
<path d="M132 160.8V144.2C132 133.9 140.5 125.3 150.9 125.3C161.2 125.3 169.8 133.8 169.8 144.2V160.8" stroke="#616D7E" stroke-width="2" stroke-miterlimit="10"/>
<path d="M155.7 157.2C166.7 154.6 173.4 143.7 170.9 132.7C168.3 121.7 157.4 115 146.4 117.5C135.4 120.1 128.7 131 131.2 142C133.8 153 144.8 159.8 155.7 157.2Z" stroke="#616D7E" stroke-width="2" stroke-miterlimit="10"/>
<path d="M176.8 104V109" stroke="#616D7E" stroke-width="2" stroke-miterlimit="10" stroke-linecap="round"/>
<path d="M182.1 108L180.8 110.3" stroke="#616D7E" stroke-width="2" stroke-miterlimit="10" stroke-linecap="round"/>
<path d="M188.2 110.9L183.8 113.3" stroke="#616D7E" stroke-width="2" stroke-miterlimit="10" stroke-linecap="round"/>
<path d="M187.2 117.5H184.8" stroke="#616D7E" stroke-width="2" stroke-miterlimit="10" stroke-linecap="round"/>
<path d="M187.9 124.2L183.5 121.6" stroke="#616D7E" stroke-width="2" stroke-miterlimit="10" stroke-linecap="round"/>
<path d="M181.8 126.8L180.5 124.6" stroke="#616D7E" stroke-width="2" stroke-miterlimit="10" stroke-linecap="round"/>
<path d="M134.4 111H133.8C132.7 111 131.6 110 131.6 108.8L130.9 86C130.9 83.6 132 83 133.9 81.4L136.6 79.2C129.7 74.9 131.4 71.3 131.4 71.3C134.6 76 152.1 72.6 162.2 74C164.6 74.4 166.5 76.3 166.8 78.7L167.1 80.6C169.1 80.6 170.7 80.5 170.7 82.5L170 108.7C170 109.8 169 110.9 167.8 110.9H134.4V111Z" fill="#8C97A3"/>
<path d="M134.4 111H133.7C132.6 111 131.5 110 131.5 108.8L130.8 85.9C130.8 85.9 130.8 85.9 130.8 85.8C130.8 83.4 132.4 81.1 134.7 80.1L136.6 79.2C130 75 131.3 71.9 131.4 71.3C134.7 76 152.2 72.4 162.2 74C164.5 74.4 166.4 76.3 166.6 78.7L166.9 80.6C168.9 80.6 170.5 80.5 170.5 82.5L169.8 108.9C169.8 110 168.8 111.1 167.6 111.1L134.4 111Z" stroke="#616D7E" stroke-width="2" stroke-miterlimit="10"/>
<path d="M151.2 133.2H149.5C147.5 133.2 145.8 131.5 145.8 129.5V118.2C145.8 116.2 147.5 114.5 149.5 114.5H151.2C153.2 114.5 154.9 116.2 154.9 118.2V129.5C155 131.7 153.4 133.2 151.2 133.2Z" fill="white"/>
<path d="M151.2 133.2H149.5C147.5 133.2 145.8 131.5 145.8 129.5V118.2C145.8 116.2 147.5 114.5 149.5 114.5H151.2C153.2 114.5 154.9 116.2 154.9 118.2V129.5C155 131.7 153.4 133.2 151.2 133.2Z" stroke="#616D7E" stroke-width="2" stroke-miterlimit="10"/>
<path d="M150.8 124.2C141.2 124.2 133.3 116.3 133.3 106.7V94.8C133.3 85.2 141.2 79 150.8 79C160.4 79 168.3 85.2 168.3 94.8V106.7C168.3 116.3 160.4 124.2 150.8 124.2Z" fill="white"/>
<path d="M150.8 124.2C141.2 124.2 133.3 116.3 133.3 106.7V94.8C133.3 85.2 141.2 79 150.8 79C160.4 79 168.3 85.2 168.3 94.8V106.7C168.3 116.3 160.4 124.2 150.8 124.2Z" stroke="#616D7E" stroke-width="2" stroke-miterlimit="10"/>
<path d="M169.3 83.3L164.7 81.4C165.1 81 164.6 80.3 164.7 79.7C166.3 75.4 157.8 77.3 157.8 77.3C157.8 77.3 148.2 73.3 137.1 81.6L131.7 89.8C131.7 89.8 147.8 94.4 160.4 83.1C160.5 86.5 161.4 91.6 169.3 93.3V87V83.3Z" fill="#8C97A3"/>
<path d="M131.1 89.1C131.1 89.1 147.3 94 160.2 82.9C160.3 82.8 160.5 82.9 160.5 83C160.6 86.4 162.4 91.5 170.1 93" stroke="#616D7E" stroke-width="2" stroke-miterlimit="10"/>
<path d="M146.1 104.8H136.5C134.9 104.8 133.6 103.5 133.6 101.9V97C133.6 95.4 134.9 94.1 136.5 94.1H146.1C147.7 94.1 149 95.4 149 97V101.9C148.9 103.6 147.6 104.8 146.1 104.8Z" stroke="#616D7E" stroke-width="2" stroke-miterlimit="10"/>
<path d="M165.3 104.8H155.7C154.1 104.8 152.8 103.5 152.8 101.9V97C152.8 95.4 154.1 94.1 155.7 94.1H165.3C166.9 94.1 168.2 95.4 168.2 97V101.9C168.2 103.6 166.9 104.8 165.3 104.8Z" stroke="#616D7E" stroke-width="2" stroke-miterlimit="10"/>
<path d="M148.9 99.5H152.2" stroke="#616D7E" stroke-width="2" stroke-miterlimit="10"/>
<path d="M139.5 99.5H142.9" stroke="#616D7E" stroke-width="2" stroke-miterlimit="10"/>
<path d="M158.7 99.5H162.1" stroke="#616D7E" stroke-width="2" stroke-miterlimit="10"/>
<path d="M150.9 100.8V111.7H155.1" stroke="#616D7E" stroke-width="2" stroke-miterlimit="10"/>
<path d="M145.9 117.3H155.8L158.7 114.9" stroke="#616D7E" stroke-width="2" stroke-miterlimit="10"/>
</g>
<defs>
<clipPath id="clip0_991_3819">
<rect width="591.9" height="322" fill="white"/>
</clipPath>
</defs>
</svg>
