<svg xmlns="http://www.w3.org/2000/svg">
  <symbol id="icon-idea" viewBox="0 0 75 75">
    <path d="M63.2812 1.17188H46.875C44.9367 1.17188 43.3594 2.74922 43.3594 4.6875V7.03125C40.7742 7.03125 38.6719 9.13359 38.6719 11.7188C38.6719 14.3039 40.7742 16.4062 43.3594 16.4062V22.2656H52.7344V19.9219C52.7344 18.6293 53.7855 17.5781 55.0781 17.5781C56.3707 17.5781 57.4219 18.6293 57.4219 19.9219V22.2656H63.2812C65.2195 22.2656 66.7969 20.6883 66.7969 18.75V4.6875C66.7969 2.74922 65.2195 1.17188 63.2812 1.17188ZM64.4531 18.75C64.4531 19.3957 63.9281 19.9219 63.2812 19.9219H59.7656C59.7656 17.3367 57.6633 15.2344 55.0781 15.2344C52.493 15.2344 50.3906 17.3367 50.3906 19.9219H45.7031V14.0625H43.3594C42.0668 14.0625 41.0156 13.0113 41.0156 11.7188C41.0156 10.4262 42.0668 9.375 43.3594 9.375H45.7031V4.6875C45.7031 4.0418 46.2281 3.51562 46.875 3.51562H63.2812C63.9281 3.51562 64.4531 4.0418 64.4531 4.6875V18.75Z" fill="var(--fill-green)"/>
    <path  fill="var(--fill-black)" d="M43.3594 24.6094C40.7742 24.6094 38.6719 26.7117 38.6719 29.2969H33.9844V23.4375H31.6406C30.348 23.4375 29.2969 22.3863 29.2969 21.0938C29.2969 19.8012 30.348 18.75 31.6406 18.75H33.9844V8.20312H30.8426C18.3598 8.20312 8.20312 18.3598 8.20312 30.8426C8.20312 37.6605 11.2301 44.0473 16.507 48.3645L21.0938 52.118V55.2949C19.7332 55.7801 18.75 57.0691 18.75 58.5949C18.75 60.2156 19.8574 61.5703 21.3516 61.9746C21.1887 62.3789 21.0938 62.8184 21.0938 63.2812C21.0938 64.8305 22.1074 66.1336 23.5008 66.6012C23.9859 70.6652 27.4488 73.8281 31.6406 73.8281C35.8324 73.8281 39.2953 70.6652 39.7805 66.6012C41.1738 66.1336 42.1875 64.8305 42.1875 63.2812C42.1875 62.8184 42.0926 62.3789 41.9297 61.9734C43.4238 61.568 44.5312 60.2145 44.5312 58.5938C44.5312 57.068 43.548 55.7789 42.1875 55.2937V52.1168L46.7742 48.3633C52.0512 44.0473 55.0781 37.6605 55.0781 30.8426V29.2969H48.0469C48.0469 26.7117 45.9445 24.6094 43.3594 24.6094V24.6094ZM30.8426 10.5469H31.6406V16.4062C29.0555 16.4062 26.9531 18.5086 26.9531 21.0938C26.9531 23.6789 29.0555 25.7812 31.6406 25.7812V29.2969H26.9531C26.9531 26.7117 24.8508 24.6094 22.2656 24.6094C19.6805 24.6094 17.5781 26.7117 17.5781 29.2969H10.6055C11.3977 18.825 20.1715 10.5469 30.8426 10.5469ZM17.9906 46.5504C13.466 42.8484 10.7871 37.4508 10.5633 31.6406H19.9219V29.2969C19.9219 28.0043 20.973 26.9531 22.2656 26.9531C23.5582 26.9531 24.6094 28.0043 24.6094 29.2969V31.6406H31.6406V36.3281C29.0555 36.3281 26.9531 38.4305 26.9531 41.0156C26.9531 43.6008 29.0555 45.7031 31.6406 45.7031V55.0781H23.4375V51.007L17.9906 46.5504ZM31.6406 71.4844C28.8117 71.4844 26.4445 69.4676 25.8996 66.7969H37.3816C36.8367 69.4676 34.4695 71.4844 31.6406 71.4844ZM38.6719 64.4531H24.6094C23.9625 64.4531 23.4375 63.927 23.4375 63.2812C23.4375 62.6355 23.9625 62.1094 24.6094 62.1094H38.6719C39.3187 62.1094 39.8438 62.6355 39.8438 63.2812C39.8438 63.927 39.3187 64.4531 38.6719 64.4531ZM41.0156 59.7656H38.6719H24.6094H22.2656C21.6188 59.7656 21.0938 59.2395 21.0938 58.5938C21.0938 57.948 21.6188 57.4219 22.2656 57.4219H41.0156C41.6625 57.4219 42.1875 57.948 42.1875 58.5938C42.1875 59.2395 41.6625 59.7656 41.0156 59.7656ZM45.2906 46.5504L39.8438 51.007V55.0781H33.9844V43.3594H31.6406C30.348 43.3594 29.2969 42.3082 29.2969 41.0156C29.2969 39.723 30.348 38.6719 31.6406 38.6719H33.9844V31.6406H41.0156V29.2969C41.0156 28.0043 42.0668 26.9531 43.3594 26.9531C44.652 26.9531 45.7031 28.0043 45.7031 29.2969V31.6406H52.718C52.4941 37.4508 49.8152 42.8484 45.2906 46.5504V46.5504Z"/>
  </symbol>
  <symbol id="icon-analysis" viewBox="0 0 75 75">
    <path fill="var(--fill-black)" d="M61.8057 19.3807L51.3321 8.90855C51.1163 8.69275 50.8236 8.57144 50.5183 8.57144H16.3352C14.4313 8.57144 12.8823 10.1204 12.8823 12.0243V14.2185C7.22829 16.4363 3.21436 21.9472 3.21436 28.3782C3.21436 29.0138 3.72975 29.5292 4.3653 29.5292H18.4174C19.0529 29.5292 19.5683 29.0138 19.5683 28.3782V14.3262C19.5683 13.6906 19.0529 13.1752 18.4174 13.1752C17.3081 13.1752 16.2266 13.2957 15.1842 13.5225V12.0243C15.1842 11.3897 15.7005 10.8733 16.3352 10.8733H49.3674V17.8941C49.3674 19.798 50.9163 21.347 52.8202 21.347H59.841V64.0472C59.841 64.6818 59.3247 65.1981 58.6901 65.1981H16.3352C15.7005 65.1981 15.1842 64.6818 15.1842 64.0472V54.1873C15.1842 53.5518 14.6688 53.0364 14.0333 53.0364C13.3977 53.0364 12.8823 53.5518 12.8823 54.1873V64.0472C12.8823 65.9511 14.4313 67.5 16.3352 67.5H58.6901C60.594 67.5 62.1429 65.9511 62.1429 64.0472V20.1945C62.1429 19.8893 62.0216 19.5965 61.8057 19.3807ZM17.2663 15.5281V27.2273H5.56712C6.11739 21.0297 11.0688 16.0784 17.2663 15.5281ZM52.8202 19.0451C52.1856 19.0451 51.6693 18.5288 51.6693 17.8941V12.5008L58.2145 19.0451H52.8202Z"/>
    <path fill="var(--fill-black)" d="M14.8469 49.1919C14.6329 48.9777 14.336 48.8546 14.0333 48.8546C13.7306 48.8546 13.4336 48.9777 13.2196 49.1919C13.0055 49.4059 12.8823 49.7029 12.8823 50.0056C12.8823 50.3083 13.0054 50.6052 13.2196 50.8192C13.4336 51.0334 13.7306 51.1565 14.0333 51.1565C14.336 51.1565 14.6329 51.0334 14.8469 50.8192C15.0611 50.6052 15.1842 50.3083 15.1842 50.0056C15.1842 49.7029 15.0611 49.4059 14.8469 49.1919Z"/>
    <path fill="var(--fill-black)" d="M22.5396 17.2978C21.904 17.2978 21.3886 17.8132 21.3886 18.4487V31.3497H8.48762C7.85206 31.3497 7.33667 31.8651 7.33667 32.5007C7.33667 40.8836 14.1566 47.7037 22.5396 47.7037C30.9225 47.7037 37.7425 40.8836 37.7425 32.5007C37.7425 24.1177 30.9225 17.2978 22.5396 17.2978ZM23.6905 19.6507C26.3849 19.8898 28.8434 20.9614 30.8075 22.6052L23.6905 29.7221V19.6507ZM22.5396 45.4018C15.8138 45.4018 10.2734 40.2284 9.68955 33.6516H22.5396C22.8572 33.6516 23.1447 33.5229 23.353 33.3149C23.3532 33.3147 23.3533 33.3147 23.3535 33.3145L32.4355 24.2326C34.3105 26.4732 35.4407 29.3574 35.4407 32.5007C35.4407 39.6143 29.6532 45.4018 22.5396 45.4018Z"/>
    <path fill="var(--fill-green)" d="M53.6343 44.8959C51.7304 44.8959 50.1814 46.4449 50.1814 48.3488C50.1814 48.826 50.2788 49.2807 50.4545 49.6945L43.8236 56.3254C43.3679 56.1034 42.8564 55.9785 42.3164 55.9785C41.7892 55.9785 41.2894 56.0978 40.842 56.3099L36.4387 51.9066C36.5914 51.5171 36.6761 51.0937 36.6761 50.6506C36.6761 48.7467 35.1271 47.1977 33.2232 47.1977C31.3193 47.1977 29.7704 48.7467 29.7704 50.6506C29.7704 51.1664 29.8849 51.6558 30.0886 52.0958L25.8652 56.3192C25.4153 56.104 24.9119 55.9833 24.3808 55.9833C22.4769 55.9833 20.928 57.5322 20.928 59.4361C20.928 61.34 22.4769 62.8889 24.3808 62.8889C26.2847 62.8889 27.8337 61.34 27.8337 59.4361C27.8337 58.9024 27.7119 58.3967 27.4948 57.9452L31.6946 53.7453C32.1558 53.9742 32.6747 54.1034 33.2234 54.1034C33.8432 54.1034 34.4248 53.9385 34.9281 53.6514L39.2072 57.9305C38.9872 58.3846 38.8636 58.8938 38.8636 59.4314C38.8636 61.3353 40.4125 62.8842 42.3164 62.8842C44.2203 62.8842 45.7693 61.3353 45.7693 59.4314C45.7693 58.9068 45.6512 58.4093 45.4409 57.9637L52.0099 51.3947C52.4944 51.6541 53.0474 51.8016 53.6343 51.8016C55.5382 51.8016 57.0871 50.2527 57.0871 48.3488C57.0871 46.4449 55.5382 44.8959 53.6343 44.8959ZM24.3807 60.5872C23.7461 60.5872 23.2298 60.0708 23.2298 59.4362C23.2298 58.8016 23.7461 58.2853 24.3807 58.2853C24.6897 58.2853 24.97 58.4083 25.1769 58.6072C25.1815 58.612 25.1856 58.6172 25.1903 58.6219C25.1958 58.6274 25.2018 58.632 25.2074 58.6373C25.4077 58.8445 25.5317 59.126 25.5317 59.4362C25.5317 60.0707 25.0153 60.5872 24.3807 60.5872ZM33.2232 51.8015C32.5886 51.8015 32.0723 51.2852 32.0723 50.6506C32.0723 50.0159 32.5886 49.4996 33.2232 49.4996C33.8579 49.4996 34.3742 50.0159 34.3742 50.6506C34.3742 51.2852 33.8579 51.8015 33.2232 51.8015ZM42.3162 60.5823C41.6815 60.5823 41.1652 60.066 41.1652 59.4314C41.1652 58.7967 41.6815 58.2804 42.3162 58.2804C42.9508 58.2804 43.4671 58.7967 43.4671 59.4314C43.4671 60.066 42.9508 60.5823 42.3162 60.5823ZM53.634 49.4996C52.9994 49.4996 52.4831 48.9833 52.4831 48.3487C52.4831 47.714 52.9995 47.1977 53.634 47.1977C54.2687 47.1977 54.785 47.714 54.785 48.3487C54.785 48.9833 54.2687 49.4996 53.634 49.4996Z"/>
    <path fill="var(--fill-black)" d="M47.8813 35.6187H41.8067C41.1712 35.6187 40.6558 36.1341 40.6558 36.7697C40.6558 37.4052 41.171 37.9206 41.8067 37.9206H47.8813C48.5169 37.9206 49.0322 37.4052 49.0322 36.7697C49.0322 36.1341 48.5169 35.6187 47.8813 35.6187Z"/>
    <path fill="var(--fill-black)" d="M53.9353 35.9559C53.7213 35.7419 53.4243 35.6187 53.1217 35.6187C52.819 35.6187 52.522 35.7417 52.3079 35.9559C52.0939 36.17 51.9707 36.467 51.9707 36.7697C51.9707 37.0724 52.0937 37.3693 52.3079 37.5833C52.522 37.7973 52.8178 37.9206 53.1217 37.9206C53.4243 37.9206 53.7213 37.7975 53.9353 37.5833C54.1493 37.3693 54.2726 37.0724 54.2726 36.7697C54.2726 36.467 54.1494 36.17 53.9353 35.9559Z"/>
    <path fill="var(--fill-black)" d="M55.866 24.5696H41.8067C41.1712 24.5696 40.6558 25.085 40.6558 25.7206C40.6558 26.3561 41.171 26.8715 41.8067 26.8715H55.866C56.5016 26.8715 57.017 26.3561 57.017 25.7206C57.017 25.085 56.5016 24.5696 55.866 24.5696Z"/>
    <path  fill="var(--fill-black)" d="M55.866 30.0942H41.8067C41.1712 30.0942 40.6558 30.6096 40.6558 31.2451C40.6558 31.8807 41.171 32.3961 41.8067 32.3961H55.866C56.5016 32.3961 57.017 31.8807 57.017 31.2451C57.017 30.6096 56.5016 30.0942 55.866 30.0942Z"/>
  </symbol>
   <symbol id="icon-project" viewBox="0 0 75 75">
      <path  fill="var(--fill-black)" d="M32.0714 20.439C31.8254 19.8153 31.1207 19.5091 30.4969 19.7555C26.9764 21.1449 23.9718 23.5295 21.8081 26.6518C19.5925 29.8486 18.4216 33.6015 18.4216 37.5047C18.4216 38.1751 18.9651 38.7184 19.6353 38.7184C20.3054 38.7184 20.8489 38.175 20.8489 37.5047C20.8489 30.6209 24.9857 24.5402 31.3879 22.0136C32.0116 21.7674 32.3174 21.0626 32.0714 20.439Z"/>
      <path  fill="var(--fill-green)" d="M45.4935 36.3025C44.8233 36.3025 44.2799 36.8459 44.2799 37.5161C44.2799 41.2637 41.2309 44.3128 37.4832 44.3128C33.7355 44.3128 30.6865 41.2638 30.6865 37.5161C30.6865 33.7685 33.7355 30.7194 37.4832 30.7194C38.1535 30.7194 38.6969 30.176 38.6969 29.5058C38.6969 28.8355 38.1533 28.2922 37.4832 28.2922C32.3971 28.2922 28.2593 32.43 28.2593 37.5161C28.2593 42.6022 32.3972 46.74 37.4832 46.74C42.5692 46.74 46.7072 42.6022 46.7072 37.5161C46.7072 36.8459 46.1638 36.3025 45.4935 36.3025Z"/>
      <path  fill="var(--fill-green)" d="M49.9927 36.2566C49.3225 36.2566 48.7791 36.8 48.7791 37.4702V37.516C48.7791 38.1863 49.3226 38.7296 49.9927 38.7296C50.6628 38.7296 51.2063 38.1862 51.2063 37.516V37.4702C51.2063 36.8 50.6628 36.2566 49.9927 36.2566Z"/>
      <path  fill="var(--fill-black)" d="M45.0815 47.3254C44.8559 47.0985 44.5427 46.9698 44.2235 46.9698C43.9043 46.9699 43.5913 47.0986 43.3654 47.3254C43.1396 47.5512 43.0098 47.8631 43.0098 48.1836C43.0098 48.5028 43.1395 48.8159 43.3654 49.0417C43.5913 49.2675 43.9031 49.3961 44.2235 49.3961C44.5427 49.3961 44.8559 49.2675 45.0815 49.0417C45.3073 48.8159 45.4373 48.5028 45.4373 48.1836C45.4373 47.863 45.3074 47.5512 45.0815 47.3254Z"/>
      <path  fill="var(--fill-black)" d="M64.4425 50.4356C63.7453 50.4356 63.0884 50.61 62.5119 50.9166L58.9201 47.3248C58.6924 47.0973 58.3838 46.9693 58.0619 46.9693H49.2119C48.5417 46.9693 47.9983 47.5127 47.9983 48.183C47.9983 48.8533 48.5418 49.3966 49.2119 49.3966H57.559L60.7958 52.6333C60.4899 53.2094 60.3158 53.8655 60.3158 54.5619C60.3158 56.8373 62.1669 58.6884 64.4424 58.6884C66.7178 58.6884 68.5689 56.8373 68.5689 54.5619C68.569 52.2865 66.7178 50.4356 64.4425 50.4356ZM64.4425 56.2612C63.5055 56.2612 62.7434 55.499 62.7434 54.5621C62.7434 53.6251 63.5056 52.863 64.4425 52.863C65.3794 52.863 66.1416 53.6252 66.1416 54.5621C66.1416 55.499 65.3793 56.2612 64.4425 56.2612Z"/>
      <path fill="var(--fill-black)" d="M64.4425 16.3167C62.167 16.3167 60.3159 18.1678 60.3159 20.4432C60.3159 21.1396 60.49 21.7958 60.796 22.3718L57.5592 25.6086H44.2787C42.5915 24.6439 40.6967 24.0309 38.7102 23.8507V21.6568H51.5082C51.9502 21.6568 52.3573 21.4165 52.5708 21.0295L56.2591 14.3455C56.7594 14.5613 57.3101 14.6815 57.8888 14.6815C60.1642 14.6815 62.0153 12.8304 62.0153 10.555C62.0153 8.27966 60.1642 6.42856 57.8888 6.42856C55.6134 6.42856 53.7623 8.27966 53.7623 10.5551C53.7623 11.3508 53.9892 12.094 54.3809 12.7249L50.7917 19.2294H38.7102V7.64729C38.7102 6.97693 38.1667 6.43366 37.4966 6.43366H32.0544C31.3841 6.43366 30.8407 6.97705 30.8407 7.64729V11.403C28.3331 12.0383 25.9455 13.0276 23.7206 14.3538L21.0751 11.7084C20.8474 11.4808 20.5386 11.3529 20.2166 11.3529C19.8947 11.3529 19.5859 11.4809 19.3584 11.7088L11.6871 19.3858C11.2133 19.8599 11.2135 20.6279 11.6873 21.1018L14.3298 23.7444C13.0037 25.9695 12.0144 28.357 11.3793 30.8645H7.6421C6.97187 30.8645 6.42847 31.4079 6.42847 32.0781V42.9312C6.42847 43.6015 6.97199 44.1448 7.6421 44.1448H11.3795C12.0145 46.6523 13.0039 49.0397 14.33 51.2648L11.6875 53.9074C11.2137 54.3812 11.2136 55.1493 11.6873 55.6234L19.3586 63.3004C19.5862 63.5281 19.895 63.6562 20.2168 63.6563C20.217 63.6563 20.217 63.6563 20.2171 63.6563C20.539 63.6563 20.8476 63.5283 21.0753 63.3008L23.7207 60.6555C25.9459 61.9815 28.3334 62.971 30.8407 63.6063V67.356C30.8407 68.0262 31.3838 68.5693 32.0536 68.5697H37.4957H37.4965C37.8182 68.5697 38.1269 68.4449 38.3545 68.2174C38.5822 67.9897 38.7102 67.681 38.7102 67.359V55.7204H50.7895L54.3824 62.2741C53.9898 62.9054 53.7624 63.6495 53.7624 64.4461C53.7624 66.7215 55.6135 68.5726 57.8889 68.5726C60.1643 68.5726 62.0154 66.7215 62.0154 64.4461C62.0154 62.1706 60.1642 60.3195 57.8888 60.3195C57.3115 60.3195 56.7618 60.4391 56.2625 60.6542L52.5725 53.9232C52.3595 53.5345 51.9515 53.2929 51.5083 53.2929H38.71V50.0253C38.71 49.355 38.1665 48.8117 37.4964 48.8117C31.2615 48.8117 26.1893 43.7394 26.1893 37.5046C26.1893 31.3453 31.1398 26.3212 37.2707 26.2004C37.3398 26.2126 37.4105 26.2202 37.4832 26.2202C42.1806 26.2202 46.4366 29.1769 48.0739 33.5774C48.2557 34.0661 48.7189 34.3682 49.2114 34.3682C49.352 34.3682 49.4951 34.3436 49.6345 34.2918C50.2628 34.058 50.5826 33.3594 50.3488 32.7311C49.6853 30.9475 48.6662 29.3608 47.3926 28.0358H58.0619C58.3837 28.0358 58.6924 27.9079 58.9201 27.6803L62.5119 24.0886C63.0884 24.3952 63.7453 24.5696 64.4425 24.5696C66.7179 24.5696 68.569 22.7185 68.569 20.4431C68.569 18.1678 66.7178 16.3167 64.4425 16.3167ZM57.8888 8.85595C58.8258 8.85595 59.5879 9.61819 59.5879 10.5551C59.5879 11.492 58.8257 12.2542 57.8888 12.2542C56.9519 12.2542 56.1896 11.492 56.1896 10.5551C56.1896 9.61819 56.9518 8.85595 57.8888 8.85595ZM57.8888 62.7472C58.8258 62.7472 59.5879 63.5094 59.5879 64.4463C59.5879 65.3832 58.8256 66.1454 57.8888 66.1454C56.9518 66.1454 56.1896 65.3832 56.1896 64.4463C56.1896 63.5094 56.9518 62.7472 57.8888 62.7472ZM36.2828 23.8234C29.2762 24.44 23.7619 30.3406 23.7619 37.5047C23.7619 44.6688 29.276 50.5694 36.2827 51.186V66.1448L33.2679 66.1431V62.6441C33.2679 62.0721 32.8684 61.5777 32.3091 61.4576C29.4177 60.8364 26.6899 59.706 24.2014 58.0978C23.721 57.7874 23.0891 57.8544 22.6844 58.2589L20.2172 60.7263L14.2617 54.7662L16.7268 52.3011C17.1312 51.8966 17.1985 51.2647 16.8879 50.7842C15.2798 48.2956 14.1494 45.5679 13.5285 42.6765C13.4083 42.1172 12.9139 41.7178 12.3419 41.7178H8.85573V33.2921H12.3418C12.9139 33.2921 13.4082 32.8926 13.5283 32.3334C14.1494 29.442 15.2797 26.7143 16.8878 24.2257C17.1984 23.7453 17.1311 23.1133 16.7267 22.7088L14.2616 20.2436L20.2171 14.2836L22.6843 16.7509C23.089 17.1556 23.7208 17.2225 24.2012 16.9121C26.6897 15.304 29.4175 14.1735 32.309 13.5523C32.8683 13.4322 33.2678 12.9378 33.2678 12.3658V8.86105H36.2826V23.8234H36.2828ZM64.4425 22.1422C63.5054 22.1422 62.7433 21.38 62.7433 20.4431C62.7433 19.5062 63.5056 18.7439 64.4425 18.7439C65.3793 18.7439 66.1416 19.5062 66.1416 20.4431C66.1416 21.38 65.3793 22.1422 64.4425 22.1422Z"/>
      <path fill="var(--fill-green)" d="M64.4424 33.3934C62.5892 33.3934 61.0178 34.6213 60.4983 36.3063H56.9175C56.2473 36.3063 55.7039 36.8497 55.7039 37.5199C55.7039 38.1901 56.2474 38.7335 56.9175 38.7335H60.4982C61.0177 40.4183 62.5891 41.6464 64.4423 41.6464C66.7177 41.6464 68.5688 39.7953 68.5688 37.5199C68.5689 35.2445 66.7177 33.3934 64.4424 33.3934ZM64.4424 39.219C63.5054 39.219 62.7433 38.4568 62.7433 37.5199C62.7433 36.583 63.5055 35.8208 64.4424 35.8208C65.3793 35.8208 66.1415 36.583 66.1415 37.5199C66.1415 38.4568 65.3792 39.219 64.4424 39.219Z"/>
    </symbol>
    <symbol id="icon-design" viewBox="0 0 75 75">
      <path fill="var(--fill-black)" d="M38.4843 17.7353C38.0364 16.7941 36.6534 16.7944 36.2056 17.7353L22.2955 46.1978C22.155 46.4854 22.1284 46.8155 22.2211 47.1219L26.4744 61.1827C24.6818 61.8443 23.4001 63.5701 23.4001 65.5897V69.0172C23.4001 69.7176 23.9678 70.2853 24.6682 70.2853L50.0219 70.2857C50.3582 70.2857 50.6808 70.1521 50.9185 69.9143C51.1563 69.6765 51.29 69.3539 51.29 69.0176V65.5901C51.29 63.5706 50.0083 61.8447 48.2158 61.1831L52.4693 47.122C52.562 46.8156 52.5354 46.4855 52.3949 46.1979L38.4843 17.7353ZM37.3451 45.9227C38.394 45.9227 39.2473 46.7761 39.2473 47.8249C39.1428 50.3485 35.5469 50.3476 35.4428 47.8249C35.443 46.7761 36.2963 45.9227 37.3451 45.9227ZM48.7537 67.7495L25.9363 67.7491V65.5897C25.9363 64.4044 26.8963 63.4392 28.0796 63.4306C28.0928 63.4307 28.106 63.4307 28.1191 63.4305L46.5684 63.4309C46.5835 63.4312 46.5985 63.4312 46.6136 63.431C47.7955 63.4413 48.7537 64.4059 48.7537 65.5901V67.7495ZM45.6533 60.8947L29.0369 60.8944L24.7928 46.8642L36.0771 23.7746V43.5711C34.2457 44.1181 32.9068 45.8181 32.9068 47.825C33.1507 53.7133 41.5409 53.7114 41.7838 47.825C41.7838 45.8181 40.445 44.1181 38.6135 43.5711V23.7757L49.8976 46.8646L45.6533 60.8947Z"/>
      <path fill="var(--fill-green)" d="M60.1713 5.99121C58.518 5.99121 57.1076 7.05136 56.5843 8.52746H41.7835V6.62527C41.7835 5.92489 41.2157 5.35715 40.5153 5.35715H34.1747C33.4743 5.35715 32.9066 5.92489 32.9066 6.62527V8.52746H18.1059C16.6361 4.5562 10.7953 5.50729 10.7144 9.79559C10.7956 14.0845 16.6368 15.0343 18.1058 11.0637H32.9066V12.9659C32.9066 13.6663 33.4743 14.234 34.1747 14.234H40.5153C41.2157 14.234 41.7835 13.6663 41.7835 12.9659V11.0637H56.5843C58.0545 15.0355 63.8948 14.0834 63.9757 9.79559C63.9757 7.69786 62.269 5.99121 60.1713 5.99121ZM14.5187 11.0637C13.8195 11.0637 13.2506 10.4948 13.2506 9.79559C13.3202 8.11317 15.7175 8.11367 15.7869 9.79559C15.7869 10.4948 15.2181 11.0637 14.5187 11.0637ZM39.2472 11.6978H35.4428V7.8934H39.2472V11.6978ZM60.1713 11.0637C59.4721 11.0637 58.9032 10.4948 58.9032 9.79559C58.9728 8.11317 61.3701 8.11367 61.4394 9.79559C61.4394 10.4948 60.8705 11.0637 60.1713 11.0637Z"/>
    </symbol>
     <symbol id="icon-marketing" viewBox="0 0 75 75">
      <path fill="var(--fill-black)" d="M22.3425 45.9935C22.9728 45.6299 23.1886 44.8229 22.825 44.1926C22.4609 43.5628 21.6544 43.3465 21.0241 43.71C20.3938 44.0741 20.1775 44.8811 20.5416 45.511C20.9051 46.1413 21.7121 46.3576 22.3425 45.9935V45.9935Z"/>
      <path fill="var(--fill-black)" d="M16.9398 55.0928L23.579 66.5929C25.0117 69.0772 28.2345 69.9969 30.7831 68.5235C33.305 67.0661 34.1717 63.8439 32.7128 61.3199L28.7577 54.4686L32.1828 52.4911C32.8132 52.1264 33.0295 51.3205 32.6654 50.6901L30.951 47.7207C31.1555 47.6811 32.4996 47.4174 56.2028 42.7676C59.133 42.6085 60.8886 39.4037 59.4085 36.8417L55.027 29.2529L57.827 25.012C58.102 24.5949 58.1185 24.0588 57.8687 23.6262L55.232 19.0593C54.9822 18.6267 54.5079 18.3733 54.011 18.4027L48.9389 18.707L44.0749 10.2819C43.3704 9.06138 42.1081 8.32238 40.6991 8.30487C40.6822 8.30435 40.6657 8.30435 40.6487 8.30435C39.2871 8.30435 38.0511 8.98207 37.3188 10.1279L20.0967 32.0673L8.9004 38.5314C4.49677 41.0728 2.97138 46.7222 5.52262 51.1377C7.85344 55.1751 12.7674 56.7634 16.9398 55.0928V55.0928ZM30.4298 62.6388C31.158 63.8985 30.727 65.5104 29.4637 66.2401C28.1964 66.9729 26.5824 66.5228 25.8624 65.275L19.2706 53.8563L23.8375 51.2196C31.4665 64.4351 30.3073 62.4272 30.4298 62.6388V62.6388ZM27.4393 52.1846L26.121 49.9012L28.4044 48.5828L29.7228 50.8663L27.4393 52.1846ZM53.3559 21.0832L55.1779 24.239L53.5532 26.6996L50.4128 21.2598L53.3559 21.0832ZM39.524 11.5735C39.8777 10.9946 40.4391 10.9349 40.6667 10.9411C40.8918 10.9436 41.4526 11.0137 41.7909 11.5997L57.1251 38.1601C57.6246 39.0247 57.0175 40.1119 56.0158 40.1366C55.8361 40.1407 55.7532 40.1731 55.2928 40.2591L39.0723 12.1642C39.4127 11.7264 39.4565 11.6842 39.524 11.5735V11.5735ZM37.3178 14.3992L52.5577 40.7958L29.5575 45.307L22.564 33.1941L37.3178 14.3992ZM7.80606 49.8193C7.22722 48.8177 6.92131 47.6806 6.92131 46.5301C6.92131 44.1787 8.18509 41.989 10.2188 40.8148L20.4942 34.8822L27.086 46.2994L16.8106 52.2325C13.6625 54.0494 9.62344 52.9669 7.80606 49.8193V49.8193Z"/>
      <path fill="var(--fill-black)" d="M18.2581 46.8293C17.894 46.199 17.0875 45.9827 16.4572 46.3468L14.1738 47.6651C13.5444 48.0287 12.7364 47.8119 12.3729 47.1826C12.0088 46.5522 11.2023 46.336 10.572 46.7C9.94162 47.0641 9.72532 47.8706 10.0894 48.5009C11.1745 50.3806 13.5949 51.0434 15.4921 49.9486L17.7756 48.6302C18.4059 48.2661 18.6222 47.4602 18.2581 46.8293V46.8293Z"/>
      <path fill="var(--fill-green)" d="M69.826 11.1244L62.4798 15.2124C61.8438 15.5667 61.6146 16.3695 61.9689 17.0056C62.3222 17.641 63.1246 17.8712 63.7621 17.5164L71.1078 13.4285C71.7444 13.0742 71.973 12.2713 71.6187 11.6353C71.2649 10.9988 70.4621 10.7701 69.826 11.1244V11.1244Z"/>
      <path fill="var(--fill-green)" d="M69.0557 24.7787L63.962 23.414C63.2585 23.2255 62.5355 23.6426 62.347 24.3461C62.1585 25.0496 62.5762 25.7721 63.2796 25.9606L68.3739 27.3253C69.0815 27.5153 69.8009 27.0915 69.9884 26.3932C70.1768 25.6897 69.7592 24.9667 69.0557 24.7787Z"/>
      <path fill="var(--fill-green)" d="M56.2555 6.33455L54.8893 11.4288C54.7008 12.1322 55.1179 12.8548 55.8214 13.0438C56.5243 13.2317 57.2474 12.8156 57.4364 12.1116L58.8021 7.01742C58.9906 6.31395 58.5735 5.59091 57.87 5.40243C57.167 5.21394 56.444 5.63108 56.2555 6.33455V6.33455Z"/>
    </symbol>
    <symbol id="icon-development" viewBox="0 0 75 75">
      <path fill="var(--fill-black)" d="M16.9643 9.57144H14.8572V11.6786H16.9643V9.57144Z"/>
      <path fill="var(--fill-black)" d="M21.1787 9.57144H19.0715V11.6786H21.1787V9.57144Z"/>
      <path d="M12.75 9.57144H10.6428V11.6786H12.75V9.57144Z" fill="var(--fill-black)"/>
      <path d="M65.4285 5.35715H10.6428C8.31528 5.35715 6.42847 7.24396 6.42847 9.57143V64.3571C6.42847 66.6846 8.31528 68.5714 10.6428 68.5714H65.4285C67.7559 68.5714 69.6428 66.6846 69.6428 64.3571V9.57143C69.6428 7.24396 67.7559 5.35715 65.4285 5.35715ZM67.5356 64.3571C67.5356 65.5209 66.5923 66.4643 65.4285 66.4643H10.6428C9.47895 66.4643 8.53561 65.5209 8.53561 64.3571V15.8929H67.5356V64.3571ZM67.5356 13.7857H8.53561V9.57143C8.53561 8.40763 9.47895 7.46429 10.6428 7.46429H65.4285C66.5923 7.46429 67.5356 8.40763 67.5356 9.57143V13.7857Z" fill="var(--fill-black)"/>
      <path d="M59.1071 36.9643H55.4375C55.0059 35.1588 54.2928 33.4327 53.324 31.8492L55.9158 29.2585C56.3271 28.847 56.3271 28.1801 55.9158 27.7687L51.4455 23.2984C51.0275 22.9032 50.3738 22.9032 49.9558 23.2984L47.365 25.8902C45.7815 24.9214 44.0554 24.2083 42.2499 23.7767V20.1071C42.2499 19.5253 41.7782 19.0536 41.1964 19.0536H34.8749C34.2931 19.0536 33.8214 19.5253 33.8214 20.1071V23.7767C32.0159 24.2083 30.2898 24.9214 28.7063 25.8902L26.1155 23.2984C25.7041 22.8871 25.0372 22.8871 24.6258 23.2984L20.1555 27.7687C19.7442 28.1801 19.7442 28.847 20.1555 29.2585L22.7473 31.8492C21.7785 33.4327 21.0654 35.1588 20.6338 36.9643H16.9642C16.3824 36.9643 15.9106 37.436 15.9106 38.0178V44.3393C15.9106 44.9211 16.3824 45.3928 16.9642 45.3928H20.6338C21.0654 47.1983 21.7785 48.9244 22.7473 50.5079L20.1555 53.0987C19.7442 53.5101 19.7442 54.177 20.1555 54.5884L24.6258 59.0587C25.0438 59.4539 25.6975 59.4539 26.1155 59.0587L28.7063 56.4669C30.2898 57.4357 32.0159 58.1488 33.8214 58.5804V62.25C33.8214 62.8318 34.2931 63.3036 34.8749 63.3036H41.1964C41.7782 63.3036 42.2499 62.8318 42.2499 62.25V58.5804C44.0554 58.1488 45.7815 57.4357 47.365 56.4669L49.9558 59.0587C50.3672 59.47 51.0341 59.47 51.4455 59.0587L55.9158 54.5884C56.3271 54.177 56.3271 53.5101 55.9158 53.0987L53.324 50.5079C54.2928 48.9244 55.0059 47.1983 55.4375 45.3928H59.1071C59.6889 45.3928 60.1606 44.9211 60.1606 44.3393V38.0178C60.1606 37.436 59.6889 36.9643 59.1071 36.9643ZM58.0535 43.2857H54.5862C54.0805 43.2858 53.6462 43.6454 53.5516 44.1423C53.1535 46.2619 52.3213 48.2765 51.1073 50.0591C50.8228 50.4771 50.8755 51.0383 51.2327 51.3961L53.6812 53.8435L50.7006 56.8241L48.2553 54.3756C47.8975 54.0184 47.3363 53.9658 46.9183 54.2502C45.1357 55.4642 43.1211 56.2964 41.0014 56.6945C40.5046 56.7891 40.145 57.2234 40.1449 57.7291V61.1964H35.9285V57.7291C35.9284 57.2234 35.5688 56.7891 35.0719 56.6945C32.9523 56.2964 30.9377 55.4642 29.1551 54.2502C28.7371 53.9658 28.1759 54.0184 27.8181 54.3756L25.3707 56.8241L22.3901 53.8435L24.8386 51.3982C25.1958 51.0404 25.2484 50.4792 24.964 50.0612C23.75 48.2786 22.9178 46.264 22.5197 44.1444C22.4261 43.6467 21.9915 43.2861 21.4851 43.2857H18.0178V39.0714H21.4851C21.9908 39.0713 22.4251 38.7118 22.5197 38.2149C22.9178 36.0952 23.75 34.0806 24.964 32.298C25.2484 31.88 25.1958 31.3188 24.8386 30.961L22.3901 28.5136L25.3707 25.533L27.816 27.9815C28.1738 28.3387 28.735 28.3914 29.153 28.1069C30.9356 26.8929 32.9502 26.0607 35.0698 25.6626C35.5675 25.569 35.9281 25.1344 35.9285 24.628V21.1607H40.1428V24.628C40.1429 25.1337 40.5025 25.5681 40.9993 25.6626C43.119 26.0607 45.1336 26.8929 46.9162 28.1069C47.3342 28.3914 47.8954 28.3387 48.2532 27.9815L50.7006 25.533L53.6812 28.5136L51.2327 30.9589C50.8755 31.3167 50.8228 31.8779 51.1073 32.2959C52.3213 34.0785 53.1535 36.0931 53.5516 38.2128C53.6462 38.7096 54.0805 39.0692 54.5862 39.0693H58.0535V43.2857Z" fill="var(--fill-black)"/>
      <path d="M38.0358 27.4821C30.4714 27.4821 24.3394 33.6142 24.3394 41.1786C24.3394 48.743 30.4714 54.875 38.0358 54.875C45.6002 54.875 51.7322 48.743 51.7322 41.1786C51.7235 33.6179 45.5965 27.4908 38.0358 27.4821ZM38.0358 52.7679C31.6352 52.7679 26.4465 47.5792 26.4465 41.1786C26.4465 34.778 31.6352 29.5893 38.0358 29.5893C44.4364 29.5893 49.6251 34.778 49.6251 41.1786C49.6176 47.576 44.4332 52.7604 38.0358 52.7679Z" fill="var(--fill-black)"/>
      <path d="M34.4535 38.8607L33.1893 37.175L28.975 40.3357C28.5094 40.6848 28.4151 41.3452 28.7643 41.8107C28.8242 41.8905 28.8952 41.9615 28.975 42.0214L33.1893 45.1821L34.4535 43.4964L31.3634 41.1786L34.4535 38.8607Z" fill="var(--fill-green)"/>
      <path d="M47.3072 40.5464C47.2473 40.4666 47.1763 40.3956 47.0965 40.3357L42.8822 37.175L41.6179 38.8607L44.708 41.1786L41.6179 43.4964L42.8822 45.1821L47.0965 42.0214C47.562 41.6723 47.6563 41.012 47.3072 40.5464Z" fill="var(--fill-green)"/>
      <path d="M39.1646 35.5253L34.9492 46.0598L36.9055 46.8426L41.1209 36.3081L39.1646 35.5253Z" fill="var(--fill-green)"/>
    </symbol>
    <symbol id="icon-content" viewBox="0 0 75 75">
      <path d="M39.4402 35.5616C39.0065 35.1279 38.3045 35.1279 37.8708 35.5616C37.4382 35.9942 37.4382 36.6962 37.8708 37.1299C38.3045 37.5624 39.0065 37.5624 39.4402 37.1299C39.8727 36.6962 39.8727 35.9942 39.4402 35.5616Z" fill="var(--fill-green)"/>
      <path d="M53.5557 21.4448C51.3886 19.2777 47.8802 19.2776 45.7129 21.4448C43.5514 23.6063 43.5513 27.1244 45.7133 29.2877C47.8756 31.4487 51.3937 31.4496 53.5557 29.2875C55.7227 27.1205 55.7232 23.6121 53.5557 21.4448ZM51.9873 27.7189C50.6904 29.0159 48.5793 29.0159 47.2818 27.7191C45.9847 26.4212 45.9846 24.3102 47.2816 23.0133C48.5818 21.7131 50.6868 21.7129 51.9873 23.0133C53.2875 24.3134 53.2877 26.4186 51.9873 27.7189Z" fill="var(--fill-green)"/>
      <path d="M66.1037 8.89631C65.8859 8.67859 65.5887 8.56058 65.2797 8.57223C65.0289 8.58121 59.0581 8.82122 51.9603 11.3299C46.2729 13.338 41.5322 16.2132 37.8701 19.8754C37.0494 20.6961 36.2509 21.5663 35.4868 22.4703C31.8658 20.3388 28.9642 21.0072 27.1298 21.9888C22.9063 24.2492 20.292 30.3865 20.292 34.7763C20.2923 35.2249 20.5626 35.6294 20.977 35.8009C21.1142 35.8578 21.2584 35.8855 21.4012 35.8855C21.6899 35.8855 21.9735 35.7727 22.1857 35.5606C24.4131 33.3332 27.1604 33.4725 28.0579 33.5905L28.4463 33.9789C27.6819 35.7978 27.0662 37.6066 26.6145 39.3657C26.4515 40.0023 26.5065 40.676 26.7489 41.2922C25.681 41.7843 24.6508 42.5069 23.7537 43.404C20.8988 46.259 20.3191 53.2169 20.2958 53.5117C20.2703 53.8352 20.3876 54.1537 20.6171 54.3832C20.8259 54.5919 21.1084 54.708 21.4012 54.708C21.4303 54.708 21.4594 54.7069 21.4886 54.7046C21.7834 54.6814 28.7415 54.1017 31.5964 51.2468C32.4931 50.35 33.2156 49.3199 33.7077 48.2523C34.3601 48.5088 35.0315 48.5404 35.6353 48.3857C37.3937 47.9342 39.2022 47.3186 41.0214 46.5541L41.4098 46.9425C41.5277 47.8401 41.667 50.5875 39.4397 52.8147C39.1226 53.1319 39.0276 53.6089 39.1993 54.0233C39.3709 54.4378 39.7753 54.7079 40.2239 54.7079C44.6138 54.7079 50.751 52.0937 53.0113 47.8701C53.993 46.036 54.6613 43.1343 52.5299 39.5132C53.4335 38.7495 54.3038 37.9509 55.1247 37.13C58.787 33.4677 61.662 28.7271 63.6701 23.04C66.1789 15.942 66.4188 9.97103 66.4278 9.72037C66.4389 9.4126 66.3215 9.11414 66.1037 8.89631ZM22.7717 32.3908C23.4607 29.0565 25.4619 25.3977 28.1769 23.9445C29.9913 22.9736 31.9745 23.0688 34.0831 24.223C32.2867 26.5856 30.725 29.131 29.4232 31.8189C29.4067 31.8087 29.2071 31.5577 28.8362 31.4741C28.6837 31.4396 25.7491 30.8084 22.7717 32.3908ZM30.0279 49.6782C28.5029 51.2032 24.9255 52.0075 22.6644 52.3359C22.9929 50.0747 23.7973 46.4974 25.3222 44.9724C26.1762 44.1184 27.1664 43.4709 28.1617 43.1063L31.8941 46.8386C31.5294 47.8339 30.882 48.8241 30.0279 49.6782ZM35.0843 46.2369C34.7634 46.3191 34.3916 46.1985 34.1152 45.9225C32.6803 44.4877 32.119 43.9263 31.9429 43.7503C31.6199 43.4274 30.8279 42.6353 29.0785 40.8858C28.8019 40.6087 28.6813 40.237 28.7632 39.9166C29.1185 38.5331 29.5831 37.1137 30.148 35.6806L39.3198 44.8523C37.8865 45.4174 36.4673 45.8819 35.0843 46.2369ZM51.0559 46.8234C49.6027 49.5384 45.944 51.5397 42.6098 52.2285C43.6729 50.228 43.9072 47.6814 43.5188 46.1372C43.4287 45.7785 43.1947 45.5982 43.1816 45.577C45.8693 44.2753 48.4145 42.7135 50.7774 40.9171C51.9316 43.026 52.0267 45.0094 51.0559 46.8234ZM53.5565 35.5615C52.557 36.5608 51.4809 37.5263 50.3578 38.431C47.658 40.6048 44.6865 42.4461 41.5162 43.9119L31.0885 33.4844C32.5542 30.3139 34.3956 27.3424 36.5692 24.6429C37.4747 23.5191 38.44 22.4428 39.439 21.4439C42.7247 18.1581 46.9653 15.5431 52.0463 13.6607L61.3397 22.9541C59.4575 28.035 56.8425 32.2755 53.5565 35.5615ZM62.1377 20.6149L54.3855 12.8627C58.6091 11.5508 62.2834 11.0596 64.1174 10.883C63.9408 12.7174 63.4494 16.3917 62.1377 20.6149Z" fill="var(--fill-black)"/>
      <path d="M36.3023 54.3829C35.869 53.9497 35.1667 53.95 34.7337 54.3831L31.5971 57.5207C31.1641 57.9539 31.1643 58.6562 31.5974 59.0892C32.0307 59.5222 32.733 59.5222 33.166 59.089L36.3025 55.9514C36.7355 55.5181 36.7354 54.8158 36.3023 54.3829Z" fill="var(--fill-black)"/>
      <path d="M20.6176 38.6981C20.1846 38.2649 19.4824 38.2649 19.0491 38.6979L15.9114 41.8345C15.4782 42.2674 15.4781 42.9697 15.9111 43.4029C16.344 43.8359 17.0461 43.8364 17.4796 43.4032L20.6172 40.2666C21.0505 39.8336 21.0506 39.1314 20.6176 38.6981Z" fill="var(--fill-black)"/>
      <path d="M28.46 55.9523C28.0271 55.5192 27.3247 55.5192 26.8915 55.9522L19.3784 63.4642C18.9452 63.8973 18.9452 64.5996 19.3783 65.0327C19.8112 65.4658 20.5136 65.466 20.9468 65.0328L28.4598 57.5208C28.8931 57.0877 28.8931 56.3855 28.46 55.9523Z" fill="var(--fill-black)"/>
      <path d="M19.5874 55.9523C19.1544 55.5192 18.452 55.5192 18.0189 55.9522L10.5058 63.4642C10.0726 63.8973 10.0726 64.5996 10.5057 65.0327C10.9386 65.4658 11.641 65.466 12.0742 65.0328L19.5873 57.5208C20.0205 57.0877 20.0205 56.3855 19.5874 55.9523Z" fill="var(--fill-black)"/>
      <path d="M19.0481 46.5403C18.6151 46.1073 17.9127 46.1073 17.4796 46.5404L9.96764 54.0534C9.53453 54.4867 9.53453 55.1888 9.96775 55.622C10.4009 56.0552 11.1031 56.0552 11.5362 55.6219L19.0482 48.1089C19.4813 47.6757 19.4813 46.9735 19.0481 46.5403Z" fill="var(--fill-black)"/>
      <path d="M44.145 30.8554C43.7118 30.4223 43.0098 30.4223 42.5764 30.8554L41.0082 32.4237C40.5751 32.8568 40.5751 33.5591 41.0082 33.9923C41.4414 34.4254 42.1436 34.4254 42.5768 33.9923L44.145 32.424C44.5781 31.9909 44.5781 31.2887 44.145 30.8554Z" fill="var(--fill-green)"/>
    </symbol>
    <symbol id="icon-support" viewBox="0 0 75 75">
      <path d="M67.6755 42.5586C67.0568 42.2631 65.8794 41.6428 64.9448 40.8086C64.3712 40.2967 63.6873 39.518 63.6873 38.7159V34.2937C63.6873 27.6007 61.0303 21.5753 56.9124 16.9168C52.042 11.4072 44.4093 8.57144 37.9654 8.57144C31.5565 8.57144 24.1585 11.3014 19.1132 16.815C14.8846 21.4359 12.2436 27.5507 12.2436 34.2936V38.7158C12.2436 40.1954 10.1707 41.7105 8.39576 42.5585C7.20062 43.1295 6.42847 44.3581 6.42847 45.6887V50.8449C6.42847 52.1755 7.20062 53.4042 8.39576 53.9751C10.1707 54.8231 12.2436 56.3382 12.2436 57.8178C12.2436 58.4997 12.7963 59.0525 13.4782 59.0525H19.2932C19.9751 59.0525 20.5278 58.4997 20.5278 57.8178V38.7159C20.5278 38.034 19.9751 37.4812 19.2932 37.4812H14.7129V34.2937C14.7129 28.5402 16.8143 23.269 20.2886 19.2048L20.7435 19.5523C23.3682 21.5565 26.919 21.7774 29.7896 20.1152C30.7735 19.5455 31.8257 19.0767 32.9169 18.7219C33.5653 18.511 33.9201 17.8144 33.7093 17.166C33.4984 16.5176 32.8015 16.1625 32.1533 16.3736C30.8976 16.7819 29.686 17.3218 28.5522 17.9783C26.5479 19.1387 24.0712 18.9865 22.2423 17.5898L21.9999 17.4046C26.168 13.4623 31.789 11.0411 37.9654 11.0411C44.188 11.0411 49.8474 13.4985 54.0248 17.4932L53.807 17.6595C51.9666 19.0646 49.481 19.2119 47.4748 18.0343C46.279 17.3325 45.0009 16.7625 43.676 16.3401C43.0265 16.1327 42.3318 16.4917 42.1247 17.1414C41.9175 17.7911 42.2763 18.4857 42.926 18.6928C44.0768 19.0597 45.1869 19.5547 46.225 20.1641C47.5163 20.9221 48.9466 21.2965 50.3699 21.2965C52.1156 21.2965 53.8507 20.733 55.3056 19.6221L55.7245 19.3022C59.1496 23.3531 61.218 28.586 61.218 34.2937V37.4812H56.778C56.0961 37.4812 55.5434 38.034 55.5434 38.7159V57.1224L45.1181 63.4398C44.673 63.7096 44.1625 63.8522 43.6418 63.8522H42.7424C42.7467 63.7906 42.7517 63.7291 42.7517 63.6664V61.3672C42.7517 59.9032 41.5607 58.712 40.0965 58.712H36.9459C35.4819 58.712 34.2907 59.903 34.2907 61.3672V63.6664C34.2907 65.1304 35.4817 66.3215 36.9459 66.3215H43.6417C44.6136 66.3215 45.5665 66.0553 46.3977 65.5517L57.1229 59.0525H62.4525C63.1344 59.0525 63.6872 58.4997 63.6872 57.8178C63.6872 57.0157 64.371 56.237 64.9447 55.7251C65.8793 54.891 67.0567 54.2707 67.6753 53.9751C68.8706 53.4042 69.6428 52.1755 69.6428 50.8449V45.6887C69.6428 44.3581 68.8706 43.1295 67.6755 42.5586V42.5586ZM9.46016 51.7469C9.11853 51.5837 8.89778 51.2296 8.89778 50.8449V45.6887C8.89778 45.304 9.11853 44.9499 9.46016 44.7867C10.1491 44.4575 11.2365 43.8717 12.2436 43.0493V53.4842C11.2363 52.6618 10.1491 52.076 9.46016 51.7469V51.7469ZM18.0585 39.9505V56.5832H14.7129V39.9505H18.0585ZM36.946 63.8522C36.8434 63.8522 36.7601 63.7689 36.7601 63.6664V61.3672C36.7601 61.2646 36.8434 61.1813 36.946 61.1813H40.0966C40.1992 61.1813 40.2826 61.2646 40.2826 61.3672V63.6664C40.2826 63.7689 40.1992 63.8522 40.0966 63.8522H36.946ZM58.0127 39.9505H61.218V56.5832H58.0127V39.9505ZM67.1734 50.8449C67.1734 51.2296 66.9527 51.5837 66.6111 51.7469C65.382 52.3341 64.4278 52.9407 63.6873 53.5396V42.9941C64.4278 43.593 65.382 44.1996 66.6111 44.7868C66.9527 44.95 67.1734 45.304 67.1734 45.6888V50.8449Z" fill="var(--fill-black)"/>
      <path d="M38.1546 52.4259C45.2022 52.4259 50.9358 46.6922 50.9358 39.6446C50.9358 32.5969 45.2022 26.8633 38.1546 26.8633C31.1069 26.8633 25.3733 32.5969 25.3733 39.6446C25.3733 42.3797 26.2627 45.0647 27.8862 47.2549V52.7718C27.8862 53.62 28.7629 54.228 29.5584 53.9263L34.7373 51.9634C35.8465 52.2703 36.9939 52.4259 38.1546 52.4259V52.4259ZM34.2506 49.5069L30.3555 50.9833V46.8771C30.3651 46.5858 30.2713 46.298 30.087 46.0667C28.6187 44.225 27.8427 42.0044 27.8427 39.6446C27.8427 33.9585 32.4687 29.3326 38.1547 29.3326C43.8406 29.3326 48.4666 33.9586 48.4666 39.6446C48.4666 45.3305 43.8406 49.9566 38.1547 49.9566C37.0986 49.9566 36.0569 49.7974 35.0585 49.4836C34.7941 49.4003 34.5095 49.4086 34.2506 49.5069V49.5069Z" fill="var(--fill-green)"/>
      <path d="M38.2786 46.5306C38.9605 46.5306 39.5133 45.9779 39.5133 45.296V38.1786C39.5133 37.4967 38.9605 36.9439 38.2786 36.9439C37.5967 36.9439 37.0439 37.4967 37.0439 38.1786V45.296C37.0439 45.9779 37.5967 46.5306 38.2786 46.5306Z" fill="var(--fill-green)"/>
      <path d="M37.1392 34.3314C37.3946 34.9542 38.1299 35.2555 38.7505 34.9994C39.3725 34.7424 39.6759 34.0084 39.4184 33.3869C39.161 32.7654 38.4274 32.4616 37.806 32.7189C37.1855 32.9759 36.881 33.7116 37.1392 34.3314V34.3314Z" fill="var(--fill-green)"/>
      <path d="M37.4937 17.8278C38.5302 18.2595 39.5676 17.1312 39.068 16.1337C38.8329 15.6644 38.3038 15.3898 37.7845 15.4677C37.2615 15.5462 36.8423 15.9579 36.75 16.4773C36.6503 17.0381 36.9665 17.6116 37.4937 17.8278V17.8278Z" fill="var(--fill-black)"/>
    </symbol>
</svg>